SplineFontDB: 3.2
FontName: Untitled1
FullName: Untitled1
FamilyName: Untitled1
Weight: Regular
Copyright: Copyright (c) 2020, Thomas Hjelm
UComments: "2020-7-19: Created with FontForge (http://fontforge.org)"
Version: 001.000
ItalicAngle: 0
UnderlinePosition: -100
UnderlineWidth: 50
Ascent: 512
Descent: 0
InvalidEm: 0
LayerCount: 5
Layer: 0 0 "Back" 1
Layer: 1 0 "Fore" 0
Layer: 2 0 "Back 2" 1
Layer: 3 0 "Back 3" 1
Layer: 4 0 "Back 4" 1
XUID: [1021 89 -336038520 95879]
OS2Version: 0
OS2_WeightWidthSlopeOnly: 0
OS2_UseTypoMetrics: 1
CreationTime: 1595169313
ModificationTime: 1612038255
OS2TypoAscent: 0
OS2TypoAOffset: 1
OS2TypoDescent: 0
OS2TypoDOffset: 1
OS2TypoLinegap: 0
OS2WinAscent: 0
OS2WinAOffset: 1
OS2WinDescent: 0
OS2WinDOffset: 1
HheadAscent: 0
HheadAOffset: 1
HheadDescent: 0
HheadDOffset: 1
OS2Vendor: 'PfEd'
MarkAttachClasses: 1
DEI: 91125
Encoding: ISO8859-1
UnicodeInterp: none
NameList: AGL For New Fonts
DisplaySize: -96
AntiAlias: 1
FitToEm: 0
WinInfo: 225 15 6
BeginPrivate: 0
EndPrivate
Grid
405 449 m 6
 417 449 427.166666667 444.833333333 435.5 436.5 c 132
 443.833333333 428.166666667 448 418 448 406 c 6
 448 108 l 6
 448 96 443.833333333 85.8333333333 435.5 77.5 c 132
 427.166666667 69.1666666667 417 65 405 65 c 6
 107 65 l 6
 95 65 84.8333333333 69.1666666667 76.5 77.5 c 132
 68.1666666667 85.8333333333 64 96 64 108 c 6
 64 406 l 6
 64 418 68.1666666667 428.166666667 76.5 436.5 c 132
 84.8333333333 444.833333333 95 449 107 449 c 6
 405 449 l 6
235 364 m 6
 223 364 212.833333333 359.833333333 204.5 351.5 c 132
 196.166666667 343.166666667 192 333 192 321 c 6
 192 193 l 6
 192 181 196.166666667 170.833333333 204.5 162.5 c 132
 212.833333333 154.166666667 223 150 235 150 c 6
 277 150 l 6
 289 150 299.166666667 154.166666667 307.5 162.5 c 132
 315.833333333 170.833333333 320 181 320 193 c 6
 320 321 l 6
 320 333 315.833333333 343.166666667 307.5 351.5 c 132
 299.166666667 359.833333333 289 364 277 364 c 6
 235 364 l 6
235 321 m 5
 277 321 l 5

StartChar: eight
Encoding: 56 56 0
Width: 512
Flags: HW
LayerCount: 5
UndoRedoHistory
Layer: 1
Undoes
UndoOperation
Index: 0
Type: 1
WasModified: 1
WasOrder2: 0
Layer: 2
Width: 512
VWidth: 512
LBearingChange: 0
UnicodeEnc: 0
InstructionsLength: 0
SplineSet
234 235 m 5
 234 193 l 5
 277 193 l 5
 277 235 l 5
 234 235 l 5
234 321 m 5
 234 278 l 5
 277 278 l 5
 277 321 l 5
 234 321 l 5
234 150 m 6
 222.666992188 150 212.833007812 154.166992188 204.5 162.5 c 132
 196.166992188 170.833007812 192 181 192 193 c 6
 192 225 l 6
 192 233.666992188 195.166992188 241.166992188 201.5 247.5 c 132
 207.833007812 253.833007812 215.333007812 257 224 257 c 5
 215.333007812 257 207.833007812 260.166992188 201.5 266.5 c 132
 195.166992188 272.833007812 192 280.333007812 192 289 c 6
 192 321 l 6
 192 333 196.166992188 343 204.5 351 c 132
 212.833007812 359 222.666992188 363 234 363 c 6
 277 363 l 6
 289 363 299.166992188 359 307.5 351 c 132
 315.833007812 343 320 333 320 321 c 6
 320 289 l 6
 320 280.333007812 316.833007812 272.833007812 310.5 266.5 c 132
 304.166992188 260.166992188 296.666992188 257 288 257 c 5
 296.666992188 257 304.166992188 253.833007812 310.5 247.5 c 132
 316.833007812 241.166992188 320 233.666992188 320 225 c 6
 320 193 l 6
 320 181 315.666992188 170.833007812 307 162.5 c 132
 298.333007812 154.166992188 288.333007812 150 277 150 c 6
 234 150 l 6
405 107 m 5
 405 406 l 5
 106 406 l 5
 106 107 l 5
 405 107 l 5
405 449 m 6
 416.333007812 449 426.333007812 444.666992188 435 436 c 132
 443.666992188 427.333007812 448 417.333007812 448 406 c 6
 448 107 l 6
 448 95.666992188 443.666992188 85.833007812 435 77.5 c 132
 426.333007812 69.166992188 416.333007812 65 405 65 c 6
 106 65 l 6
 94.6669921875 65 84.8330078125 69.166992188 76.5 77.5 c 132
 68.1669921875 85.833007812 64 95.666992188 64 107 c 6
 64 406 l 6
 64 417.333007812 68.1669921875 427.333007812 76.5 436 c 132
 84.8330078125 444.666992188 94.6669921875 449 106 449 c 6
 405 449 l 6
EndSplineSet
EndUndoOperation
EndUndoes
Redoes
EndRedoes
EndUndoRedoHistory
Fore
SplineSet
234 234 m 5
 234 192 l 5
 277 192 l 5
 277 234 l 5
 234 234 l 5
234 320 m 5
 234 277 l 5
 277 277 l 5
 277 320 l 5
 234 320 l 5
234 149 m 6
 222.666992188 149 212.833007812 153.166992188 204.5 161.5 c 132
 196.166992188 169.833007812 192 180 192 192 c 6
 192 224 l 6
 192 232.666992188 195.166992188 240.166992188 201.5 246.5 c 132
 207.833007812 252.833007812 215.333007812 256 224 256 c 5
 215.333007812 256 207.833007812 259.166992188 201.5 265.5 c 132
 195.166992188 271.833007812 192 279.333007812 192 288 c 6
 192 320 l 6
 192 332 196.166992188 342 204.5 350 c 132
 212.833007812 358 222.666992188 362 234 362 c 6
 277 362 l 6
 289 362 299.166992188 358 307.5 350 c 132
 315.833007812 342 320 332 320 320 c 6
 320 288 l 6
 320 279.333007812 316.833007812 271.833007812 310.5 265.5 c 132
 304.166992188 259.166992188 296.666992188 256 288 256 c 5
 296.666992188 256 304.166992188 252.833007812 310.5 246.5 c 132
 316.833007812 240.166992188 320 232.666992188 320 224 c 6
 320 192 l 6
 320 180 315.666992188 169.833007812 307 161.5 c 132
 298.333007812 153.166992188 288.333007812 149 277 149 c 6
 234 149 l 6
405 106 m 5
 405 405 l 5
 106 405 l 5
 106 106 l 5
 405 106 l 5
405 448 m 6
 416.333007812 448 426.333007812 443.666992188 435 435 c 132
 443.666992188 426.333007812 448 416.333007812 448 405 c 6
 448 106 l 6
 448 94.666992188 443.666992188 84.833007812 435 76.5 c 132
 426.333007812 68.166992188 416.333007812 64 405 64 c 6
 106 64 l 6
 94.6669921875 64 84.8330078125 68.166992188 76.5 76.5 c 132
 68.1669921875 84.833007812 64 94.666992188 64 106 c 6
 64 405 l 6
 64 416.333007812 68.1669921875 426.333007812 76.5 435 c 132
 84.8330078125 443.666992188 94.6669921875 448 106 448 c 6
 405 448 l 6
EndSplineSet
EndChar

StartChar: asterisk
Encoding: 42 42 1
Width: 512
Flags: HW
LayerCount: 5
UndoRedoHistory
Layer: 1
Undoes
UndoOperation
Index: 0
Type: 3
WasModified: 1
WasOrder2: 0
Layer: 2
EndUndoOperation
EndUndoes
Redoes
EndRedoes
EndUndoRedoHistory
Fore
SplineSet
250 351 m 1
 341 352 l 1
 341 427 l 1
 171 427 l 1
 171 352 l 1
 250 351 l 1
341 160 m 1
 256 245 l 1
 171 160 l 1
 171 85 l 5
 341 85 l 1
 341 160 l 1
128 469 m 1
 384 469 l 1
 384 341 l 1
 299 256 l 1
 384 171 l 1
 384 43 l 1
 128 43 l 1
 128 171 l 1
 213 256 l 1
 128 341 l 1
 128 469 l 1
EndSplineSet
EndChar

StartChar: plus
Encoding: 43 43 2
Width: 512
Flags: HW
LayerCount: 5
UndoRedoHistory
Layer: 1
Undoes
UndoOperation
Index: 0
Type: 3
WasModified: 1
WasOrder2: 0
Layer: 2
EndUndoOperation
EndUndoes
Redoes
EndRedoes
EndUndoRedoHistory
Fore
SplineSet
229.16015625 449.48046875 m 1
 229.16015625 471.440429688 l 1
 383.51953125 471.440429688 l 1
 383.51953125 449.48046875 l 1
 229.16015625 449.48046875 l 1
128.040039062 504.279296875 m 1
 384.51953125 504.279296875 l 1
 384.51953125 482.6796875 l 1
 128.040039062 482.6796875 l 1
 128.040039062 504.279296875 l 1
250 320 m 1
 341 321 l 1
 341 396 l 1
 171 396 l 1
 171 321 l 1
 250 320 l 1
341 129 m 1
 256 214 l 1
 171 129 l 1
 171 54 l 1
 341 54 l 1
 341 129 l 1
128 438 m 1
 384 438 l 1
 384 310 l 1
 299 225 l 1
 384 140 l 1
 384 12 l 1
 128 12 l 1
 128 140 l 1
 213 225 l 1
 128 310 l 1
 128 438 l 1
EndSplineSet
EndChar

StartChar: comma
Encoding: 44 44 3
Width: 512
Flags: HW
LayerCount: 5
Fore
SplineSet
256 267 m 5
 341 352 l 5
 341 427 l 5
 171 427 l 5
 171 352 l 5
 256 267 l 5
341 160 m 1
 256 245 l 1
 171 160 l 1
 171 160 l 1
 341 160 l 1
 341 160 l 1
128 469 m 1
 384 469 l 1
 384 341 l 1
 299 256 l 1
 384 171 l 1
 384 43 l 1
 128 43 l 1
 128 171 l 1
 213 256 l 1
 128 341 l 1
 128 469 l 1
EndSplineSet
EndChar

StartChar: hyphen
Encoding: 45 45 4
Width: 512
Flags: HW
LayerCount: 5
UndoRedoHistory
Layer: 1
Undoes
UndoOperation
Index: 0
Type: 1
WasModified: 1
WasOrder2: 0
Layer: 2
Width: 512
VWidth: 512
LBearingChange: 0
UnicodeEnc: 0
InstructionsLength: 0
SplineSet
229.16015625 449.48046875 m 1
 229.16015625 471.440429688 l 1
 383.51953125 471.440429688 l 5
 383.51953125 464.120442708 383.51953125 456.800455729 383.51953125 449.48046875 c 5
 229.16015625 449.48046875 l 1
128.040039062 504.639648438 m 1
 384.51953125 504.639648438 l 5
 384.51953125 497.319661458 384.51953125 489.999674479 384.51953125 482.6796875 c 5
 128.040039062 482.6796875 l 1
 128.040039062 504.639648438 l 1
256 236 m 1
 341 321 l 1
 341 396 l 1
 171 396 l 1
 171 321 l 1
 256 236 l 1
341 129 m 1
 256 214 l 1
 171 129 l 1
 171 129 l 1
 341 129 l 1
 341 129 l 1
128 438 m 1
 384 438 l 1
 384 310 l 1
 299 225 l 1
 384 140 l 1
 384 12 l 1
 128 12 l 1
 128 140 l 1
 213 225 l 1
 128 310 l 1
 128 438 l 1
EndSplineSet
EndUndoOperation
EndUndoes
Redoes
EndRedoes
EndUndoRedoHistory
Fore
SplineSet
229.16015625 449.48046875 m 5
 229.16015625 471.440429688 l 5
 384 471.440429688 l 5
 384 464.120442708 384 456.800455729 384 449.48046875 c 5
 229.16015625 449.48046875 l 5
128.040039062 504.639648438 m 5
 384 504.639648438 l 5
 384 497.319661458 384 489.999674479 384 482.6796875 c 5
 128.040039062 482.6796875 l 5
 128.040039062 504.639648438 l 5
256 236 m 1
 341 321 l 1
 341 396 l 1
 171 396 l 1
 171 321 l 1
 256 236 l 1
341 129 m 1
 256 214 l 1
 171 129 l 1
 171 129 l 1
 341 129 l 1
 341 129 l 1
128 438 m 1
 384 438 l 1
 384 310 l 1
 299 225 l 1
 384 140 l 1
 384 12 l 1
 128 12 l 1
 128 140 l 1
 213 225 l 1
 128 310 l 1
 128 438 l 1
EndSplineSet
EndChar

StartChar: period
Encoding: 46 46 5
Width: 512
Flags: HW
LayerCount: 5
Fore
SplineSet
256 267 m 5
 341 352 l 5
 341 427 l 5
 171 427 l 5
 171 352 l 5
 256 267 l 5
128 469 m 1
 384 469 l 1
 384 341 l 1
 299 256 l 1
 384 171 l 1
 384 43 l 1
 128 43 l 1
 128 171 l 1
 213 256 l 1
 128 341 l 1
 128 469 l 1
EndSplineSet
EndChar

StartChar: nine
Encoding: 57 57 6
Width: 512
Flags: HW
LayerCount: 5
UndoRedoHistory
Layer: 1
Undoes
UndoOperation
Index: 0
Type: 1
WasModified: 1
WasOrder2: 0
Layer: 2
Width: 512
VWidth: 512
LBearingChange: 0
UnicodeEnc: 0
InstructionsLength: 0
SplineSet
277 278 m 5
 277 321 l 5
 234 321 l 5
 234 278 l 5
 277 278 l 5
277 363 m 6
 289 363 299.166992188 359 307.5 351 c 132
 315.833007812 343 320 333 320 321 c 6
 320 193 l 6
 320 181 315.666992188 170.833007812 307 162.5 c 132
 298.333007812 154.166992188 288.333007812 150 277 150 c 6
 192 150 l 5
 192 193 l 5
 277 193 l 5
 277 235 l 5
 234 235 l 6
 222.666992188 235 212.833007812 239.166992188 204.5 247.5 c 132
 196.166992188 255.833007812 192 266 192 278 c 6
 192 321 l 6
 192 333 196.166992188 343 204.5 351 c 132
 212.833007812 359 222.666992188 363 234 363 c 6
 277 363 l 6
405 107 m 5
 405 406 l 5
 106 406 l 5
 106 107 l 5
 405 107 l 5
405 449 m 6
 416.333007812 449 426.333007812 444.666992188 435 436 c 132
 443.666992188 427.333007812 448 417.333007812 448 406 c 6
 448 107 l 6
 448 95.666992188 443.666992188 85.833007812 435 77.5 c 132
 426.333007812 69.166992188 416.333007812 65 405 65 c 6
 106 65 l 6
 94.6669921875 65 84.8330078125 69.166992188 76.5 77.5 c 132
 68.1669921875 85.833007812 64 95.666992188 64 107 c 6
 64 406 l 6
 64 417.333007812 68.1669921875 427.333007812 76.5 436 c 132
 84.8330078125 444.666992188 94.6669921875 449 106 449 c 6
 405 449 l 6
EndSplineSet
EndUndoOperation
EndUndoes
Redoes
EndRedoes
EndUndoRedoHistory
Fore
SplineSet
277 277 m 5
 277 320 l 5
 234 320 l 5
 234 277 l 5
 277 277 l 5
277 362 m 6
 289 362 299.166992188 358 307.5 350 c 132
 315.833007812 342 320 332 320 320 c 6
 320 192 l 6
 320 180 315.666992188 169.833007812 307 161.5 c 132
 298.333007812 153.166992188 288.333007812 149 277 149 c 6
 192 149 l 5
 192 192 l 5
 277 192 l 5
 277 234 l 5
 234 234 l 6
 222.666992188 234 212.833007812 238.166992188 204.5 246.5 c 132
 196.166992188 254.833007812 192 265 192 277 c 6
 192 320 l 6
 192 332 196.166992188 342 204.5 350 c 132
 212.833007812 358 222.666992188 362 234 362 c 6
 277 362 l 6
405 106 m 5
 405 405 l 5
 106 405 l 5
 106 106 l 5
 405 106 l 5
405 448 m 6
 416.333007812 448 426.333007812 443.666992188 435 435 c 132
 443.666992188 426.333007812 448 416.333007812 448 405 c 6
 448 106 l 6
 448 94.666992188 443.666992188 84.833007812 435 76.5 c 132
 426.333007812 68.166992188 416.333007812 64 405 64 c 6
 106 64 l 6
 94.6669921875 64 84.8330078125 68.166992188 76.5 76.5 c 132
 68.1669921875 84.833007812 64 94.666992188 64 106 c 6
 64 405 l 6
 64 416.333007812 68.1669921875 426.333007812 76.5 435 c 132
 84.8330078125 443.666992188 94.6669921875 448 106 448 c 6
 405 448 l 6
EndSplineSet
EndChar

StartChar: less
Encoding: 60 60 7
Width: 512
Flags: HW
LayerCount: 5
Fore
SplineSet
256.000976562 162.43359375 m 128
 285.060546875 162.43359375 310.073242188 172.84375 331.0390625 193.665039062 c 128
 352.00390625 214.487304688 362.486328125 239.328125 362.486328125 268.190429688 c 128
 362.486328125 297.051757812 352.00390625 321.893554688 331.0390625 342.715820312 c 128
 310.073242188 363.537109375 285.060546875 373.948242188 256.000976562 373.948242188 c 128
 226.939453125 373.948242188 201.926757812 363.537109375 180.962890625 342.715820312 c 128
 159.99609375 321.893554688 149.514648438 297.051757812 149.514648438 268.190429688 c 128
 149.514648438 239.328125 159.99609375 214.487304688 180.962890625 193.665039062 c 128
 201.926757812 172.84375 226.939453125 162.43359375 256.000976562 162.43359375 c 128
256.000976562 399.922851562 m 128
 292.532226562 399.922851562 323.7734375 387.038085938 349.720703125 361.268554688 c 128
 375.666992188 335.5 388.640625 304.473632812 388.640625 268.190429688 c 128
 388.640625 231.90625 375.666992188 200.881835938 349.720703125 175.112304688 c 128
 323.7734375 149.342773438 292.532226562 136.458984375 256.000976562 136.458984375 c 128
 219.465820312 136.458984375 188.2265625 149.342773438 162.279296875 175.112304688 c 128
 136.33203125 200.881835938 123.359375 231.90625 123.359375 268.190429688 c 128
 123.359375 304.473632812 136.33203125 335.5 162.279296875 361.268554688 c 128
 188.2265625 387.038085938 219.465820312 399.922851562 256.000976562 399.922851562 c 128
EndSplineSet
EndChar

StartChar: greater
Encoding: 62 62 8
Width: 512
Flags: HW
LayerCount: 5
UndoRedoHistory
Layer: 1
Undoes
UndoOperation
Index: 0
Type: 1
WasModified: 1
WasOrder2: 0
Layer: 2
Width: 512
VWidth: 512
LBearingChange: 0
UnicodeEnc: 0
InstructionsLength: 0
SplineSet
405 182 m 5
 277 54 l 5
 247 84 l 5
 324 161 l 5
 85 161 l 5
 85 417 l 5
 128 417 l 5
 128 203 l 5
 324 203 l 5
 247 280 l 5
 277 310 l 5
 405 182 l 5
EndSplineSet
EndUndoOperation
EndUndoes
Redoes
EndRedoes
EndUndoRedoHistory
Fore
SplineSet
405 183 m 5
 277 55 l 5
 247 85 l 5
 324 162 l 5
 85 162 l 5
 85 418 l 5
 128 418 l 5
 128 204 l 5
 324 204 l 5
 247 281 l 5
 277 311 l 5
 405 183 l 5
EndSplineSet
EndChar

StartChar: question
Encoding: 63 63 9
Width: 512
Flags: HW
LayerCount: 5
UndoRedoHistory
Layer: 1
Undoes
UndoOperation
Index: 0
Type: 1
WasModified: 1
WasOrder2: 0
Layer: 2
Width: 512
VWidth: 512
LBearingChange: 0
UnicodeEnc: 0
InstructionsLength: 0
SplineSet
313 200 m 5
 283 230 l 5
 360 307 l 5
 164 307 l 5
 164 93 l 5
 121 93 l 5
 121 349 l 5
 360 349 l 5
 283 426 l 5
 313 456 l 5
 441 328 l 5
 313 200 l 5
EndSplineSet
EndUndoOperation
EndUndoes
Redoes
EndRedoes
EndUndoRedoHistory
Fore
SplineSet
313 201 m 5
 283 231 l 5
 360 308 l 5
 164 308 l 5
 164 94 l 5
 121 94 l 5
 121 350 l 5
 360 350 l 5
 283 427 l 5
 313 457 l 5
 441 329 l 5
 313 201 l 5
EndSplineSet
EndChar

StartChar: H
Encoding: 72 72 10
Width: 512
Flags: HW
LayerCount: 5
Fore
SplineSet
427 341 m 1
 427 427 l 1
 341 427 l 1
 341 341 l 1
 427 341 l 1
427 213 m 1
 427 299 l 1
 341 299 l 1
 341 213 l 1
 427 213 l 1
427 85 m 1
 427 171 l 1
 341 171 l 1
 341 85 l 1
 427 85 l 1
299 341 m 1
 299 427 l 1
 213 427 l 1
 213 341 l 1
 299 341 l 1
299 213 m 1
 299 299 l 1
 213 299 l 1
 213 213 l 1
 299 213 l 1
299 85 m 1
 299 171 l 1
 213 171 l 1
 213 85 l 1
 299 85 l 1
171 341 m 1
 171 427 l 1
 85 427 l 1
 85 341 l 1
 171 341 l 1
171 213 m 1
 171 299 l 1
 85 299 l 1
 85 213 l 1
 171 213 l 1
171 85 m 1
 171 171 l 1
 85 171 l 1
 85 85 l 1
 171 85 l 1
427 469 m 6
 438.333333333 469 448.166666667 464.833333333 456.5 456.5 c 132
 464.833333333 448.166666667 469 438.333333333 469 427 c 6
 469 85 l 6
 469 73.6666666667 464.833333333 63.8333333333 456.5 55.5 c 132
 448.166666667 47.1666666667 438.333333333 43 427 43 c 6
 85 43 l 6
 73.6666666667 43 63.8333333333 47.1666666667 55.5 55.5 c 132
 47.1666666667 63.8333333333 43 73.6666666667 43 85 c 6
 43 427 l 6
 43 438.333333333 47.1666666667 448.166666667 55.5 456.5 c 132
 63.8333333333 464.833333333 73.6666666667 469 85 469 c 6
 427 469 l 6
EndSplineSet
EndChar

StartChar: I
Encoding: 73 73 11
Width: 512
Flags: HW
LayerCount: 5
Fore
SplineSet
427 341 m 1
 427 427 l 1
 341 427 l 1
 341 341 l 1
 427 341 l 1
427 213 m 1
 427 299 l 1
 341 299 l 1
 341 213 l 1
 427 213 l 1
427 85 m 1
 427 171 l 1
 341 171 l 1
 341 85 l 1
 427 85 l 1
299 341 m 1
 299 427 l 1
 213 427 l 1
 213 341 l 1
 299 341 l 1
299 213 m 1
 299 299 l 1
 213 299 l 1
 213 213 l 1
 299 213 l 1
299 85 m 1
 299 171 l 1
 213 171 l 1
 213 85 l 1
 299 85 l 1
171 341 m 1
 171 427 l 1
 85 427 l 1
 85 341 l 1
 171 341 l 1
171 213 m 1
 171 299 l 1
 85 299 l 1
 85 213 l 1
 171 213 l 1
427 469 m 2
 438.333333333 469 448.166666667 464.833333333 456.5 456.5 c 128
 464.833333333 448.166666667 469 438.333333333 469 427 c 2
 469 85 l 2
 469 73.6666666667 464.833333333 63.8333333333 456.5 55.5 c 128
 448.166666667 47.1666666667 438.333333333 43 427 43 c 2
 85 43 l 2
 73.6666666667 43 63.8333333333 47.1666666667 55.5 55.5 c 128
 47.1666666667 63.8333333333 43 73.6666666667 43 85 c 2
 43 427 l 2
 43 438.333333333 47.1666666667 448.166666667 55.5 456.5 c 128
 63.8333333333 464.833333333 73.6666666667 469 85 469 c 2
 427 469 l 2
EndSplineSet
EndChar

StartChar: J
Encoding: 74 74 12
Width: 512
Flags: HW
LayerCount: 5
Fore
SplineSet
427 341 m 1
 427 427 l 1
 341 427 l 1
 341 341 l 1
 427 341 l 1
427 213 m 1
 427 299 l 1
 341 299 l 1
 341 213 l 1
 427 213 l 1
427 85 m 1
 427 171 l 1
 341 171 l 1
 341 85 l 1
 427 85 l 1
299 341 m 1
 299 427 l 1
 213 427 l 1
 213 341 l 1
 299 341 l 1
299 213 m 1
 299 299 l 1
 213 299 l 1
 213 213 l 1
 299 213 l 1
171 341 m 1
 171 427 l 1
 85 427 l 1
 85 341 l 1
 171 341 l 1
171 213 m 1
 171 299 l 1
 85 299 l 1
 85 213 l 1
 171 213 l 1
171 85 m 1
 171 171 l 1
 85 171 l 1
 85 85 l 1
 171 85 l 1
427 469 m 2
 438.333333333 469 448.166666667 464.833333333 456.5 456.5 c 128
 464.833333333 448.166666667 469 438.333333333 469 427 c 2
 469 85 l 2
 469 73.6666666667 464.833333333 63.8333333333 456.5 55.5 c 128
 448.166666667 47.1666666667 438.333333333 43 427 43 c 2
 85 43 l 2
 73.6666666667 43 63.8333333333 47.1666666667 55.5 55.5 c 128
 47.1666666667 63.8333333333 43 73.6666666667 43 85 c 2
 43 427 l 2
 43 438.333333333 47.1666666667 448.166666667 55.5 456.5 c 128
 63.8333333333 464.833333333 73.6666666667 469 85 469 c 2
 427 469 l 2
EndSplineSet
EndChar

StartChar: K
Encoding: 75 75 13
Width: 512
Flags: HW
LayerCount: 5
Fore
SplineSet
427 341 m 1
 427 427 l 1
 341 427 l 1
 341 341 l 1
 427 341 l 1
427 213 m 1
 427 299 l 1
 341 299 l 1
 341 213 l 1
 427 213 l 1
299 341 m 1
 299 427 l 1
 213 427 l 1
 213 341 l 1
 299 341 l 1
299 213 m 1
 299 299 l 1
 213 299 l 1
 213 213 l 1
 299 213 l 1
299 85 m 1
 299 171 l 1
 213 171 l 1
 213 85 l 1
 299 85 l 1
171 341 m 1
 171 427 l 1
 85 427 l 1
 85 341 l 1
 171 341 l 1
171 213 m 1
 171 299 l 1
 85 299 l 1
 85 213 l 1
 171 213 l 1
171 85 m 1
 171 171 l 1
 85 171 l 1
 85 85 l 1
 171 85 l 1
427 469 m 2
 438.333333333 469 448.166666667 464.833333333 456.5 456.5 c 128
 464.833333333 448.166666667 469 438.333333333 469 427 c 2
 469 85 l 2
 469 73.6666666667 464.833333333 63.8333333333 456.5 55.5 c 128
 448.166666667 47.1666666667 438.333333333 43 427 43 c 2
 85 43 l 2
 73.6666666667 43 63.8333333333 47.1666666667 55.5 55.5 c 128
 47.1666666667 63.8333333333 43 73.6666666667 43 85 c 2
 43 427 l 2
 43 438.333333333 47.1666666667 448.166666667 55.5 456.5 c 128
 63.8333333333 464.833333333 73.6666666667 469 85 469 c 2
 427 469 l 2
EndSplineSet
EndChar

StartChar: L
Encoding: 76 76 14
Width: 512
Flags: HW
LayerCount: 5
Fore
SplineSet
427 341 m 1
 427 427 l 1
 341 427 l 1
 341 341 l 1
 427 341 l 1
427 213 m 1
 427 299 l 1
 341 299 l 1
 341 213 l 1
 427 213 l 1
427 85 m 1
 427 171 l 1
 341 171 l 1
 341 85 l 1
 427 85 l 1
299 341 m 1
 299 427 l 1
 213 427 l 1
 213 341 l 1
 299 341 l 1
299 213 m 1
 299 299 l 1
 213 299 l 1
 213 213 l 1
 299 213 l 1
299 85 m 1
 299 171 l 1
 213 171 l 1
 213 85 l 1
 299 85 l 1
171 341 m 1
 171 427 l 1
 85 427 l 1
 85 341 l 1
 171 341 l 1
171 85 m 1
 171 171 l 1
 85 171 l 1
 85 85 l 1
 171 85 l 1
427 469 m 2
 438.333333333 469 448.166666667 464.833333333 456.5 456.5 c 128
 464.833333333 448.166666667 469 438.333333333 469 427 c 2
 469 85 l 2
 469 73.6666666667 464.833333333 63.8333333333 456.5 55.5 c 128
 448.166666667 47.1666666667 438.333333333 43 427 43 c 2
 85 43 l 2
 73.6666666667 43 63.8333333333 47.1666666667 55.5 55.5 c 128
 47.1666666667 63.8333333333 43 73.6666666667 43 85 c 2
 43 427 l 2
 43 438.333333333 47.1666666667 448.166666667 55.5 456.5 c 128
 63.8333333333 464.833333333 73.6666666667 469 85 469 c 2
 427 469 l 2
EndSplineSet
EndChar

StartChar: M
Encoding: 77 77 15
Width: 512
Flags: HW
LayerCount: 5
Fore
SplineSet
427 341 m 1
 427 427 l 1
 341 427 l 1
 341 341 l 1
 427 341 l 1
427 213 m 1
 427 299 l 1
 341 299 l 1
 341 213 l 1
 427 213 l 1
427 85 m 1
 427 171 l 1
 341 171 l 1
 341 85 l 1
 427 85 l 1
299 341 m 1
 299 427 l 1
 213 427 l 1
 213 341 l 1
 299 341 l 1
299 85 m 1
 299 171 l 1
 213 171 l 1
 213 85 l 1
 299 85 l 1
171 341 m 1
 171 427 l 1
 85 427 l 1
 85 341 l 1
 171 341 l 1
171 213 m 1
 171 299 l 1
 85 299 l 1
 85 213 l 1
 171 213 l 1
171 85 m 1
 171 171 l 1
 85 171 l 1
 85 85 l 1
 171 85 l 1
427 469 m 2
 438.333333333 469 448.166666667 464.833333333 456.5 456.5 c 128
 464.833333333 448.166666667 469 438.333333333 469 427 c 2
 469 85 l 2
 469 73.6666666667 464.833333333 63.8333333333 456.5 55.5 c 128
 448.166666667 47.1666666667 438.333333333 43 427 43 c 2
 85 43 l 2
 73.6666666667 43 63.8333333333 47.1666666667 55.5 55.5 c 128
 47.1666666667 63.8333333333 43 73.6666666667 43 85 c 2
 43 427 l 2
 43 438.333333333 47.1666666667 448.166666667 55.5 456.5 c 128
 63.8333333333 464.833333333 73.6666666667 469 85 469 c 2
 427 469 l 2
EndSplineSet
EndChar

StartChar: N
Encoding: 78 78 16
Width: 512
Flags: HW
LayerCount: 5
Fore
SplineSet
427 341 m 1
 427 427 l 1
 341 427 l 1
 341 341 l 1
 427 341 l 1
427 85 m 1
 427 171 l 1
 341 171 l 1
 341 85 l 1
 427 85 l 1
299 341 m 1
 299 427 l 1
 213 427 l 1
 213 341 l 1
 299 341 l 1
299 213 m 1
 299 299 l 1
 213 299 l 1
 213 213 l 1
 299 213 l 1
299 85 m 1
 299 171 l 1
 213 171 l 1
 213 85 l 1
 299 85 l 1
171 341 m 1
 171 427 l 1
 85 427 l 1
 85 341 l 1
 171 341 l 1
171 213 m 1
 171 299 l 1
 85 299 l 1
 85 213 l 1
 171 213 l 1
171 85 m 1
 171 171 l 1
 85 171 l 1
 85 85 l 1
 171 85 l 1
427 469 m 2
 438.333333333 469 448.166666667 464.833333333 456.5 456.5 c 128
 464.833333333 448.166666667 469 438.333333333 469 427 c 2
 469 85 l 2
 469 73.6666666667 464.833333333 63.8333333333 456.5 55.5 c 128
 448.166666667 47.1666666667 438.333333333 43 427 43 c 2
 85 43 l 2
 73.6666666667 43 63.8333333333 47.1666666667 55.5 55.5 c 128
 47.1666666667 63.8333333333 43 73.6666666667 43 85 c 2
 43 427 l 2
 43 438.333333333 47.1666666667 448.166666667 55.5 456.5 c 128
 63.8333333333 464.833333333 73.6666666667 469 85 469 c 2
 427 469 l 2
EndSplineSet
EndChar

StartChar: O
Encoding: 79 79 17
Width: 512
Flags: HW
LayerCount: 5
Fore
SplineSet
427 341 m 1
 427 427 l 1
 341 427 l 1
 341 341 l 1
 427 341 l 1
427 213 m 1
 427 299 l 1
 341 299 l 1
 341 213 l 1
 427 213 l 1
427 85 m 1
 427 171 l 1
 341 171 l 1
 341 85 l 1
 427 85 l 1
299 341 m 1
 299 427 l 1
 213 427 l 1
 213 341 l 1
 299 341 l 1
299 213 m 1
 299 299 l 1
 213 299 l 1
 213 213 l 1
 299 213 l 1
299 85 m 1
 299 171 l 1
 213 171 l 1
 213 85 l 1
 299 85 l 1
171 213 m 1
 171 299 l 1
 85 299 l 1
 85 213 l 1
 171 213 l 1
171 85 m 1
 171 171 l 1
 85 171 l 1
 85 85 l 1
 171 85 l 1
427 469 m 2
 438.333333333 469 448.166666667 464.833333333 456.5 456.5 c 128
 464.833333333 448.166666667 469 438.333333333 469 427 c 2
 469 85 l 2
 469 73.6666666667 464.833333333 63.8333333333 456.5 55.5 c 128
 448.166666667 47.1666666667 438.333333333 43 427 43 c 2
 85 43 l 2
 73.6666666667 43 63.8333333333 47.1666666667 55.5 55.5 c 128
 47.1666666667 63.8333333333 43 73.6666666667 43 85 c 2
 43 427 l 2
 43 438.333333333 47.1666666667 448.166666667 55.5 456.5 c 128
 63.8333333333 464.833333333 73.6666666667 469 85 469 c 2
 427 469 l 2
EndSplineSet
EndChar

StartChar: P
Encoding: 80 80 18
Width: 512
Flags: HW
LayerCount: 5
Fore
SplineSet
427 341 m 1
 427 427 l 1
 341 427 l 1
 341 341 l 1
 427 341 l 1
427 213 m 1
 427 299 l 1
 341 299 l 1
 341 213 l 1
 427 213 l 1
427 85 m 1
 427 171 l 1
 341 171 l 1
 341 85 l 1
 427 85 l 1
299 213 m 1
 299 299 l 1
 213 299 l 1
 213 213 l 1
 299 213 l 1
299 85 m 1
 299 171 l 1
 213 171 l 1
 213 85 l 1
 299 85 l 1
171 341 m 1
 171 427 l 1
 85 427 l 1
 85 341 l 1
 171 341 l 1
171 213 m 1
 171 299 l 1
 85 299 l 1
 85 213 l 1
 171 213 l 1
171 85 m 1
 171 171 l 1
 85 171 l 1
 85 85 l 1
 171 85 l 1
427 469 m 2
 438.333333333 469 448.166666667 464.833333333 456.5 456.5 c 128
 464.833333333 448.166666667 469 438.333333333 469 427 c 2
 469 85 l 2
 469 73.6666666667 464.833333333 63.8333333333 456.5 55.5 c 128
 448.166666667 47.1666666667 438.333333333 43 427 43 c 2
 85 43 l 2
 73.6666666667 43 63.8333333333 47.1666666667 55.5 55.5 c 128
 47.1666666667 63.8333333333 43 73.6666666667 43 85 c 2
 43 427 l 2
 43 438.333333333 47.1666666667 448.166666667 55.5 456.5 c 128
 63.8333333333 464.833333333 73.6666666667 469 85 469 c 2
 427 469 l 2
EndSplineSet
EndChar

StartChar: Q
Encoding: 81 81 19
Width: 512
Flags: HW
LayerCount: 5
Fore
SplineSet
427 213 m 1
 427 299 l 1
 341 299 l 1
 341 213 l 1
 427 213 l 1
427 85 m 1
 427 171 l 1
 341 171 l 1
 341 85 l 1
 427 85 l 1
299 341 m 1
 299 427 l 1
 213 427 l 1
 213 341 l 1
 299 341 l 1
299 213 m 1
 299 299 l 1
 213 299 l 1
 213 213 l 1
 299 213 l 1
299 85 m 1
 299 171 l 1
 213 171 l 1
 213 85 l 1
 299 85 l 1
171 341 m 1
 171 427 l 1
 85 427 l 1
 85 341 l 1
 171 341 l 1
171 213 m 1
 171 299 l 1
 85 299 l 1
 85 213 l 1
 171 213 l 1
171 85 m 1
 171 171 l 1
 85 171 l 1
 85 85 l 1
 171 85 l 1
427 469 m 2
 438.333333333 469 448.166666667 464.833333333 456.5 456.5 c 128
 464.833333333 448.166666667 469 438.333333333 469 427 c 2
 469 85 l 2
 469 73.6666666667 464.833333333 63.8333333333 456.5 55.5 c 128
 448.166666667 47.1666666667 438.333333333 43 427 43 c 2
 85 43 l 2
 73.6666666667 43 63.8333333333 47.1666666667 55.5 55.5 c 128
 47.1666666667 63.8333333333 43 73.6666666667 43 85 c 2
 43 427 l 2
 43 438.333333333 47.1666666667 448.166666667 55.5 456.5 c 128
 63.8333333333 464.833333333 73.6666666667 469 85 469 c 2
 427 469 l 2
EndSplineSet
EndChar

StartChar: W
Encoding: 87 87 20
Width: 512
Flags: HW
LayerCount: 5
UndoRedoHistory
Layer: 1
Undoes
UndoOperation
Index: 0
Type: 3
WasModified: 1
WasOrder2: 0
Layer: 2
EndUndoOperation
EndUndoes
Redoes
EndRedoes
EndUndoRedoHistory
Fore
SplineSet
299 213 m 5
 299 299 l 5
 213 299 l 5
 213 213 l 5
 299 213 l 5
427 85 m 1
 427 427 l 1
 85 427 l 1
 85 85 l 1
 427 85 l 1
427 469 m 2
 438.333333333 469 448.166666667 464.833333333 456.5 456.5 c 128
 464.833333333 448.166666667 469 438.333333333 469 427 c 2
 469 85 l 2
 469 73.6666666667 464.833333333 63.8333333333 456.5 55.5 c 128
 448.166666667 47.1666666667 438.333333333 43 427 43 c 2
 85 43 l 2
 73.6666666667 43 63.8333333333 47.1666666667 55.5 55.5 c 128
 47.1666666667 63.8333333333 43 73.6666666667 43 85 c 2
 43 427 l 2
 43 438.333333333 47.1666666667 448.166666667 55.5 456.5 c 128
 63.8333333333 464.833333333 73.6666666667 469 85 469 c 2
 427 469 l 2
EndSplineSet
EndChar

StartChar: X
Encoding: 88 88 21
Width: 512
Flags: HW
LayerCount: 5
UndoRedoHistory
Layer: 1
Undoes
UndoOperation
Index: 0
Type: 3
WasModified: 1
WasOrder2: 0
Layer: 2
EndUndoOperation
EndUndoes
Redoes
EndRedoes
EndUndoRedoHistory
Fore
SplineSet
199 113 m 5
 199 199 l 5
 113 199 l 5
 113 113 l 5
 199 113 l 5
427 85 m 1
 427 427 l 1
 85 427 l 1
 85 85 l 1
 427 85 l 1
427 469 m 2
 438.333333333 469 448.166666667 464.833333333 456.5 456.5 c 128
 464.833333333 448.166666667 469 438.333333333 469 427 c 2
 469 85 l 2
 469 73.6666666667 464.833333333 63.8333333333 456.5 55.5 c 128
 448.166666667 47.1666666667 438.333333333 43 427 43 c 2
 85 43 l 2
 73.6666666667 43 63.8333333333 47.1666666667 55.5 55.5 c 128
 47.1666666667 63.8333333333 43 73.6666666667 43 85 c 2
 43 427 l 2
 43 438.333333333 47.1666666667 448.166666667 55.5 456.5 c 128
 63.8333333333 464.833333333 73.6666666667 469 85 469 c 2
 427 469 l 2
EndSplineSet
EndChar

StartChar: Y
Encoding: 89 89 22
Width: 512
Flags: HW
LayerCount: 5
UndoRedoHistory
Layer: 1
Undoes
UndoOperation
Index: 0
Type: 3
WasModified: 1
WasOrder2: 0
Layer: 2
EndUndoOperation
EndUndoes
Redoes
EndRedoes
EndUndoRedoHistory
Fore
SplineSet
399 113 m 5
 399 199 l 5
 313 199 l 5
 313 113 l 5
 399 113 l 5
427 85 m 1
 427 427 l 1
 85 427 l 1
 85 85 l 1
 427 85 l 1
427 469 m 2
 438.333333333 469 448.166666667 464.833333333 456.5 456.5 c 128
 464.833333333 448.166666667 469 438.333333333 469 427 c 2
 469 85 l 2
 469 73.6666666667 464.833333333 63.8333333333 456.5 55.5 c 128
 448.166666667 47.1666666667 438.333333333 43 427 43 c 2
 85 43 l 2
 73.6666666667 43 63.8333333333 47.1666666667 55.5 55.5 c 128
 47.1666666667 63.8333333333 43 73.6666666667 43 85 c 2
 43 427 l 2
 43 438.333333333 47.1666666667 448.166666667 55.5 456.5 c 128
 63.8333333333 464.833333333 73.6666666667 469 85 469 c 2
 427 469 l 2
EndSplineSet
EndChar

StartChar: Z
Encoding: 90 90 23
Width: 512
Flags: HW
LayerCount: 5
UndoRedoHistory
Layer: 1
Undoes
UndoOperation
Index: 0
Type: 3
WasModified: 1
WasOrder2: 0
Layer: 2
EndUndoOperation
EndUndoes
Redoes
EndRedoes
EndUndoRedoHistory
Fore
SplineSet
299 113 m 5
 299 199 l 5
 213 199 l 5
 213 113 l 5
 299 113 l 5
427 85 m 1
 427 427 l 1
 85 427 l 1
 85 85 l 1
 427 85 l 1
427 469 m 2
 438.333333333 469 448.166666667 464.833333333 456.5 456.5 c 128
 464.833333333 448.166666667 469 438.333333333 469 427 c 2
 469 85 l 2
 469 73.6666666667 464.833333333 63.8333333333 456.5 55.5 c 128
 448.166666667 47.1666666667 438.333333333 43 427 43 c 2
 85 43 l 2
 73.6666666667 43 63.8333333333 47.1666666667 55.5 55.5 c 128
 47.1666666667 63.8333333333 43 73.6666666667 43 85 c 2
 43 427 l 2
 43 438.333333333 47.1666666667 448.166666667 55.5 456.5 c 128
 63.8333333333 464.833333333 73.6666666667 469 85 469 c 2
 427 469 l 2
EndSplineSet
EndChar

StartChar: bracketleft
Encoding: 91 91 24
Width: 512
Flags: HW
LayerCount: 5
UndoRedoHistory
Layer: 1
Undoes
UndoOperation
Index: 0
Type: 1
WasModified: 1
WasOrder2: 0
Layer: 2
Width: 512
VWidth: 512
LBearingChange: 0
UnicodeEnc: 0
InstructionsLength: 0
SplineSet
9.2529296875 400.233398438 m 5
 24.880859375 415.303710938 l 5
 235.864257812 204.319335938 l 5
 220.793945312 189.249023438 l 5
 178.373046875 231.668945312 l 5
 140.419921875 197.063476562 l 5
 123.116210938 212.692382812 l 6
 97.5004716358 235.828806526 79.6493801043 252.575110819 69.533203125 262.926757812 c 4
 53.5330687831 279.29932058 41.8259048503 293.81953096 34.3701171875 306.462890625 c 4
 25.8121744792 320.975260417 21.533203125 335.487630208 21.533203125 350 c 4
 21.533203125 360.790897254 23.9514973958 371.02364465 28.7880859375 380.698242188 c 5
 9.2529296875 400.233398438 l 5
86.8359375 415.303710938 m 4
 97.2551100631 415.303710938 107.116073243 413.07088141 116.418945312 408.60546875 c 132
 125.721649406 404.140136719 133.721974927 398.186360677 140.419921875 390.744140625 c 5
 147.117596294 398.186360677 155.117564837 404.140202257 164.419921875 408.60546875 c 132
 173.72275452 413.070963542 183.583757125 415.303710938 194.002929688 415.303710938 c 4
 205.910062456 415.303710938 216.886540655 412.418882456 226.93359375 406.651367188 c 132
 236.980836397 400.883743107 244.888882469 392.976800126 250.65625 382.9296875 c 132
 256.423177083 372.883342161 259.306640625 361.906779661 259.306640625 350 c 4
 259.306640625 335.487490111 254.522153779 320.975743306 245.91015625 305.904296875 c 4
 238.468249199 292.880570023 226.37515024 277.810257523 209.630859375 260.693359375 c 5
 60.044921875 409.721679688 l 5
 68.6031629774 413.443033854 77.5335015191 415.303710938 86.8359375 415.303710938 c 4
248.208984375 282.658203125 m 5
 263.836914062 297.728515625 l 5
 474.8203125 86.744140625 l 5
 459.75 71.673828125 l 5
 417.330078125 114.094726562 l 5
 379.375976562 79.48828125 l 5
 362.073242188 95.1171875 l 6
 336.45815242 118.254330329 318.606555058 135.000055943 308.490234375 145.3515625 c 4
 292.489655671 161.724125267 280.782012964 176.244245049 273.326171875 188.887695312 c 4
 264.768229167 203.400065104 260.489257812 217.912434896 260.489257812 232.424804688 c 4
 260.489257812 243.215701941 262.907552083 253.448449337 267.744140625 263.123046875 c 5
 248.208984375 282.658203125 l 5
325.79296875 297.728515625 m 4
 336.211797366 297.728515625 346.072377517 295.495566295 355.375 291.030273438 c 132
 364.677704094 286.564941406 372.678029615 280.611165365 379.375976562 273.168945312 c 5
 386.07392351 280.611165365 394.074345961 286.564739469 403.376953125 291.030273438 c 132
 412.679478675 295.495768229 422.540155759 297.728515625 432.958984375 297.728515625 c 4
 444.866470251 297.728515625 455.84345033 294.843994371 465.890625 289.076171875 c 132
 475.937454044 283.308547794 483.84450631 275.401221178 489.612304688 265.354492188 c 132
 495.379882812 255.308146849 498.263671875 244.331584349 498.263671875 232.424804688 c 4
 498.263671875 217.912616199 493.479216001 203.401173077 484.8671875 188.330078125 c 4
 477.425080128 175.306351273 465.331655649 160.236038773 448.586914062 143.119140625 c 5
 299.001953125 292.147460938 l 5
 307.560194227 295.868164062 316.490532769 297.728515625 325.79296875 297.728515625 c 4
EndSplineSet
EndUndoOperation
EndUndoes
Redoes
EndRedoes
EndUndoRedoHistory
Fore
SplineSet
9.2529296875 401.233398438 m 5
 24.880859375 416.303710938 l 5
 235.864257812 205.319335938 l 5
 220.793945312 190.249023438 l 5
 178.373046875 232.668945312 l 5
 140.419921875 198.063476562 l 5
 123.116210938 213.692382812 l 6
 97.5004716358 236.828806526 79.6493801043 253.575110819 69.533203125 263.926757812 c 4
 53.5330687831 280.29932058 41.8259048503 294.81953096 34.3701171875 307.462890625 c 4
 25.8121744792 321.975260417 21.533203125 336.487630208 21.533203125 351 c 4
 21.533203125 361.790897254 23.9514973958 372.02364465 28.7880859375 381.698242188 c 5
 9.2529296875 401.233398438 l 5
86.8359375 416.303710938 m 4
 97.2551100631 416.303710938 107.116073243 414.07088141 116.418945312 409.60546875 c 132
 125.721649406 405.140136719 133.721974927 399.186360677 140.419921875 391.744140625 c 5
 147.117596294 399.186360677 155.117564837 405.140202257 164.419921875 409.60546875 c 132
 173.72275452 414.070963542 183.583757125 416.303710938 194.002929688 416.303710938 c 4
 205.910062456 416.303710938 216.886540655 413.418882456 226.93359375 407.651367188 c 132
 236.980836397 401.883743107 244.888882469 393.976800126 250.65625 383.9296875 c 132
 256.423177083 373.883342161 259.306640625 362.906779661 259.306640625 351 c 4
 259.306640625 336.487490111 254.522153779 321.975743306 245.91015625 306.904296875 c 4
 238.468249199 293.880570023 226.37515024 278.810257523 209.630859375 261.693359375 c 5
 60.044921875 410.721679688 l 5
 68.6031629774 414.443033854 77.5335015191 416.303710938 86.8359375 416.303710938 c 4
248.208984375 283.658203125 m 5
 263.836914062 298.728515625 l 5
 474.8203125 87.744140625 l 5
 459.75 72.673828125 l 5
 417.330078125 115.094726562 l 5
 379.375976562 80.48828125 l 5
 362.073242188 96.1171875 l 6
 336.45815242 119.254330329 318.606555058 136.000055943 308.490234375 146.3515625 c 4
 292.489655671 162.724125267 280.782012964 177.244245049 273.326171875 189.887695312 c 4
 264.768229167 204.400065104 260.489257812 218.912434896 260.489257812 233.424804688 c 4
 260.489257812 244.215701941 262.907552083 254.448449337 267.744140625 264.123046875 c 5
 248.208984375 283.658203125 l 5
325.79296875 298.728515625 m 4
 336.211797366 298.728515625 346.072377517 296.495566295 355.375 292.030273438 c 132
 364.677704094 287.564941406 372.678029615 281.611165365 379.375976562 274.168945312 c 5
 386.07392351 281.611165365 394.074345961 287.564739469 403.376953125 292.030273438 c 132
 412.679478675 296.495768229 422.540155759 298.728515625 432.958984375 298.728515625 c 4
 444.866470251 298.728515625 455.84345033 295.843994371 465.890625 290.076171875 c 132
 475.937454044 284.308547794 483.84450631 276.401221178 489.612304688 266.354492188 c 132
 495.379882812 256.308146848 498.263671875 245.331584349 498.263671875 233.424804688 c 4
 498.263671875 218.912616199 493.479216001 204.401173077 484.8671875 189.330078125 c 4
 477.425080128 176.306351273 465.331655649 161.236038773 448.586914062 144.119140625 c 5
 299.001953125 293.147460938 l 5
 307.560194227 296.868164062 316.490532769 298.728515625 325.79296875 298.728515625 c 4
EndSplineSet
EndChar

StartChar: backslash
Encoding: 92 92 25
Width: 512
Flags: HW
LayerCount: 5
UndoRedoHistory
Layer: 1
Undoes
UndoOperation
Index: 0
Type: 1
WasModified: 1
WasOrder2: 0
Layer: 2
Width: 512
VWidth: 512
LBearingChange: 0
UnicodeEnc: 0
InstructionsLength: 0
SplineSet
116.213867188 353.956054688 m 5
 132.73828125 369.890625 l 5
 355.82421875 146.803710938 l 5
 339.889648438 130.870117188 l 5
 295.036132812 175.72265625 l 5
 254.905273438 139.131835938 l 5
 236.609375 155.657226562 l 6
 209.461120605 180.051338252 190.575378418 197.756741898 179.952148438 208.7734375 c 4
 163.033962674 226.085069444 150.640407986 241.429470486 142.771484375 254.806640625 c 4
 133.72265625 270.151367188 129.198242188 285.49609375 129.198242188 300.840820312 c 4
 129.198242188 312.250645123 131.755533853 323.070306581 136.870117188 333.299804688 c 5
 116.213867188 353.956054688 l 5
198.248046875 369.890625 m 4
 209.264654579 369.890625 219.691086871 367.529947917 229.52734375 362.80859375 c 132
 239.363750606 358.087158203 247.823060501 351.791910807 254.905273438 343.922851562 c 5
 261.987213844 351.791910807 270.446198219 358.087158203 280.282226562 362.80859375 c 132
 290.118483441 367.529947917 300.544915733 369.890625 311.561523438 369.890625 c 4
 324.151918917 369.890625 335.758689751 366.841145833 346.381835938 360.7421875 c 132
 357.005227482 354.643811275 365.366230086 346.283134191 371.46484375 335.66015625 c 132
 377.563151042 325.037307998 380.612304688 313.430862685 380.612304688 300.840820312 c 4
 380.612304688 285.496205004 375.890625 269.954863858 366.447265625 254.216796875 c 4
 358.57827524 240.445899241 345.791165865 224.511003408 328.0859375 206.412109375 c 5
 169.919921875 363.989257812 l 5
 178.969184028 367.923502604 188.411892361 369.890625 198.248046875 369.890625 c 4
EndSplineSet
EndUndoOperation
EndUndoes
Redoes
EndRedoes
EndUndoRedoHistory
Fore
SplineSet
116.213867188 354.956054688 m 5
 132.73828125 370.890625 l 5
 355.82421875 147.803710938 l 5
 339.889648438 131.870117188 l 5
 295.036132812 176.72265625 l 5
 254.905273438 140.131835938 l 5
 236.609375 156.657226562 l 6
 209.461120605 181.051338252 190.575378418 198.756741898 179.952148438 209.7734375 c 4
 163.033962674 227.085069444 150.640407986 242.429470486 142.771484375 255.806640625 c 4
 133.72265625 271.151367188 129.198242188 286.49609375 129.198242188 301.840820312 c 4
 129.198242188 313.250645123 131.755533853 324.070306581 136.870117188 334.299804688 c 5
 116.213867188 354.956054688 l 5
198.248046875 370.890625 m 4
 209.264654579 370.890625 219.691086871 368.529947917 229.52734375 363.80859375 c 132
 239.363750606 359.087158203 247.823060501 352.791910807 254.905273438 344.922851562 c 5
 261.987213844 352.791910807 270.446198219 359.087158203 280.282226562 363.80859375 c 132
 290.118483441 368.529947917 300.544915733 370.890625 311.561523438 370.890625 c 4
 324.151918917 370.890625 335.758689751 367.841145833 346.381835938 361.7421875 c 132
 357.005227482 355.643811275 365.366230086 347.283134191 371.46484375 336.66015625 c 132
 377.563151042 326.037307998 380.612304688 314.430862685 380.612304688 301.840820312 c 4
 380.612304688 286.496205004 375.890625 270.954863858 366.447265625 255.216796875 c 4
 358.57827524 241.445899241 345.791165865 225.511003408 328.0859375 207.412109375 c 5
 169.919921875 364.989257812 l 5
 178.969184028 368.923502604 188.411892361 370.890625 198.248046875 370.890625 c 4
EndSplineSet
EndChar

StartChar: bracketright
Encoding: 93 93 26
Width: 512
Flags: HW
LayerCount: 5
UndoRedoHistory
Layer: 1
Undoes
UndoOperation
Index: 0
Type: 1
WasModified: 1
WasOrder2: 0
Layer: 2
Width: 512
VWidth: 512
LBearingChange: 0
UnicodeEnc: 0
InstructionsLength: 0
SplineSet
309.958984375 347.474609375 m 4
 300.920009656 347.474609375 292.540126843 345.026367188 284.819335938 340.129882812 c 132
 277.098141863 335.233723958 271.354326759 328.831054687 267.587890625 320.921875 c 5
 267.587890625 194.373046875 l 5
 297.718815701 221.490453417 318.24550841 241.640193 329.16796875 254.822265625 c 4
 344.609375 273.654007523 352.330078125 290.602575231 352.330078125 305.66796875 c 4
 352.330078125 317.720248624 348.281575521 327.701042895 340.184570312 335.610351562 c 132
 332.086749781 343.519856771 322.011554468 347.474609375 309.958984375 347.474609375 c 4
309.958984375 371.767578125 m 4
 322.010891155 371.767578125 333.121242717 368.848632812 343.290039062 363.010742188 c 132
 353.460121783 357.173073683 361.464353554 349.169818474 367.302734375 339.000976562 c 132
 373.139973958 328.831584349 376.05859375 317.720581744 376.05859375 305.66796875 c 4
 376.05859375 290.979166667 371.727213542 276.290364583 363.064453125 261.6015625 c 4
 355.531797702 248.795940171 343.66786541 234.107138088 327.47265625 217.53515625 c 4
 317.303527832 206.989380787 299.225077311 190.040813079 273.237304688 166.689453125 c 6
 255.724609375 150.872070312 l 5
 238.2109375 166.689453125 l 6
 212.223164876 190.040813079 194.144714355 206.989380787 183.975585938 217.53515625 c 4
 167.780821139 234.107138088 155.917214368 248.795940171 148.384765625 261.6015625 c 4
 139.722005208 276.290364583 135.390625 290.979166667 135.390625 305.66796875 c 4
 135.390625 317.720581744 138.309244792 328.831584349 144.146484375 339.000976562 c 132
 149.984390319 349.169818474 157.987971048 357.173073683 168.157226562 363.010742188 c 132
 178.326618776 368.848632812 189.437621381 371.767578125 201.490234375 371.767578125 c 4
 212.035635318 371.767578125 222.016104068 369.507486979 231.431640625 364.987304688 c 132
 240.847519985 360.467773438 248.945176235 354.44173177 255.724609375 346.909179688 c 5
 262.503769985 354.44173177 270.601100715 360.467773438 280.016601562 364.987304688 c 132
 289.432445214 369.507486979 299.413239485 371.767578125 309.958984375 371.767578125 c 4
EndSplineSet
EndUndoOperation
EndUndoes
Redoes
EndRedoes
EndUndoRedoHistory
Fore
SplineSet
309.958984375 346.474609375 m 4
 300.920009656 346.474609375 292.540126843 344.026367188 284.819335938 339.129882812 c 132
 277.098141863 334.233723958 271.354326759 327.831054687 267.587890625 319.921875 c 5
 267.587890625 193.373046875 l 5
 297.718815701 220.490453417 318.24550841 240.640193 329.16796875 253.822265625 c 4
 344.609375 272.654007523 352.330078125 289.602575231 352.330078125 304.66796875 c 4
 352.330078125 316.720248624 348.281575521 326.701042895 340.184570312 334.610351562 c 132
 332.086749781 342.519856771 322.011554468 346.474609375 309.958984375 346.474609375 c 4
309.958984375 370.767578125 m 4
 322.010891155 370.767578125 333.121242717 367.848632812 343.290039062 362.010742188 c 132
 353.460121783 356.173073683 361.464353554 348.169818474 367.302734375 338.000976562 c 132
 373.139973958 327.831584349 376.05859375 316.720581744 376.05859375 304.66796875 c 4
 376.05859375 289.979166667 371.727213542 275.290364583 363.064453125 260.6015625 c 4
 355.531797702 247.795940171 343.66786541 233.107138088 327.47265625 216.53515625 c 4
 317.303527832 205.989380787 299.225077311 189.040813079 273.237304688 165.689453125 c 6
 255.724609375 149.872070312 l 5
 238.2109375 165.689453125 l 6
 212.223164876 189.040813079 194.144714355 205.989380787 183.975585938 216.53515625 c 4
 167.780821139 233.107138088 155.917214368 247.795940171 148.384765625 260.6015625 c 4
 139.722005208 275.290364583 135.390625 289.979166667 135.390625 304.66796875 c 4
 135.390625 316.720581744 138.309244792 327.831584349 144.146484375 338.000976562 c 132
 149.984390319 348.169818474 157.987971048 356.173073683 168.157226562 362.010742188 c 132
 178.326618776 367.848632812 189.437621381 370.767578125 201.490234375 370.767578125 c 4
 212.035635318 370.767578125 222.016104068 368.507486979 231.431640625 363.987304688 c 132
 240.847519985 359.467773438 248.945176235 353.44173177 255.724609375 345.909179688 c 5
 262.503769985 353.44173177 270.601100715 359.467773438 280.016601562 363.987304688 c 132
 289.432445214 368.507486979 299.413239485 370.767578125 309.958984375 370.767578125 c 4
EndSplineSet
EndChar

StartChar: asciicircum
Encoding: 94 94 27
Width: 512
Flags: HW
LayerCount: 5
UndoRedoHistory
Layer: 1
Undoes
UndoOperation
Index: 0
Type: 1
WasModified: 1
WasOrder2: 0
Layer: 2
Width: 512
VWidth: 512
LBearingChange: 0
UnicodeEnc: 0
InstructionsLength: 0
SplineSet
255.377929688 147.21484375 m 5
 237.939453125 162.92578125 l 6
 212.122855589 186.184862907 194.132048032 203.020244399 183.936523438 213.426757812 c 4
 167.810634714 229.886359842 156.011747194 244.48393126 148.497070312 257.194335938 c 4
 139.871419271 271.783854167 135.55859375 286.373372396 135.55859375 300.962890625 c 4
 135.55859375 312.933229608 138.465749715 323.968051863 144.278320312 334.068359375 c 132
 150.091057751 344.168956801 158.059672144 352.11930648 168.185546875 357.916992188 c 132
 178.311142744 363.714518229 189.374293785 366.61328125 201.375 366.61328125 c 4
 211.875687893 366.61328125 221.814168532 364.369828077 231.189453125 359.880859375 c 132
 240.564831638 355.391845703 248.627657158 349.40649414 255.377929688 341.924804688 c 5
 262.128202217 349.40649414 270.190698357 355.392533268 279.56640625 359.880859375 c 132
 288.94202044 364.369140625 298.880171482 366.61328125 309.380859375 366.61328125 c 4
 321.38156559 366.61328125 332.445075255 363.715145465 342.5703125 357.916992188 c 132
 352.696139706 352.118501072 360.665627914 344.16900659 366.478515625 334.068359375 c 132
 372.291015625 323.968385858 375.197265625 312.933229608 375.197265625 300.962890625 c 4
 375.197265625 286.373372396 370.868068531 271.793472736 362.258789062 257.194335938 c 4
 354.758375703 244.475552551 342.834544246 229.99353525 326.819335938 213.426757812 c 4
 316.693786621 202.952481192 298.633003768 186.184862892 272.81640625 162.92578125 c 6
 255.377929688 147.21484375 l 5
EndSplineSet
EndUndoOperation
EndUndoes
Redoes
EndRedoes
EndUndoRedoHistory
Fore
SplineSet
255.377929688 148.21484375 m 5
 237.939453125 163.92578125 l 6
 212.122855589 187.184862907 194.132048032 204.020244399 183.936523438 214.426757812 c 4
 167.810634714 230.886359842 156.011747194 245.48393126 148.497070312 258.194335938 c 4
 139.871419271 272.783854167 135.55859375 287.373372396 135.55859375 301.962890625 c 4
 135.55859375 313.933229608 138.465749715 324.968051863 144.278320312 335.068359375 c 132
 150.091057751 345.168956801 158.059672144 353.11930648 168.185546875 358.916992188 c 132
 178.311142744 364.714518229 189.374293785 367.61328125 201.375 367.61328125 c 4
 211.875687893 367.61328125 221.814168532 365.369828077 231.189453125 360.880859375 c 132
 240.564831638 356.391845703 248.627657158 350.40649414 255.377929688 342.924804688 c 5
 262.128202217 350.40649414 270.190698357 356.392533268 279.56640625 360.880859375 c 132
 288.94202044 365.369140625 298.880171482 367.61328125 309.380859375 367.61328125 c 4
 321.38156559 367.61328125 332.445075255 364.715145465 342.5703125 358.916992188 c 132
 352.696139706 353.118501072 360.665627914 345.16900659 366.478515625 335.068359375 c 132
 372.291015625 324.968385858 375.197265625 313.933229608 375.197265625 301.962890625 c 4
 375.197265625 287.373372396 370.868068531 272.793472736 362.258789062 258.194335938 c 4
 354.758375703 245.475552551 342.834544246 230.99353525 326.819335938 214.426757812 c 4
 316.693786621 203.952481192 298.633003768 187.184862892 272.81640625 163.92578125 c 6
 255.377929688 148.21484375 l 5
EndSplineSet
EndChar

StartChar: underscore
Encoding: 95 95 28
Width: 512
Flags: HW
LayerCount: 5
UndoRedoHistory
Layer: 1
Undoes
UndoOperation
Index: 0
Type: 1
WasModified: 1
WasOrder2: 0
Layer: 2
Width: 512
VWidth: 512
LBearingChange: 0
UnicodeEnc: 0
InstructionsLength: 0
SplineSet
366.377929688 87.21484375 m 5
 348.939453125 102.92578125 l 6
 323.122855589 126.184862907 305.132048032 143.020244399 294.936523438 153.426757812 c 4
 278.810634714 169.886359842 267.011747194 184.48393126 259.497070312 197.194335938 c 4
 250.871419271 211.783854167 246.55859375 226.373372396 246.55859375 240.962890625 c 4
 246.55859375 252.933229608 249.465749715 263.968051863 255.278320312 274.068359375 c 132
 261.091057751 284.168956801 269.059672144 292.11930648 279.185546875 297.916992188 c 132
 289.311142744 303.714518229 300.374293785 306.61328125 312.375 306.61328125 c 4
 322.875687893 306.61328125 332.814168532 304.369828077 342.189453125 299.880859375 c 132
 351.564831638 295.391845703 359.627657158 289.40649414 366.377929688 281.924804688 c 5
 373.128202217 289.40649414 381.190698357 295.392533268 390.56640625 299.880859375 c 132
 399.94202044 304.369140625 409.880171482 306.61328125 420.380859375 306.61328125 c 4
 432.38156559 306.61328125 443.445075255 303.715145465 453.5703125 297.916992188 c 132
 463.696139706 292.118501072 471.665627914 284.16900659 477.478515625 274.068359375 c 132
 483.291015625 263.968385858 486.197265625 252.933229608 486.197265625 240.962890625 c 4
 486.197265625 226.373372396 481.868068531 211.793472736 473.258789062 197.194335938 c 4
 465.758375703 184.475552551 453.834544246 169.99353525 437.819335938 153.426757812 c 4
 427.693786621 142.952481192 409.633003768 126.184862892 383.81640625 102.92578125 c 6
 366.377929688 87.21484375 l 5
148.078125 196.0859375 m 5
 130.639648438 211.797851562 l 6
 104.823512157 235.057963374 86.8312137219 251.892082103 76.6357421875 262.298828125 c 4
 60.5102978255 278.758430155 48.7118888685 293.356092296 41.197265625 306.06640625 c 4
 32.5716145834 320.655924479 28.2587890625 335.245442708 28.2587890625 349.834960938 c 4
 28.2587890625 361.805653028 31.1646444812 372.841361943 36.9775390625 382.94140625 c 132
 42.7905139399 393.041590074 50.7597319389 400.991128603 60.8857421875 406.7890625 c 132
 71.0110401218 412.586588541 82.0738656428 415.485351562 94.07421875 415.485351562 c 4
 104.57525059 415.485351562 114.514114019 413.242018009 123.889648438 408.752929688 c 132
 133.26502695 404.263916016 141.327852471 398.278564453 148.078125 390.796875 c 5
 154.828397529 398.278564453 162.89089367 404.264603581 172.266601562 408.752929688 c 132
 181.642215753 413.241210938 191.580366794 415.485351562 202.081054688 415.485351562 c 4
 214.081407795 415.485351562 225.144415996 412.586908498 235.26953125 406.7890625 c 132
 245.395358456 400.990808824 253.364665217 393.04153543 259.177734375 382.94140625 c 132
 264.990885416 372.841134799 267.897460938 361.805653028 267.897460938 349.834960938 c 4
 267.897460938 335.245442708 263.568263844 320.665543048 254.958984375 306.06640625 c 4
 247.458571015 293.347622863 235.534739558 278.865605562 219.51953125 262.298828125 c 4
 209.393981934 251.824551505 191.332480154 235.057731199 165.516601562 211.797851562 c 6
 148.078125 196.0859375 l 5
EndSplineSet
EndUndoOperation
EndUndoes
Redoes
EndRedoes
EndUndoRedoHistory
Fore
SplineSet
365.377929688 87.21484375 m 5
 347.939453125 102.92578125 l 6
 322.122855589 126.184862907 304.132048032 143.020244399 293.936523438 153.426757812 c 4
 277.810634714 169.886359842 266.011747194 184.48393126 258.497070312 197.194335938 c 4
 249.871419271 211.783854167 245.55859375 226.373372396 245.55859375 240.962890625 c 4
 245.55859375 252.933229608 248.465749715 263.968051863 254.278320312 274.068359375 c 132
 260.091057751 284.168956801 268.059672144 292.11930648 278.185546875 297.916992188 c 132
 288.311142744 303.714518229 299.374293785 306.61328125 311.375 306.61328125 c 4
 321.875687893 306.61328125 331.814168532 304.369828077 341.189453125 299.880859375 c 132
 350.564831638 295.391845703 358.627657158 289.40649414 365.377929688 281.924804688 c 5
 372.128202217 289.40649414 380.190698357 295.392533268 389.56640625 299.880859375 c 132
 398.94202044 304.369140625 408.880171482 306.61328125 419.380859375 306.61328125 c 4
 431.38156559 306.61328125 442.445075255 303.715145465 452.5703125 297.916992188 c 132
 462.696139706 292.118501072 470.665627914 284.16900659 476.478515625 274.068359375 c 132
 482.291015625 263.968385858 485.197265625 252.933229608 485.197265625 240.962890625 c 4
 485.197265625 226.373372396 480.868068531 211.793472736 472.258789062 197.194335938 c 4
 464.758375703 184.475552551 452.834544246 169.99353525 436.819335938 153.426757812 c 4
 426.693786621 142.952481192 408.633003768 126.184862892 382.81640625 102.92578125 c 6
 365.377929688 87.21484375 l 5
147.078125 196.0859375 m 5
 129.639648438 211.797851562 l 6
 103.823512157 235.057963374 85.8312137219 251.892082103 75.6357421875 262.298828125 c 4
 59.5102978255 278.758430155 47.7118888685 293.356092296 40.197265625 306.06640625 c 4
 31.5716145834 320.655924479 27.2587890625 335.245442708 27.2587890625 349.834960938 c 4
 27.2587890625 361.805653028 30.1646444812 372.841361943 35.9775390625 382.94140625 c 132
 41.7905139399 393.041590074 49.7597319389 400.991128603 59.8857421875 406.7890625 c 132
 70.0110401218 412.586588541 81.0738656428 415.485351562 93.07421875 415.485351562 c 4
 103.57525059 415.485351562 113.514114019 413.242018009 122.889648438 408.752929688 c 132
 132.26502695 404.263916016 140.327852471 398.278564453 147.078125 390.796875 c 5
 153.828397529 398.278564453 161.89089367 404.264603581 171.266601562 408.752929688 c 132
 180.642215753 413.241210938 190.580366794 415.485351562 201.081054688 415.485351562 c 4
 213.081407795 415.485351562 224.144415996 412.586908498 234.26953125 406.7890625 c 132
 244.395358456 400.990808824 252.364665217 393.04153543 258.177734375 382.94140625 c 132
 263.990885416 372.841134799 266.897460938 361.805653028 266.897460938 349.834960938 c 4
 266.897460938 335.245442708 262.568263844 320.665543048 253.958984375 306.06640625 c 4
 246.458571015 293.347622863 234.534739558 278.865605562 218.51953125 262.298828125 c 4
 208.393981934 251.824551505 190.332480154 235.057731199 164.516601562 211.797851562 c 6
 147.078125 196.0859375 l 5
EndSplineSet
EndChar

StartChar: one
Encoding: 49 49 29
Width: 512
Flags: HW
LayerCount: 5
UndoRedoHistory
Layer: 1
Undoes
UndoOperation
Index: 0
Type: 1
WasModified: 1
WasOrder2: 0
Layer: 2
Width: 512
VWidth: 512
LBearingChange: 0
UnicodeEnc: 0
InstructionsLength: 0
SplineSet
405 107 m 5
 405 406 l 5
 106 406 l 5
 106 107 l 5
 405 107 l 5
405 449 m 6
 416.333007812 449 426.333007812 444.666992188 435 436 c 132
 443.666992188 427.333007812 448 417.333007812 448 406 c 6
 448 107 l 6
 448 95.666992188 443.666992188 85.833007812 435 77.5 c 132
 426.333007812 69.166992188 416.333007812 65 405 65 c 6
 106 65 l 6
 94.6669921875 65 84.8330078125 69.166992188 76.5 77.5 c 132
 68.1669921875 85.833007812 64 95.666992188 64 107 c 6
 64 406 l 6
 64 417.333007812 68.1669921875 427.333007812 76.5 436 c 132
 84.8330078125 444.666992188 94.6669921875 449 106 449 c 6
 405 449 l 6
256 150 m 5
 256 321 l 5
 213 321 l 5
 213 363 l 5
 298 363 l 5
 298 150 l 5
 256 150 l 5
EndSplineSet
EndUndoOperation
EndUndoes
Redoes
EndRedoes
EndUndoRedoHistory
Fore
SplineSet
405 106 m 5
 405 405 l 5
 106 405 l 5
 106 106 l 5
 405 106 l 5
405 448 m 6
 416.333007812 448 426.333007812 443.666992188 435 435 c 132
 443.666992188 426.333007812 448 416.333007812 448 405 c 6
 448 106 l 6
 448 94.666992188 443.666992188 84.833007812 435 76.5 c 132
 426.333007812 68.166992188 416.333007812 64 405 64 c 6
 106 64 l 6
 94.6669921875 64 84.8330078125 68.166992188 76.5 76.5 c 132
 68.1669921875 84.833007812 64 94.666992188 64 106 c 6
 64 405 l 6
 64 416.333007812 68.1669921875 426.333007812 76.5 435 c 132
 84.8330078125 443.666992188 94.6669921875 448 106 448 c 6
 405 448 l 6
256 149 m 5
 256 320 l 5
 213 320 l 5
 213 362 l 5
 298 362 l 5
 298 149 l 5
 256 149 l 5
EndSplineSet
EndChar

StartChar: percent
Encoding: 37 37 30
Width: 1000
VWidth: 1000
Flags: H
LayerCount: 5
UndoRedoHistory
Layer: 1
Undoes
UndoOperation
Index: 0
Type: 4
WasModified: 0
WasOrder2: 0
Layer: 2
EndUndoOperation
EndUndoes
Redoes
EndRedoes
EndUndoRedoHistory
Layer: 2
SplineSet
223.93359375 260.014648438 m 1
 153.571289062 260.014648438 l 1
 153.571289062 189.369140625 l 1
 223.93359375 189.369140625 l 1
 223.93359375 260.014648438 l 1
405 107 m 1
 405 341 l 1
 107 341 l 1
 107 107 l 1
 405 107 l 1
341 491 m 1
 384 491 l 1
 384 448 l 1
 405 448 l 2
 416.333333333 448 426.333333333 443.666666667 435 435 c 128
 443.666666667 426.333333333 448 416.333333333 448 405 c 2
 448 107 l 2
 448 95.6666666667 443.666666667 85.6666666667 435 77 c 128
 426.333333333 68.3333333333 416.333333333 64 405 64 c 2
 107 64 l 2
 95 64 84.8333333333 68.3333333333 76.5 77 c 128
 68.1666666667 85.6666666667 64 95.6666666667 64 107 c 2
 64 405 l 2
 64 416.333333333 68.1666666667 426.333333333 76.5 435 c 128
 84.8333333333 443.666666667 95 448 107 448 c 2
 128 448 l 1
 128 491 l 1
 171 491 l 1
 171 448 l 1
 341 448 l 1
 341 491 l 1
405 107 m 1
 405 341 l 1
 107 341 l 1
 107 107 l 1
 405 107 l 1
341 491 m 1
 384 491 l 1
 384 448 l 1
 405 448 l 2
 416.333333333 448 426.333333333 443.666666667 435 435 c 128
 443.666666667 426.333333333 448 416.333333333 448 405 c 2
 448 107 l 2
 448 95.6666666667 443.666666667 85.6666666667 435 77 c 128
 426.333333333 68.3333333333 416.333333333 64 405 64 c 2
 107 64 l 2
 95 64 84.8333333333 68.3333333333 76.5 77 c 128
 68.1666666667 85.6666666667 64 95.6666666667 64 107 c 2
 64 405 l 2
 64 416.333333333 68.1666666667 426.333333333 76.5 435 c 128
 84.8333333333 443.666666667 95 448 107 448 c 2
 128 448 l 1
 128 491 l 1
 171 491 l 1
 171 448 l 1
 341 448 l 1
 341 491 l 1
EndSplineSet
EndChar

StartChar: parenleft
Encoding: 40 40 31
Width: 512
Flags: HW
LayerCount: 5
UndoRedoHistory
Layer: 1
Undoes
UndoOperation
Index: 0
Type: 3
WasModified: 1
WasOrder2: 0
Layer: 2
EndUndoOperation
EndUndoes
Redoes
EndRedoes
EndUndoRedoHistory
Fore
SplineSet
341 160 m 5
 256 245 l 5
 171 160 l 5
 171 85 l 5
 341 85 l 5
 341 160 l 5
128 469 m 5
 384 469 l 5
 384 341 l 5
 299 256 l 5
 384 171 l 5
 384 43 l 5
 128 43 l 5
 128 171 l 5
 213 256 l 5
 128 341 l 5
 128 469 l 5
EndSplineSet
EndChar

StartChar: equal
Encoding: 61 61 32
Width: 512
Flags: HW
LayerCount: 5
Fore
SplineSet
256.000976562 162.43359375 m 128
 285.060546875 162.43359375 310.074215384 172.842770094 331.0390625 193.665039062 c 128
 352.00390625 214.487304688 362.486328125 239.328125 362.486328125 268.190429688 c 128
 362.486328125 297.051757812 352.004879446 321.894534593 331.0390625 342.715820312 c 128
 310.073242188 363.537109375 285.060546875 373.948242188 256.000976562 373.948242188 c 128
 226.939453125 373.948242188 201.927724277 363.536136247 180.962890625 342.715820312 c 128
 159.99609375 321.893554688 149.514648438 297.051757812 149.514648438 268.190429688 c 128
 149.514648438 239.328125 159.997060305 214.488277906 180.962890625 193.665039062 c 128
 201.926757812 172.84375 226.939453125 162.43359375 256.000976562 162.43359375 c 128
256.000976562 399.922851562 m 128
 292.532226562 399.922851562 323.773434155 387.03808257 349.720703125 361.268554688 c 128
 375.666992188 335.5 388.640625 304.473632812 388.640625 268.190429688 c 128
 388.640625 231.90625 375.667477117 200.881347672 349.720703125 175.112304688 c 128
 323.7734375 149.342773438 292.532226562 136.458984375 256.000976562 136.458984375 c 128
 219.465820312 136.458984375 188.2265625 149.342773438 162.279296875 175.112304688 c 128
 136.33203125 200.881835938 123.359375 231.90625 123.359375 268.190429688 c 128
 123.359375 304.473632812 136.332519515 335.499508358 162.279296875 361.268554688 c 128
 188.2265625 387.038085938 219.465820312 399.922851562 256.000976562 399.922851562 c 128
255.717773438 345.608398438 m 132
 277.109244775 345.608398438 295.462229684 338.005941266 310.776367188 322.794921875 c 132
 326.089518229 307.584882304 333.74609375 289.359137896 333.74609375 268.114257812 c 132
 333.74609375 246.868678456 326.090869296 228.641954843 310.776367188 213.43359375 c 132
 295.460965736 198.224339546 277.109244775 190.619140625 255.717773438 190.619140625 c 132
 234.326746413 190.619140625 215.97268344 198.223900567 200.659179688 213.43359375 c 132
 185.345647456 228.643315219 177.689453125 246.868678456 177.689453125 268.114257812 c 132
 177.689453125 289.359137896 185.34529869 307.585233452 200.659179688 322.794921875 c 132
 215.97311943 338.004668643 234.326746413 345.608398438 255.717773438 345.608398438 c 132
EndSplineSet
EndChar

StartChar: slash
Encoding: 47 47 33
Width: 512
Flags: HW
LayerCount: 5
UndoRedoHistory
Layer: 1
Undoes
UndoOperation
Index: 0
Type: 3
WasModified: 1
WasOrder2: 0
Layer: 2
EndUndoOperation
EndUndoes
Redoes
EndRedoes
EndUndoRedoHistory
Fore
SplineSet
229.16015625 449.48046875 m 1
 229.16015625 471.440429688 l 1
 384 471.440429688 l 1
 384 464.120442708 384 456.800455729 384 449.48046875 c 1
 229.16015625 449.48046875 l 1
128.040039062 504.639648438 m 1
 384 504.639648438 l 1
 384 497.319661458 384 489.999674479 384 482.6796875 c 1
 128.040039062 482.6796875 l 1
 128.040039062 504.639648438 l 1
256 236 m 1
 341 321 l 1
 341 396 l 1
 171 396 l 1
 171 321 l 1
 256 236 l 1
128 438 m 1
 384 438 l 1
 384 310 l 1
 299 225 l 1
 384 140 l 1
 384 12 l 1
 128 12 l 1
 128 140 l 1
 213 225 l 1
 128 310 l 1
 128 438 l 1
EndSplineSet
EndChar

StartChar: two
Encoding: 50 50 34
Width: 512
Flags: HW
LayerCount: 5
UndoRedoHistory
Layer: 1
Undoes
UndoOperation
Index: 0
Type: 1
WasModified: 1
WasOrder2: 0
Layer: 2
Width: 512
VWidth: 512
LBearingChange: 0
UnicodeEnc: 0
InstructionsLength: 0
SplineSet
320 193 m 5
 320 150 l 5
 192 150 l 5
 192 235 l 6
 192 247 196.166992188 257.166992188 204.5 265.5 c 132
 212.833007812 273.833007812 222.666992188 278 234 278 c 6
 277 278 l 5
 277 321 l 5
 192 321 l 5
 192 363 l 5
 277 363 l 6
 289 363 299.166992188 359 307.5 351 c 132
 315.833007812 343 320 333 320 321 c 6
 320 278 l 6
 320 266 315.666992188 255.833007812 307 247.5 c 132
 298.333007812 239.166992188 288.333007812 235 277 235 c 6
 234 235 l 5
 234 193 l 5
 320 193 l 5
405 107 m 5
 405 406 l 5
 106 406 l 5
 106 107 l 5
 405 107 l 5
405 449 m 6
 416.333007812 449 426.333007812 444.666992188 435 436 c 132
 443.666992188 427.333007812 448 417.333007812 448 406 c 6
 448 107 l 6
 448 95.666992188 443.666992188 85.833007812 435 77.5 c 132
 426.333007812 69.166992188 416.333007812 65 405 65 c 6
 106 65 l 6
 94.6669921875 65 84.8330078125 69.166992188 76.5 77.5 c 132
 68.1669921875 85.833007812 64 95.666992188 64 107 c 6
 64 406 l 6
 64 417.333007812 68.1669921875 427.333007812 76.5 436 c 132
 84.8330078125 444.666992188 94.6669921875 449 106 449 c 6
 405 449 l 6
EndSplineSet
EndUndoOperation
EndUndoes
Redoes
EndRedoes
EndUndoRedoHistory
Fore
SplineSet
320 192 m 5
 320 149 l 5
 192 149 l 5
 192 234 l 6
 192 246 196.166992188 256.166992188 204.5 264.5 c 132
 212.833007812 272.833007812 222.666992188 277 234 277 c 6
 277 277 l 5
 277 320 l 5
 192 320 l 5
 192 362 l 5
 277 362 l 6
 289 362 299.166992188 358 307.5 350 c 132
 315.833007812 342 320 332 320 320 c 6
 320 277 l 6
 320 265 315.666992188 254.833007812 307 246.5 c 132
 298.333007812 238.166992188 288.333007812 234 277 234 c 6
 234 234 l 5
 234 192 l 5
 320 192 l 5
405 106 m 5
 405 405 l 5
 106 405 l 5
 106 106 l 5
 405 106 l 5
405 448 m 6
 416.333007812 448 426.333007812 443.666992188 435 435 c 132
 443.666992188 426.333007812 448 416.333007812 448 405 c 6
 448 106 l 6
 448 94.666992188 443.666992188 84.833007812 435 76.5 c 132
 426.333007812 68.166992188 416.333007812 64 405 64 c 6
 106 64 l 6
 94.6669921875 64 84.8330078125 68.166992188 76.5 76.5 c 132
 68.1669921875 84.833007812 64 94.666992188 64 106 c 6
 64 405 l 6
 64 416.333007812 68.1669921875 426.333007812 76.5 435 c 132
 84.8330078125 443.666992188 94.6669921875 448 106 448 c 6
 405 448 l 6
EndSplineSet
EndChar

StartChar: three
Encoding: 51 51 35
Width: 512
Flags: HW
LayerCount: 5
UndoRedoHistory
Layer: 1
Undoes
UndoOperation
Index: 0
Type: 1
WasModified: 1
WasOrder2: 0
Layer: 2
Width: 512
VWidth: 512
LBearingChange: 0
UnicodeEnc: 0
InstructionsLength: 0
SplineSet
320 193 m 6
 320 181 315.666992188 170.833007812 307 162.5 c 132
 298.333007812 154.166992188 288.333007812 150 277 150 c 6
 192 150 l 5
 192 193 l 5
 277 193 l 5
 277 235 l 5
 234 235 l 5
 234 278 l 5
 277 278 l 5
 277 321 l 5
 192 321 l 5
 192 363 l 5
 277 363 l 6
 289 363 299.166992188 359 307.5 351 c 132
 315.833007812 343 320 333 320 321 c 6
 320 289 l 6
 320 280.333007812 316.833007812 272.833007812 310.5 266.5 c 132
 304.166992188 260.166992188 296.666992188 257 288 257 c 5
 296.666992188 257 304.166992188 253.833007812 310.5 247.5 c 132
 316.833007812 241.166992188 320 233.666992188 320 225 c 6
 320 193 l 6
405 107 m 5
 405 406 l 5
 106 406 l 5
 106 107 l 5
 405 107 l 5
405 449 m 6
 416.333007812 449 426.333007812 444.666992188 435 436 c 132
 443.666992188 427.333007812 448 417.333007812 448 406 c 6
 448 107 l 6
 448 95.666992188 443.666992188 85.833007812 435 77.5 c 132
 426.333007812 69.166992188 416.333007812 65 405 65 c 6
 106 65 l 6
 94.6669921875 65 84.8330078125 69.166992188 76.5 77.5 c 132
 68.1669921875 85.833007812 64 95.666992188 64 107 c 6
 64 406 l 6
 64 417.333007812 68.1669921875 427.333007812 76.5 436 c 132
 84.8330078125 444.666992188 94.6669921875 449 106 449 c 6
 405 449 l 6
EndSplineSet
EndUndoOperation
EndUndoes
Redoes
EndRedoes
EndUndoRedoHistory
Fore
SplineSet
320 192 m 6
 320 180 315.666992188 169.833007812 307 161.5 c 132
 298.333007812 153.166992188 288.333007812 149 277 149 c 6
 192 149 l 5
 192 192 l 5
 277 192 l 5
 277 234 l 5
 234 234 l 5
 234 277 l 5
 277 277 l 5
 277 320 l 5
 192 320 l 5
 192 362 l 5
 277 362 l 6
 289 362 299.166992188 358 307.5 350 c 132
 315.833007812 342 320 332 320 320 c 6
 320 288 l 6
 320 279.333007812 316.833007812 271.833007812 310.5 265.5 c 132
 304.166992188 259.166992188 296.666992188 256 288 256 c 5
 296.666992188 256 304.166992188 252.833007812 310.5 246.5 c 132
 316.833007812 240.166992188 320 232.666992188 320 224 c 6
 320 192 l 6
405 106 m 5
 405 405 l 5
 106 405 l 5
 106 106 l 5
 405 106 l 5
405 448 m 6
 416.333007812 448 426.333007812 443.666992188 435 435 c 132
 443.666992188 426.333007812 448 416.333007812 448 405 c 6
 448 106 l 6
 448 94.666992188 443.666992188 84.833007812 435 76.5 c 132
 426.333007812 68.166992188 416.333007812 64 405 64 c 6
 106 64 l 6
 94.6669921875 64 84.8330078125 68.166992188 76.5 76.5 c 132
 68.1669921875 84.833007812 64 94.666992188 64 106 c 6
 64 405 l 6
 64 416.333007812 68.1669921875 426.333007812 76.5 435 c 132
 84.8330078125 443.666992188 94.6669921875 448 106 448 c 6
 405 448 l 6
EndSplineSet
EndChar

StartChar: four
Encoding: 52 52 36
Width: 512
Flags: HW
LayerCount: 5
UndoRedoHistory
Layer: 1
Undoes
UndoOperation
Index: 0
Type: 1
WasModified: 1
WasOrder2: 0
Layer: 2
Width: 512
VWidth: 512
LBearingChange: 0
UnicodeEnc: 0
InstructionsLength: 0
SplineSet
405 106 m 5
 405 405 l 5
 106 405 l 5
 106 106 l 5
 405 106 l 5
405 448 m 6
 416.333007812 448 426.333007812 443.666992188 435 435 c 132
 443.666992188 426.333007812 448 416.333007812 448 405 c 6
 448 106 l 6
 448 94.666992188 443.666992188 84.833007812 435 76.5 c 132
 426.333007812 68.166992188 416.333007812 64 405 64 c 6
 106 64 l 6
 94.6669921875 64 84.8330078125 68.166992188 76.5 76.5 c 132
 68.1669921875 84.833007812 64 94.666992188 64 106 c 6
 64 405 l 6
 64 416.333007812 68.1669921875 426.333007812 76.5 435 c 132
 84.8330078125 443.666992188 94.6669921875 448 106 448 c 6
 405 448 l 6
277 149 m 5
 277 234 l 5
 192 234 l 5
 192 362 l 5
 234 362 l 5
 234 277 l 5
 277 277 l 5
 277 362 l 5
 320 362 l 5
 320 149 l 5
 277 149 l 5
EndSplineSet
EndUndoOperation
EndUndoes
Redoes
EndRedoes
EndUndoRedoHistory
Fore
SplineSet
405 105 m 5
 405 404 l 5
 106 404 l 5
 106 105 l 5
 405 105 l 5
405 447 m 6
 416.333007812 447 426.333007812 442.666992188 435 434 c 132
 443.666992188 425.333007812 448 415.333007812 448 404 c 6
 448 105 l 6
 448 93.666992188 443.666992188 83.833007812 435 75.5 c 132
 426.333007812 67.166992188 416.333007812 63 405 63 c 6
 106 63 l 6
 94.6669921875 63 84.8330078125 67.166992188 76.5 75.5 c 132
 68.1669921875 83.833007812 64 93.666992188 64 105 c 6
 64 404 l 6
 64 415.333007812 68.1669921875 425.333007812 76.5 434 c 132
 84.8330078125 442.666992188 94.6669921875 447 106 447 c 6
 405 447 l 6
277 148 m 5
 277 233 l 5
 192 233 l 5
 192 361 l 5
 234 361 l 5
 234 276 l 5
 277 276 l 5
 277 361 l 5
 320 361 l 5
 320 148 l 5
 277 148 l 5
EndSplineSet
EndChar

StartChar: five
Encoding: 53 53 37
Width: 512
Flags: HW
LayerCount: 5
UndoRedoHistory
Layer: 1
Undoes
UndoOperation
Index: 0
Type: 1
WasModified: 1
WasOrder2: 0
Layer: 2
Width: 512
VWidth: 512
LBearingChange: 0
UnicodeEnc: 0
InstructionsLength: 0
SplineSet
320 193 m 6
 320 181 315.666992188 170.833007812 307 162.5 c 132
 298.333007812 154.166992188 288.333007812 150 277 150 c 6
 192 150 l 5
 192 193 l 5
 277 193 l 5
 277 235 l 5
 192 235 l 5
 192 363 l 5
 320 363 l 5
 320 321 l 5
 234 321 l 5
 234 278 l 5
 277 278 l 6
 288.333007812 278 298.333007812 273.833007812 307 265.5 c 132
 315.666992188 257.166992188 320 247 320 235 c 6
 320 193 l 6
405 107 m 5
 405 406 l 5
 106 406 l 5
 106 107 l 5
 405 107 l 5
405 449 m 6
 416.333007812 449 426.333007812 444.666992188 435 436 c 132
 443.666992188 427.333007812 448 417.333007812 448 406 c 6
 448 107 l 6
 448 95.666992188 443.666992188 85.833007812 435 77.5 c 132
 426.333007812 69.166992188 416.333007812 65 405 65 c 6
 106 65 l 6
 94.6669921875 65 84.8330078125 69.166992188 76.5 77.5 c 132
 68.1669921875 85.833007812 64 95.666992188 64 107 c 6
 64 406 l 6
 64 417.333007812 68.1669921875 427.333007812 76.5 436 c 132
 84.8330078125 444.666992188 94.6669921875 449 106 449 c 6
 405 449 l 6
EndSplineSet
EndUndoOperation
EndUndoes
Redoes
EndRedoes
EndUndoRedoHistory
Fore
SplineSet
320 192 m 6
 320 180 315.666992188 169.833007812 307 161.5 c 132
 298.333007812 153.166992188 288.333007812 149 277 149 c 6
 192 149 l 5
 192 192 l 5
 277 192 l 5
 277 234 l 5
 192 234 l 5
 192 362 l 5
 320 362 l 5
 320 320 l 5
 234 320 l 5
 234 277 l 5
 277 277 l 6
 288.333007812 277 298.333007812 272.833007812 307 264.5 c 132
 315.666992188 256.166992188 320 246 320 234 c 6
 320 192 l 6
405 106 m 5
 405 405 l 5
 106 405 l 5
 106 106 l 5
 405 106 l 5
405 448 m 6
 416.333007812 448 426.333007812 443.666992188 435 435 c 132
 443.666992188 426.333007812 448 416.333007812 448 405 c 6
 448 106 l 6
 448 94.666992188 443.666992188 84.833007812 435 76.5 c 132
 426.333007812 68.166992188 416.333007812 64 405 64 c 6
 106 64 l 6
 94.6669921875 64 84.8330078125 68.166992188 76.5 76.5 c 132
 68.1669921875 84.833007812 64 94.666992188 64 106 c 6
 64 405 l 6
 64 416.333007812 68.1669921875 426.333007812 76.5 435 c 132
 84.8330078125 443.666992188 94.6669921875 448 106 448 c 6
 405 448 l 6
EndSplineSet
EndChar

StartChar: six
Encoding: 54 54 38
Width: 512
Flags: HW
LayerCount: 5
UndoRedoHistory
Layer: 1
Undoes
UndoOperation
Index: 0
Type: 1
WasModified: 1
WasOrder2: 0
Layer: 2
Width: 512
VWidth: 512
LBearingChange: 0
UnicodeEnc: 0
InstructionsLength: 0
SplineSet
234 235 m 5
 234 193 l 5
 277 193 l 5
 277 235 l 5
 234 235 l 5
234 150 m 6
 222.666992188 150 212.833007812 154.166992188 204.5 162.5 c 132
 196.166992188 170.833007812 192 181 192 193 c 6
 192 321 l 6
 192 333 196.166992188 343 204.5 351 c 132
 212.833007812 359 222.666992188 363 234 363 c 6
 320 363 l 5
 320 321 l 5
 234 321 l 5
 234 278 l 5
 277 278 l 6
 288.333007812 278 298.333007812 273.833007812 307 265.5 c 132
 315.666992188 257.166992188 320 247 320 235 c 6
 320 193 l 6
 320 181 315.666992188 170.833007812 307 162.5 c 132
 298.333007812 154.166992188 288.333007812 150 277 150 c 6
 234 150 l 6
405 107 m 5
 405 406 l 5
 106 406 l 5
 106 107 l 5
 405 107 l 5
405 449 m 6
 416.333007812 449 426.333007812 444.666992188 435 436 c 132
 443.666992188 427.333007812 448 417.333007812 448 406 c 6
 448 107 l 6
 448 95.666992188 443.666992188 85.833007812 435 77.5 c 132
 426.333007812 69.166992188 416.333007812 65 405 65 c 6
 106 65 l 6
 94.6669921875 65 84.8330078125 69.166992188 76.5 77.5 c 132
 68.1669921875 85.833007812 64 95.666992188 64 107 c 6
 64 406 l 6
 64 417.333007812 68.1669921875 427.333007812 76.5 436 c 132
 84.8330078125 444.666992188 94.6669921875 449 106 449 c 6
 405 449 l 6
EndSplineSet
EndUndoOperation
EndUndoes
Redoes
EndRedoes
EndUndoRedoHistory
Fore
SplineSet
234 234 m 5
 234 192 l 5
 277 192 l 5
 277 234 l 5
 234 234 l 5
234 149 m 6
 222.666992188 149 212.833007812 153.166992188 204.5 161.5 c 132
 196.166992188 169.833007812 192 180 192 192 c 6
 192 320 l 6
 192 332 196.166992188 342 204.5 350 c 132
 212.833007812 358 222.666992188 362 234 362 c 6
 320 362 l 5
 320 320 l 5
 234 320 l 5
 234 277 l 5
 277 277 l 6
 288.333007812 277 298.333007812 272.833007812 307 264.5 c 132
 315.666992188 256.166992188 320 246 320 234 c 6
 320 192 l 6
 320 180 315.666992188 169.833007812 307 161.5 c 132
 298.333007812 153.166992188 288.333007812 149 277 149 c 6
 234 149 l 6
405 106 m 5
 405 405 l 5
 106 405 l 5
 106 106 l 5
 405 106 l 5
405 448 m 6
 416.333007812 448 426.333007812 443.666992188 435 435 c 132
 443.666992188 426.333007812 448 416.333007812 448 405 c 6
 448 106 l 6
 448 94.666992188 443.666992188 84.833007812 435 76.5 c 132
 426.333007812 68.166992188 416.333007812 64 405 64 c 6
 106 64 l 6
 94.6669921875 64 84.8330078125 68.166992188 76.5 76.5 c 132
 68.1669921875 84.833007812 64 94.666992188 64 106 c 6
 64 405 l 6
 64 416.333007812 68.1669921875 426.333007812 76.5 435 c 132
 84.8330078125 443.666992188 94.6669921875 448 106 448 c 6
 405 448 l 6
EndSplineSet
EndChar

StartChar: seven
Encoding: 55 55 39
Width: 512
Flags: HW
LayerCount: 5
UndoRedoHistory
Layer: 1
Undoes
UndoOperation
Index: 0
Type: 1
WasModified: 1
WasOrder2: 0
Layer: 2
Width: 512
VWidth: 512
LBearingChange: 0
UnicodeEnc: 0
InstructionsLength: 0
SplineSet
234 150 m 5
 192 150 l 5
 277 321 l 5
 192 321 l 5
 192 363 l 5
 320 363 l 5
 320 321 l 5
 234 150 l 5
405 107 m 5
 405 406 l 5
 106 406 l 5
 106 107 l 5
 405 107 l 5
405 449 m 6
 416.333007812 449 426.333007812 444.666992188 435 436 c 132
 443.666992188 427.333007812 448 417.333007812 448 406 c 6
 448 107 l 6
 448 95.666992188 443.666992188 85.833007812 435 77.5 c 132
 426.333007812 69.166992188 416.333007812 65 405 65 c 6
 106 65 l 6
 94.6669921875 65 84.8330078125 69.166992188 76.5 77.5 c 132
 68.1669921875 85.833007812 64 95.666992188 64 107 c 6
 64 406 l 6
 64 417.333007812 68.1669921875 427.333007812 76.5 436 c 132
 84.8330078125 444.666992188 94.6669921875 449 106 449 c 6
 405 449 l 6
EndSplineSet
EndUndoOperation
EndUndoes
Redoes
EndRedoes
EndUndoRedoHistory
Fore
SplineSet
234 149 m 5
 192 149 l 5
 277 320 l 5
 192 320 l 5
 192 362 l 5
 320 362 l 5
 320 320 l 5
 234 149 l 5
405 106 m 5
 405 405 l 5
 106 405 l 5
 106 106 l 5
 405 106 l 5
405 448 m 6
 416.333007812 448 426.333007812 443.666992188 435 435 c 132
 443.666992188 426.333007812 448 416.333007812 448 405 c 6
 448 106 l 6
 448 94.666992188 443.666992188 84.833007812 435 76.5 c 132
 426.333007812 68.166992188 416.333007812 64 405 64 c 6
 106 64 l 6
 94.6669921875 64 84.8330078125 68.166992188 76.5 76.5 c 132
 68.1669921875 84.833007812 64 94.666992188 64 106 c 6
 64 405 l 6
 64 416.333007812 68.1669921875 426.333007812 76.5 435 c 132
 84.8330078125 443.666992188 94.6669921875 448 106 448 c 6
 405 448 l 6
EndSplineSet
EndChar

StartChar: p
Encoding: 112 112 40
Width: 512
Flags: HW
LayerCount: 5
UndoRedoHistory
Layer: 1
Undoes
UndoOperation
Index: 0
Type: 3
WasModified: 0
WasOrder2: 0
Layer: 2
EndUndoOperation
EndUndoes
Redoes
EndRedoes
EndUndoRedoHistory
Fore
SplineSet
255.833007812 263.58203125 m 5
 257.479492188 263.58203125 l 6
 266.990234375 263.58203125 275.220703125 260.106445312 282.170898438 253.15625 c 132
 289.12109375 246.206054688 292.596679688 237.975585938 292.596679688 228.46484375 c 6
 292.596679688 226.270507812 l 5
 255.833007812 263.58203125 l 5
205.352539062 254.25390625 m 5
 200.962890625 245.474609375 198.768554688 236.877929688 198.768554688 228.46484375 c 4
 198.768554688 212.369140625 204.530273438 198.560546875 216.052734375 187.038085938 c 132
 227.575195312 175.514648438 241.383789062 169.75390625 257.479492188 169.75390625 c 4
 265.892578125 169.75390625 274.489257812 171.94921875 283.268554688 176.338867188 c 5
 265.161132812 194.4453125 l 5
 262.235351562 193.713867188 259.673828125 193.34765625 257.479492188 193.34765625 c 4
 247.96875 193.34765625 239.73828125 196.823242188 232.788085938 203.7734375 c 132
 225.837890625 210.72265625 222.362304688 218.954101562 222.362304688 228.46484375 c 4
 222.362304688 230.66015625 222.727539062 233.220703125 223.459960938 236.146484375 c 5
 205.352539062 254.25390625 l 5
140.606445312 319 m 5
 155.420898438 333.814453125 l 5
 362.830078125 126.407226562 l 5
 348.014648438 111.591796875 l 5
 346.185546875 113.420898438 340.424804688 119.090820312 330.73046875 128.6015625 c 132
 321.037109375 138.112304688 313.629882812 145.428710938 308.5078125 150.548828125 c 5
 292.779296875 143.96484375 275.76953125 140.671875 257.479492188 140.671875 c 4
 228.58203125 140.671875 202.426757812 148.720703125 179.015625 164.815429688 c 132
 155.604492188 180.91015625 138.77734375 202.126953125 128.53515625 228.46484375 c 5
 132.559570312 237.975585938 138.869140625 248.4921875 147.46484375 260.014648438 c 132
 156.061523438 271.537109375 164.383789062 280.408203125 172.430664062 286.626953125 c 5
 168.041015625 291.016601562 161.9140625 297.235351562 154.049804688 305.282226562 c 132
 146.184570312 313.330078125 141.704101562 317.903320312 140.606445312 319 c 5
257.479492188 287.174804688 m 4
 250.163085938 287.174804688 243.030273438 285.711914062 236.080078125 282.786132812 c 5
 210.83984375 308.026367188 l 5
 225.106445312 313.513671875 240.65234375 316.256835938 257.479492188 316.256835938 c 4
 286.377929688 316.256835938 312.440429688 308.209960938 335.668945312 292.11328125 c 132
 358.897460938 276.018554688 375.6328125 254.802734375 385.875 228.46484375 c 5
 377.095703125 206.881835938 363.744140625 188.409179688 345.8203125 173.045898438 c 5
 311.80078125 207.065429688 l 5
 314.727539062 214.015625 316.190429688 221.1484375 316.190429688 228.46484375 c 4
 316.190429688 244.559570312 310.428710938 258.368164062 298.90625 269.891601562 c 132
 287.383789062 281.4140625 273.575195312 287.174804688 257.479492188 287.174804688 c 4
405 107 m 1
 405 341 l 1
 107 341 l 1
 107 107 l 1
 405 107 l 1
341 491 m 1
 384 491 l 1
 384 448 l 1
 405 448 l 2
 416.333333333 448 426.333333333 443.666666667 435 435 c 128
 443.666666667 426.333333333 448 416.333333333 448 405 c 2
 448 107 l 2
 448 95.6666666667 443.666666667 85.6666666667 435 77 c 128
 426.333333333 68.3333333333 416.333333333 64 405 64 c 2
 107 64 l 2
 95 64 84.8333333333 68.3333333333 76.5 77 c 128
 68.1666666667 85.6666666667 64 95.6666666667 64 107 c 2
 64 405 l 2
 64 416.333333333 68.1666666667 426.333333333 76.5 435 c 128
 84.8333333333 443.666666667 95 448 107 448 c 2
 128 448 l 1
 128 491 l 1
 171 491 l 1
 171 448 l 1
 341 448 l 1
 341 491 l 1
EndSplineSet
EndChar

StartChar: parenright
Encoding: 41 41 41
Width: 512
Flags: HW
LayerCount: 5
UndoRedoHistory
Layer: 1
Undoes
UndoOperation
Index: 0
Type: 3
WasModified: 0
WasOrder2: 0
Layer: 2
EndUndoOperation
EndUndoes
Redoes
EndRedoes
EndUndoRedoHistory
Fore
SplineSet
229.16015625 449.48046875 m 5
 229.16015625 471.440429688 l 5
 383.51953125 471.440429688 l 5
 383.51953125 449.48046875 l 5
 229.16015625 449.48046875 l 5
128.040039062 504.639648438 m 5
 384.51953125 504.639648438 l 5
 384.51953125 482.6796875 l 5
 128.040039062 482.6796875 l 5
 128.040039062 504.639648438 l 5
341 129 m 1
 256 214 l 1
 171 129 l 1
 171 54 l 1
 341 54 l 1
 341 129 l 1
128 438 m 1
 384 438 l 1
 384 310 l 1
 299 225 l 1
 384 140 l 1
 384 12 l 1
 128 12 l 1
 128 140 l 1
 213 225 l 1
 128 310 l 1
 128 438 l 1
EndSplineSet
EndChar

StartChar: uni009F
Encoding: 159 159 42
Width: 512
Flags: HW
LayerCount: 5
UndoRedoHistory
Layer: 1
Undoes
UndoOperation
Index: 0
Type: 3
WasModified: 0
WasOrder2: 0
Layer: 2
EndUndoOperation
EndUndoes
Redoes
EndRedoes
EndUndoRedoHistory
Fore
SplineSet
256 105.814453125 m 260
 236.970703125 105.814453125 220.849609375 112.421875 207.634765625 125.63671875 c 132
 194.419921875 138.8515625 187.8125 154.444335938 187.8125 172.416992188 c 4
 187.8125 181.932617188 190.379812821 194.524333905 198.119140625 208.890625 c 132
 205.018889471 221.698429879 213.645958362 234.217699083 222 248 c 132
 232.700135718 265.652831612 240.118196033 280.192057987 245.693359375 292.934570312 c 132
 253.274414062 310.26171875 256 308.791992188 256 308.791992188 c 261
 256 308.791992188 259.063644554 310.40488403 266.306640625 292.934570312 c 132
 271.783849549 279.723385705 279 266 289 250 c 132
 297.912006806 235.74078911 307.457286916 222.729383236 313.880859375 208.890625 c 132
 320.750976562 194.08984375 324.1875 181.932617188 324.1875 172.416992188 c 4
 324.1875 154.444335938 317.579101562 138.8515625 304.365234375 125.63671875 c 132
 291.151367188 112.421875 275.029296875 105.814453125 256 105.814453125 c 260
EndSplineSet
EndChar

StartChar: uni00A0
Encoding: 160 160 43
Width: 512
Flags: HW
LayerCount: 5
UndoRedoHistory
Layer: 1
Undoes
UndoOperation
Index: 0
Type: 3
WasModified: 0
WasOrder2: 0
Layer: 2
EndUndoOperation
EndUndoes
Redoes
EndRedoes
EndUndoRedoHistory
Fore
SplineSet
326.5 56.814453125 m 260
 307.470703125 56.814453125 291.349609375 63.421875 278.134765625 76.63671875 c 132
 264.919921875 89.8515625 258.3125 105.444335938 258.3125 123.416992188 c 4
 258.3125 132.932617188 260.879882812 145.524414062 268.619140625 159.890625 c 132
 275.518554688 172.698242188 284.145507812 185.217773438 292.5 199 c 132
 303.200195312 216.65234375 310.618164062 231.192382812 316.193359375 243.934570312 c 132
 323.774414062 261.26171875 326.5 259.791992188 326.5 259.791992188 c 261
 326.5 259.791992188 329.563476562 261.405273438 336.806640625 243.934570312 c 132
 342.284179688 230.723632812 349.5 217 359.5 201 c 132
 368.412109375 186.741210938 377.95703125 173.729492188 384.380859375 159.890625 c 132
 391.250976562 145.08984375 394.6875 132.932617188 394.6875 123.416992188 c 4
 394.6875 105.444335938 388.079101562 89.8515625 374.865234375 76.63671875 c 132
 361.651367188 63.421875 345.529296875 56.814453125 326.5 56.814453125 c 260
185.5 110.814453125 m 260
 166.470703125 110.814453125 150.349609375 117.421875 137.134765625 130.63671875 c 132
 123.919921875 143.8515625 117.3125 159.444335938 117.3125 177.416992188 c 4
 117.3125 186.932617188 119.879882812 199.524414062 127.619140625 213.890625 c 132
 134.518554688 226.698242188 143.145507812 239.217773438 151.5 253 c 132
 162.200195312 270.65234375 169.618164062 285.192382812 175.193359375 297.934570312 c 132
 182.774414062 315.26171875 185.5 313.791992188 185.5 313.791992188 c 261
 185.5 313.791992188 188.563476562 315.405273438 195.806640625 297.934570312 c 132
 201.284179688 284.723632812 208.5 271 218.5 255 c 132
 227.412109375 240.741210938 236.95703125 227.729492188 243.380859375 213.890625 c 132
 250.250976562 199.08984375 253.6875 186.932617188 253.6875 177.416992188 c 4
 253.6875 159.444335938 247.079101562 143.8515625 233.865234375 130.63671875 c 132
 220.651367188 117.421875 204.529296875 110.814453125 185.5 110.814453125 c 260
EndSplineSet
EndChar

StartChar: exclamdown
Encoding: 161 161 44
Width: 512
Flags: HW
LayerCount: 5
UndoRedoHistory
Layer: 1
Undoes
UndoOperation
Index: 0
Type: 3
WasModified: 0
WasOrder2: 0
Layer: 2
EndUndoOperation
EndUndoes
Redoes
EndRedoes
EndUndoRedoHistory
Fore
SplineSet
396 33.814453125 m 256
 376.970703125 33.814453125 360.849609375 40.421875 347.634765625 53.63671875 c 128
 334.419921875 66.8515625 327.8125 82.4443359375 327.8125 100.416992188 c 0
 327.8125 109.932617188 330.379882812 122.524414062 338.119140625 136.890625 c 128
 345.018554688 149.698242188 353.645507812 162.217773438 362 176 c 128
 372.700195312 193.65234375 380.118164062 208.192382812 385.693359375 220.934570312 c 128
 393.274414062 238.26171875 396 236.791992188 396 236.791992188 c 257
 396 236.791992188 399.063476562 238.405273438 406.306640625 220.934570312 c 128
 411.784179688 207.723632812 419 194 429 178 c 128
 437.912109375 163.741210938 447.45703125 150.729492188 453.880859375 136.890625 c 128
 460.750976562 122.08984375 464.1875 109.932617188 464.1875 100.416992188 c 0
 464.1875 82.4443359375 457.579101562 66.8515625 444.365234375 53.63671875 c 128
 431.151367188 40.421875 415.029296875 33.814453125 396 33.814453125 c 256
257 93.814453125 m 256
 237.970703125 93.814453125 221.849609375 100.421875 208.634765625 113.63671875 c 128
 195.419921875 126.8515625 188.8125 142.444335938 188.8125 160.416992188 c 0
 188.8125 169.932617188 191.379882812 182.524414062 199.119140625 196.890625 c 128
 206.018554688 209.698242188 214.645507812 222.217773438 223 236 c 128
 233.700195312 253.65234375 241.118164062 268.192382812 246.693359375 280.934570312 c 128
 254.274414062 298.26171875 257 296.791992188 257 296.791992188 c 257
 257 296.791992188 260.063476562 298.405273438 267.306640625 280.934570312 c 128
 272.784179688 267.723632812 280 254 290 238 c 128
 298.912109375 223.741210938 308.45703125 210.729492188 314.880859375 196.890625 c 128
 321.750976562 182.08984375 325.1875 169.932617188 325.1875 160.416992188 c 0
 325.1875 142.444335938 318.579101562 126.8515625 305.365234375 113.63671875 c 128
 292.151367188 100.421875 276.029296875 93.814453125 257 93.814453125 c 256
116 147.814453125 m 256
 96.970703125 147.814453125 80.849609375 154.421875 67.634765625 167.63671875 c 128
 54.419921875 180.8515625 47.8125 196.444335938 47.8125 214.416992188 c 0
 47.8125 223.932617188 50.3798828125 236.524414062 58.119140625 250.890625 c 128
 65.0185546875 263.698242188 73.6455078125 276.217773438 82 290 c 128
 92.7001953125 307.65234375 100.118164062 322.192382812 105.693359375 334.934570312 c 128
 113.274414062 352.26171875 116 350.791992188 116 350.791992188 c 257
 116 350.791992188 119.063476562 352.405273438 126.306640625 334.934570312 c 128
 131.784179688 321.723632812 139 308 149 292 c 128
 157.912109375 277.741210938 167.45703125 264.729492188 173.880859375 250.890625 c 128
 180.750976562 236.08984375 184.1875 223.932617188 184.1875 214.416992188 c 0
 184.1875 196.444335938 177.579101562 180.8515625 164.365234375 167.63671875 c 128
 151.151367188 154.421875 135.029296875 147.814453125 116 147.814453125 c 256
EndSplineSet
EndChar

StartChar: q
Encoding: 113 113 45
Width: 512
Flags: HW
LayerCount: 5
UndoRedoHistory
Layer: 1
Undoes
UndoOperation
Index: 0
Type: 3
WasModified: 0
WasOrder2: 0
Layer: 2
EndUndoOperation
EndUndoes
Redoes
EndRedoes
EndUndoRedoHistory
Fore
SplineSet
288 224 m 4
 288 214.666992188 284.833007812 207 278.5 201 c 132
 272.166992188 195 264.666992188 192 256 192 c 260
 247.333007812 192 239.833007812 195 233.5 201 c 132
 227.166992188 207 224 214.666992188 224 224 c 4
 224 232.666992188 227.166992188 240.166992188 233.5 246.5 c 132
 239.833007812 252.833007812 247.333007812 256 256 256 c 260
 264.666992188 256 272.166992188 252.833007812 278.5 246.5 c 132
 284.833007812 240.166992188 288 232.666992188 288 224 c 4
256 309 m 260
 236.666992188 309 218.5 305.333007812 201.5 298 c 132
 184.5 290.666992188 169.666992188 280.666992188 157 268 c 132
 144.333007812 255.333007812 134.666992188 240.666992188 128 224 c 5
 134.666992188 207.333007812 144.333007812 192.5 157 179.5 c 132
 169.666992188 166.5 184.5 156.333007812 201.5 149 c 132
 218.5 141.666992188 236.666992188 138 256 138 c 260
 275.333007812 138 293.5 141.666992188 310.5 149 c 132
 327.5 156.333007812 342.333007812 166.5 355 179.5 c 132
 367.666992188 192.5 377.333007812 207.333007812 384 224 c 5
 377.333007812 240.666992188 367.666992188 255.333007812 355 268 c 132
 342.333007812 280.666992188 327.5 290.666992188 310.5 298 c 132
 293.5 305.333007812 275.333007812 309 256 309 c 260
256 170 m 260
 241.333007812 170 228.833007812 175.333007812 218.5 186 c 132
 208.166992188 196.666992188 203 209.333007812 203 224 c 260
 203 238.666992188 208.166992188 251.166992188 218.5 261.5 c 132
 228.833007812 271.833007812 241.333007812 277 256 277 c 260
 270.666992188 277 283.166992188 271.833007812 293.5 261.5 c 132
 303.833007812 251.166992188 309 238.666992188 309 224 c 260
 309 209.333007812 303.833007812 196.666992188 293.5 186 c 132
 283.166992188 175.333007812 270.666992188 170 256 170 c 260
405 107 m 1
 405 341 l 1
 107 341 l 1
 107 107 l 1
 405 107 l 1
341 491 m 1
 384 491 l 1
 384 448 l 1
 405 448 l 2
 416.333333333 448 426.333333333 443.666666667 435 435 c 128
 443.666666667 426.333333333 448 416.333333333 448 405 c 2
 448 107 l 2
 448 95.6666666667 443.666666667 85.6666666667 435 77 c 128
 426.333333333 68.3333333333 416.333333333 64 405 64 c 2
 107 64 l 2
 95 64 84.8333333333 68.3333333333 76.5 77 c 128
 68.1666666667 85.6666666667 64 95.6666666667 64 107 c 2
 64 405 l 2
 64 416.333333333 68.1666666667 426.333333333 76.5 435 c 128
 84.8333333333 443.666666667 95 448 107 448 c 2
 128 448 l 1
 128 491 l 1
 171 491 l 1
 171 448 l 1
 341 448 l 1
 341 491 l 1
EndSplineSet
EndChar

StartChar: x
Encoding: 120 120 46
Width: 512
Flags: HW
LayerCount: 5
UndoRedoHistory
Layer: 1
Undoes
UndoOperation
Index: 0
Type: 3
WasModified: 1
WasOrder2: 0
Layer: 2
EndUndoOperation
EndUndoes
Redoes
EndRedoes
EndUndoRedoHistory
Fore
SplineSet
256 85 m 128
 302.666666667 85 342.833333333 101.833333333 376.5 135.5 c 128
 410.166666667 169.166666667 427 209.333333333 427 256 c 128
 427 302.666666667 410.166666667 342.833333333 376.5 376.5 c 128
 342.833333333 410.166666667 302.666666667 427 256 427 c 128
 209.333333333 427 169.166666667 410.166666667 135.5 376.5 c 128
 101.833333333 342.833333333 85 302.666666667 85 256 c 128
 85 209.333333333 101.833333333 169.166666667 135.5 135.5 c 128
 169.166666667 101.833333333 209.333333333 85 256 85 c 128
256 469 m 128
 314.666666667 469 364.833333333 448.166666667 406.5 406.5 c 128
 448.166666667 364.833333333 469 314.666666667 469 256 c 128
 469 197.333333333 448.166666667 147.166666667 406.5 105.5 c 128
 364.833333333 63.8333333333 314.666666667 43 256 43 c 128
 197.333333333 43 147.166666667 63.8333333333 105.5 105.5 c 128
 63.8333333333 147.166666667 43 197.333333333 43 256 c 128
 43 314.666666667 63.8333333333 364.833333333 105.5 406.5 c 128
 147.166666667 448.166666667 197.333333333 469 256 469 c 128
346 346 m 128
 256 256 l 1
 256 384 l 1
 290.666666667 384 320.666992188 371.333007812 346 346 c 128
EndSplineSet
EndChar

StartChar: y
Encoding: 121 121 47
Width: 512
Flags: HW
LayerCount: 5
UndoRedoHistory
Layer: 1
Undoes
UndoOperation
Index: 0
Type: 3
WasModified: 1
WasOrder2: 0
Layer: 2
EndUndoOperation
EndUndoes
Redoes
EndRedoes
EndUndoRedoHistory
Fore
SplineSet
256 85 m 128
 302.666666667 85 342.833333333 101.833333333 376.5 135.5 c 128
 410.166666667 169.166666667 427 209.333333333 427 256 c 128
 427 302.666666667 410.166666667 342.833333333 376.5 376.5 c 128
 342.833333333 410.166666667 302.666666667 427 256 427 c 128
 209.333333333 427 169.166666667 410.166666667 135.5 376.5 c 128
 101.833333333 342.833333333 85 302.666666667 85 256 c 128
 85 209.333333333 101.833333333 169.166666667 135.5 135.5 c 128
 169.166666667 101.833333333 209.333333333 85 256 85 c 128
256 469 m 128
 314.666666667 469 364.833333333 448.166666667 406.5 406.5 c 128
 448.166666667 364.833333333 469 314.666666667 469 256 c 128
 469 197.333333333 448.166666667 147.166666667 406.5 105.5 c 128
 364.833333333 63.8333333333 314.666666667 43 256 43 c 128
 197.333333333 43 147.166666667 63.8333333333 105.5 105.5 c 128
 63.8333333333 147.166666667 43 197.333333333 43 256 c 128
 43 314.666666667 63.8333333333 364.833333333 105.5 406.5 c 128
 147.166666667 448.166666667 197.333333333 469 256 469 c 128
384 256 m 5
 408.666992188 281.333007812 384 221.333333333 384 256 c 128
 384 290.666666667 371.333333333 320.666666667 346 346 c 128
 320.666666667 371.333333333 290.666666667 384 256 384 c 1
 256 256 l 1
 384 256 l 5
EndSplineSet
EndChar

StartChar: uni009C
Encoding: 156 156 48
Width: 512
Flags: HW
LayerCount: 5
UndoRedoHistory
Layer: 1
Undoes
UndoOperation
Index: 0
Type: 3
WasModified: 0
WasOrder2: 0
Layer: 2
EndUndoOperation
EndUndoes
Redoes
EndRedoes
EndUndoRedoHistory
Fore
SplineSet
327.579101562 312.51953125 m 5
 374.545898438 265 l 5
 339.18359375 265 l 5
 339.18359375 182.670898438 l 6
 339.18359375 169.778320312 334.578776042 158.727539062 325.369140625 149.518554688 c 132
 316.159884983 140.308919271 305.108778212 135.704101562 292.215820312 135.704101562 c 132
 279.323242188 135.704101562 268.272460938 140.308919271 259.063476562 149.518554688 c 132
 249.854492188 158.727539062 245.25 169.778320312 245.25 182.670898438 c 6
 245.25 265 l 6
 245.25 271.262109375 242.85546875 276.7875 238.06640625 281.576171875 c 132
 233.277734375 286.365234375 227.75234375 288.759765625 221.490234375 288.759765625 c 132
 215.228493924 288.759765625 209.703428819 286.365234375 204.915039062 281.576171875 c 132
 200.125976562 276.7875 197.731445312 271.262109375 197.731445312 265 c 6
 197.731445312 182.670898438 l 5
 233.094726562 182.670898438 l 5
 186.127929688 135.704101562 l 5
 139.162109375 182.670898438 l 5
 174.524414062 182.670898438 l 5
 174.524414062 265 l 6
 174.524414062 277.892992424 179.12890625 289.036221591 188.337890625 298.4296875 c 132
 197.546875 307.822916667 208.59765625 312.51953125 221.490234375 312.51953125 c 132
 234.383192274 312.51953125 245.434299045 307.822916667 254.643554688 298.4296875 c 132
 263.852539062 289.036221591 268.45703125 277.892992424 268.45703125 265 c 6
 268.45703125 182.670898438 l 6
 268.45703125 176.408789063 270.851236979 170.883398438 275.639648438 166.094726562 c 132
 280.428320312 161.306315104 285.953710937 158.912109375 292.215820312 158.912109375 c 132
 298.478298611 158.912109375 304.004014757 161.306315104 308.79296875 166.094726562 c 132
 313.581380208 170.883398438 315.975585938 176.408789063 315.975585938 182.670898438 c 6
 315.975585938 265 l 5
 280.61328125 265 l 5
 327.579101562 312.51953125 l 5
405 107 m 1
 405 341 l 1
 107 341 l 1
 107 107 l 1
 405 107 l 1
341 491 m 1
 384 491 l 1
 384 448 l 1
 405 448 l 2
 416.333333333 448 426.333333333 443.666666667 435 435 c 128
 443.666666667 426.333333333 448 416.333333333 448 405 c 2
 448 107 l 2
 448 95.6666666667 443.666666667 85.6666666667 435 77 c 128
 426.333333333 68.3333333333 416.333333333 64 405 64 c 2
 107 64 l 2
 95 64 84.8333333333 68.3333333333 76.5 77 c 128
 68.1666666667 85.6666666667 64 95.6666666667 64 107 c 2
 64 405 l 2
 64 416.333333333 68.1666666667 426.333333333 76.5 435 c 128
 84.8333333333 443.666666667 95 448 107 448 c 2
 128 448 l 1
 128 491 l 1
 171 491 l 1
 171 448 l 1
 341 448 l 1
 341 491 l 1
EndSplineSet
EndChar

StartChar: colon
Encoding: 58 58 49
Width: 512
Flags: HW
LayerCount: 5
UndoRedoHistory
Layer: 1
Undoes
UndoOperation
Index: 0
Type: 3
WasModified: 0
WasOrder2: 0
Layer: 2
EndUndoOperation
EndUndoes
Redoes
EndRedoes
EndUndoRedoHistory
Fore
SplineSet
189.952148438 325.849609375 m 1025
324.046875 192.754882812 m 1025
342.046875 370.682617188 m 2
 348.591796875 370.682617188 354.3671875 368.1796875 359.372070312 363.174804688 c 128
 364.376953125 358.169921875 366.879882812 352.39453125 366.879882812 345.849609375 c 2
 366.879882812 173.754882812 l 2
 366.879882812 167.209960938 364.376953125 161.434570312 359.372070312 156.4296875 c 128
 354.3671875 151.424804688 348.591796875 148.922851562 342.046875 148.922851562 c 2
 169.952148438 148.922851562 l 2
 163.407226562 148.922851562 157.631835938 151.424804688 152.626953125 156.4296875 c 128
 147.622070312 161.434570312 145.120117188 167.209960938 145.120117188 173.754882812 c 2
 145.120117188 345.849609375 l 2
 145.120117188 352.39453125 147.622070312 358.169921875 152.626953125 363.174804688 c 128
 157.631835938 368.1796875 163.407226562 370.682617188 169.952148438 370.682617188 c 2
 342.046875 370.682617188 l 2
342.046875 345.849609375 m 1
 169.952148438 345.849609375 l 1
 169.952148438 173.754882812 l 1
 342.046875 173.754882812 l 1
 342.046875 345.849609375 l 1
EndSplineSet
EndChar

StartChar: semicolon
Encoding: 59 59 50
Width: 512
Flags: HW
LayerCount: 5
UndoRedoHistory
Layer: 1
Undoes
UndoOperation
Index: 0
Type: 3
WasModified: 0
WasOrder2: 0
Layer: 2
EndUndoOperation
EndUndoes
Redoes
EndRedoes
EndUndoRedoHistory
Fore
SplineSet
322.046875 325.849609375 m 1
 189.952148438 325.849609375 l 1
 189.952148438 193.754882812 l 5
 322.046875 193.754882812 l 5
 322.046875 325.849609375 l 1
342.046875 370.682617188 m 2
 348.591796875 370.682617188 354.3671875 368.1796875 359.372070312 363.174804688 c 128
 364.376953125 358.169921875 366.879882812 352.39453125 366.879882812 345.849609375 c 2
 366.879882812 173.754882812 l 2
 366.879882812 167.209960938 364.376953125 161.434570312 359.372070312 156.4296875 c 128
 354.3671875 151.424804688 348.591796875 148.922851562 342.046875 148.922851562 c 2
 169.952148438 148.922851562 l 2
 163.407226562 148.922851562 157.631835938 151.424804688 152.626953125 156.4296875 c 128
 147.622070312 161.434570312 145.120117188 167.209960938 145.120117188 173.754882812 c 2
 145.120117188 345.849609375 l 2
 145.120117188 352.39453125 147.622070312 358.169921875 152.626953125 363.174804688 c 128
 157.631835938 368.1796875 163.407226562 370.682617188 169.952148438 370.682617188 c 2
 342.046875 370.682617188 l 2
342.046875 345.849609375 m 1
 169.952148438 345.849609375 l 1
 169.952148438 173.754882812 l 1
 342.046875 173.754882812 l 1
 342.046875 345.849609375 l 1
EndSplineSet
EndChar

StartChar: uni0093
Encoding: 147 147 51
Width: 512
Flags: HW
LayerCount: 5
UndoRedoHistory
Layer: 1
Undoes
UndoOperation
Index: 0
Type: 3
WasModified: 1
WasOrder2: 0
Layer: 2
EndUndoOperation
EndUndoes
Redoes
EndRedoes
EndUndoRedoHistory
Fore
SplineSet
427 85 m 1
 427 171 l 1
 341 171 l 1
 341 85 l 1
 427 85 l 1
427 469 m 2
 438.333333333 469 448.166666667 464.833333333 456.5 456.5 c 128
 464.833333333 448.166666667 469 438.333333333 469 427 c 2
 469 85 l 2
 469 73.6666666667 464.833333333 63.8333333333 456.5 55.5 c 128
 448.166666667 47.1666666667 438.333333333 43 427 43 c 2
 85 43 l 2
 73.6666666667 43 63.8333333333 47.1666666667 55.5 55.5 c 128
 47.1666666667 63.8333333333 43 73.6666666667 43 85 c 2
 43 427 l 2
 43 438.333333333 47.1666666667 448.166666667 55.5 456.5 c 128
 63.8333333333 464.833333333 73.6666666667 469 85 469 c 2
 427 469 l 2
EndSplineSet
EndChar

StartChar: uni0094
Encoding: 148 148 52
Width: 512
Flags: HW
LayerCount: 5
UndoRedoHistory
Layer: 1
Undoes
UndoOperation
Index: 0
Type: 3
WasModified: 1
WasOrder2: 0
Layer: 2
EndUndoOperation
EndUndoes
Redoes
EndRedoes
EndUndoRedoHistory
Fore
SplineSet
171 213 m 1
 171 299 l 1
 85 299 l 1
 85 213 l 1
 171 213 l 1
427 469 m 2
 438.333333333 469 448.166666667 464.833333333 456.5 456.5 c 128
 464.833333333 448.166666667 469 438.333333333 469 427 c 2
 469 85 l 2
 469 73.6666666667 464.833333333 63.8333333333 456.5 55.5 c 128
 448.166666667 47.1666666667 438.333333333 43 427 43 c 2
 85 43 l 2
 73.6666666667 43 63.8333333333 47.1666666667 55.5 55.5 c 128
 47.1666666667 63.8333333333 43 73.6666666667 43 85 c 2
 43 427 l 2
 43 438.333333333 47.1666666667 448.166666667 55.5 456.5 c 128
 63.8333333333 464.833333333 73.6666666667 469 85 469 c 2
 427 469 l 2
EndSplineSet
EndChar

StartChar: uni0095
Encoding: 149 149 53
Width: 512
Flags: HW
LayerCount: 5
UndoRedoHistory
Layer: 1
Undoes
UndoOperation
Index: 0
Type: 3
WasModified: 1
WasOrder2: 0
Layer: 2
EndUndoOperation
EndUndoes
Redoes
EndRedoes
EndUndoRedoHistory
Fore
SplineSet
299 213 m 1
 299 299 l 1
 213 299 l 1
 213 213 l 1
 299 213 l 1
427 469 m 2
 438.333333333 469 448.166666667 464.833333333 456.5 456.5 c 128
 464.833333333 448.166666667 469 438.333333333 469 427 c 2
 469 85 l 2
 469 73.6666666667 464.833333333 63.8333333333 456.5 55.5 c 128
 448.166666667 47.1666666667 438.333333333 43 427 43 c 2
 85 43 l 2
 73.6666666667 43 63.8333333333 47.1666666667 55.5 55.5 c 128
 47.1666666667 63.8333333333 43 73.6666666667 43 85 c 2
 43 427 l 2
 43 438.333333333 47.1666666667 448.166666667 55.5 456.5 c 128
 63.8333333333 464.833333333 73.6666666667 469 85 469 c 2
 427 469 l 2
EndSplineSet
EndChar

StartChar: uni0096
Encoding: 150 150 54
Width: 512
Flags: HW
LayerCount: 5
UndoRedoHistory
Layer: 1
Undoes
UndoOperation
Index: 0
Type: 3
WasModified: 1
WasOrder2: 0
Layer: 2
EndUndoOperation
EndUndoes
Redoes
EndRedoes
EndUndoRedoHistory
Fore
SplineSet
427 213 m 1
 427 299 l 1
 341 299 l 1
 341 213 l 1
 427 213 l 1
427 469 m 2
 438.333333333 469 448.166666667 464.833333333 456.5 456.5 c 128
 464.833333333 448.166666667 469 438.333333333 469 427 c 2
 469 85 l 2
 469 73.6666666667 464.833333333 63.8333333333 456.5 55.5 c 128
 448.166666667 47.1666666667 438.333333333 43 427 43 c 2
 85 43 l 2
 73.6666666667 43 63.8333333333 47.1666666667 55.5 55.5 c 128
 47.1666666667 63.8333333333 43 73.6666666667 43 85 c 2
 43 427 l 2
 43 438.333333333 47.1666666667 448.166666667 55.5 456.5 c 128
 63.8333333333 464.833333333 73.6666666667 469 85 469 c 2
 427 469 l 2
EndSplineSet
EndChar

StartChar: uni0097
Encoding: 151 151 55
Width: 512
Flags: HW
LayerCount: 5
UndoRedoHistory
Layer: 1
Undoes
UndoOperation
Index: 0
Type: 3
WasModified: 1
WasOrder2: 0
Layer: 2
EndUndoOperation
EndUndoes
Redoes
EndRedoes
EndUndoRedoHistory
Fore
SplineSet
171 341 m 1
 171 427 l 1
 85 427 l 1
 85 341 l 1
 171 341 l 1
427 469 m 2
 438.333333333 469 448.166666667 464.833333333 456.5 456.5 c 128
 464.833333333 448.166666667 469 438.333333333 469 427 c 2
 469 85 l 2
 469 73.6666666667 464.833333333 63.8333333333 456.5 55.5 c 128
 448.166666667 47.1666666667 438.333333333 43 427 43 c 2
 85 43 l 2
 73.6666666667 43 63.8333333333 47.1666666667 55.5 55.5 c 128
 47.1666666667 63.8333333333 43 73.6666666667 43 85 c 2
 43 427 l 2
 43 438.333333333 47.1666666667 448.166666667 55.5 456.5 c 128
 63.8333333333 464.833333333 73.6666666667 469 85 469 c 2
 427 469 l 2
EndSplineSet
EndChar

StartChar: uni0098
Encoding: 152 152 56
Width: 512
Flags: HW
LayerCount: 5
UndoRedoHistory
Layer: 1
Undoes
UndoOperation
Index: 0
Type: 3
WasModified: 1
WasOrder2: 0
Layer: 2
EndUndoOperation
EndUndoes
Redoes
EndRedoes
EndUndoRedoHistory
Fore
SplineSet
299 341 m 5
 299 427 l 5
 213 427 l 5
 213 341 l 5
 299 341 l 5
427 469 m 6
 438.333333333 469 448.166666667 464.833333333 456.5 456.5 c 132
 464.833333333 448.166666667 469 438.333333333 469 427 c 6
 469 85 l 6
 469 73.6666666667 464.833333333 63.8333333333 456.5 55.5 c 132
 448.166666667 47.1666666667 438.333333333 43 427 43 c 6
 85 43 l 6
 73.6666666667 43 63.8333333333 47.1666666667 55.5 55.5 c 132
 47.1666666667 63.8333333333 43 73.6666666667 43 85 c 6
 43 427 l 6
 43 438.333333333 47.1666666667 448.166666667 55.5 456.5 c 132
 63.8333333333 464.833333333 73.6666666667 469 85 469 c 6
 427 469 l 6
EndSplineSet
EndChar

StartChar: uni0099
Encoding: 153 153 57
Width: 512
Flags: HW
LayerCount: 5
UndoRedoHistory
Layer: 1
Undoes
UndoOperation
Index: 0
Type: 3
WasModified: 1
WasOrder2: 0
Layer: 2
EndUndoOperation
EndUndoes
Redoes
EndRedoes
EndUndoRedoHistory
Fore
SplineSet
427 341 m 1
 427 427 l 1
 341 427 l 1
 341 341 l 1
 427 341 l 1
427 469 m 2
 438.333333333 469 448.166666667 464.833333333 456.5 456.5 c 128
 464.833333333 448.166666667 469 438.333333333 469 427 c 2
 469 85 l 2
 469 73.6666666667 464.833333333 63.8333333333 456.5 55.5 c 128
 448.166666667 47.1666666667 438.333333333 43 427 43 c 2
 85 43 l 2
 73.6666666667 43 63.8333333333 47.1666666667 55.5 55.5 c 128
 47.1666666667 63.8333333333 43 73.6666666667 43 85 c 2
 43 427 l 2
 43 438.333333333 47.1666666667 448.166666667 55.5 456.5 c 128
 63.8333333333 464.833333333 73.6666666667 469 85 469 c 2
 427 469 l 2
EndSplineSet
EndChar

StartChar: i
Encoding: 105 105 58
Width: 512
Flags: HW
LayerCount: 5
UndoRedoHistory
Layer: 1
Undoes
UndoOperation
Index: 0
Type: 3
WasModified: 0
WasOrder2: 0
Layer: 2
EndUndoOperation
EndUndoes
Redoes
EndRedoes
EndUndoRedoHistory
Fore
SplineSet
301.96875 209.032226562 m 5
 344.704101562 252.173828125 l 5
 354.065429688 242.813476562 l 5
 301.96875 190.716796875 l 5
 274.29296875 218.393554688 l 5
 283.247070312 227.346679688 l 5
 301.96875 209.032226562 l 5
314.5859375 161.413085938 m 132
 331.408594984 161.413085938 345.721428749 167.382478829 357.524414062 179.321289062 c 132
 369.327148438 191.25984547 375.228515625 205.640379324 375.228515625 222.462890625 c 132
 375.228515625 239.285548109 369.327082104 253.598307298 357.524414062 265.401367188 c 132
 345.721420505 277.204752604 331.408594984 283.106445312 314.5859375 283.106445312 c 132
 297.763280016 283.106445312 283.450520831 277.20468627 271.647460938 265.401367188 c 132
 259.844726562 253.59837363 253.943359375 239.285548109 253.943359375 222.462890625 c 132
 253.943359375 205.640379324 259.844718319 191.25983732 271.647460938 179.321289062 c 132
 283.450454495 167.382486979 297.763280016 161.413085938 314.5859375 161.413085938 c 132
314.5859375 300.606445312 m 132
 336.292815564 300.606445312 354.743858103 292.941600702 369.938476562 277.611328125 c 132
 385.133138021 262.281012166 392.73046875 243.898199666 392.73046875 222.462890625 c 132
 392.73046875 201.027581584 385.133008701 182.644897259 369.938476562 167.314453125 c 132
 354.743661918 151.983723958 336.292815564 144.318359375 314.5859375 144.318359375 c 132
 292.879059436 144.318359375 274.428342404 151.983852135 259.233398438 167.314453125 c 132
 244.038736979 182.644769084 236.44140625 201.027581584 236.44140625 222.462890625 c 132
 236.44140625 243.898199666 244.038540793 262.281206618 259.233398438 277.611328125 c 132
 274.428213082 292.94140625 292.879059436 300.606445312 314.5859375 300.606445312 c 132
220.004882812 224.125976562 m 1
 182.263671875 176.384765625 l 1
 182.263671875 212.331054688 l 1
 125.013671875 212.331054688 l 1
 125.013671875 235.920898438 l 1
 182.263671875 235.920898438 l 1
 182.263671875 271.8671875 l 1
 220.004882812 224.125976562 l 1
405 107 m 1
 405 341 l 1
 107 341 l 1
 107 107 l 1
 405 107 l 1
341 491 m 1
 384 491 l 1
 384 448 l 1
 405 448 l 2
 416.333333333 448 426.333333333 443.666666667 435 435 c 128
 443.666666667 426.333333333 448 416.333333333 448 405 c 2
 448 107 l 2
 448 95.6666666667 443.666666667 85.6666666667 435 77 c 128
 426.333333333 68.3333333333 416.333333333 64 405 64 c 2
 107 64 l 2
 95 64 84.8333333333 68.3333333333 76.5 77 c 128
 68.1666666667 85.6666666667 64 95.6666666667 64 107 c 2
 64 405 l 2
 64 416.333333333 68.1666666667 426.333333333 76.5 435 c 128
 84.8333333333 443.666666667 95 448 107 448 c 2
 128 448 l 1
 128 491 l 1
 171 491 l 1
 171 448 l 1
 341 448 l 1
 341 491 l 1
EndSplineSet
EndChar

StartChar: h
Encoding: 104 104 59
Width: 512
Flags: HW
LayerCount: 5
UndoRedoHistory
Layer: 1
Undoes
UndoOperation
Index: 0
Type: 3
WasModified: 0
WasOrder2: 0
Layer: 2
EndUndoOperation
EndUndoes
Redoes
EndRedoes
EndUndoRedoHistory
Fore
SplineSet
328.606445312 266.272460938 m 6
 313.270507812 250.936523438 l 5
 281.8125 282.39453125 l 5
 297.1484375 297.73046875 l 6
 298.72109375 299.303385417 300.686914063 300.08984375 303.045898438 300.08984375 c 132
 305.405273438 300.08984375 307.371419271 299.303385417 308.944335938 297.73046875 c 6
 328.606445312 278.069335938 l 6
 330.178710938 276.496419271 330.96484375 274.530273438 330.96484375 272.170898438 c 132
 330.96484375 269.811523438 330.178710938 267.845377604 328.606445312 266.272460938 c 6
179.966796875 180.549804688 m 5
 272.767578125 273.350585938 l 5
 304.2265625 241.892578125 l 5
 211.424804688 149.090820312 l 5
 179.966796875 149.090820312 l 5
 179.966796875 180.549804688 l 5
405 107 m 1
 405 341 l 1
 107 341 l 1
 107 107 l 1
 405 107 l 1
341 491 m 1
 384 491 l 1
 384 448 l 1
 405 448 l 2
 416.333333333 448 426.333333333 443.666666667 435 435 c 128
 443.666666667 426.333333333 448 416.333333333 448 405 c 2
 448 107 l 2
 448 95.6666666667 443.666666667 85.6666666667 435 77 c 128
 426.333333333 68.3333333333 416.333333333 64 405 64 c 2
 107 64 l 2
 95 64 84.8333333333 68.3333333333 76.5 77 c 128
 68.1666666667 85.6666666667 64 95.6666666667 64 107 c 2
 64 405 l 2
 64 416.333333333 68.1666666667 426.333333333 76.5 435 c 128
 84.8333333333 443.666666667 95 448 107 448 c 2
 128 448 l 1
 128 491 l 1
 171 491 l 1
 171 448 l 1
 341 448 l 1
 341 491 l 1
EndSplineSet
EndChar

StartChar: j
Encoding: 106 106 60
Width: 512
Flags: HW
LayerCount: 5
UndoRedoHistory
Layer: 1
Undoes
UndoOperation
Index: 0
Type: 3
WasModified: 0
WasOrder2: 0
Layer: 2
EndUndoOperation
EndUndoes
Redoes
EndRedoes
EndUndoRedoHistory
Fore
SplineSet
256.424804688 145.596679688 m 132
 277.746454402 145.596679688 296.098342422 153.167643228 311.48046875 168.309570312 c 132
 326.861979166 183.451593917 334.552734375 201.518112803 334.552734375 222.505859375 c 132
 334.552734375 243.49611893 326.861979166 261.560747372 311.48046875 276.704101562 c 132
 296.098342422 291.845014538 277.746454402 299.416015625 256.424804688 299.416015625 c 132
 235.103583472 299.416015625 216.752064266 291.845014538 201.369140625 276.704101562 c 132
 185.98865006 261.560747372 178.297851562 243.49611893 178.297851562 222.505859375 c 132
 178.297851562 201.518112803 185.98865006 183.451593917 201.369140625 168.309570312 c 132
 216.752064266 153.167643228 235.103583472 145.596679688 256.424804688 145.596679688 c 132
256.424804688 318.306640625 m 132
 283.228283262 318.306640625 306.149268283 308.935872395 325.185546875 290.194335938 c 132
 344.222938457 271.455699671 353.7421875 248.892874151 353.7421875 222.505859375 c 132
 353.7421875 196.11997771 344.222938457 173.557189734 325.185546875 154.81640625 c 132
 306.149268283 136.077185974 283.228283262 126.70703125 256.424804688 126.70703125 c 132
 229.620945441 126.70703125 206.700741342 136.077185974 187.663085938 154.81640625 c 132
 168.626541051 173.557189734 159.109375 196.11997771 159.109375 222.505859375 c 132
 159.109375 248.892874151 168.626541051 271.455699671 187.663085938 290.194335938 c 132
 206.700741342 308.935872395 229.620945441 318.306640625 256.424804688 318.306640625 c 132
297.544921875 262.984375 m 132
 309.119964768 251.591180871 314.905273438 238.097979257 314.905273438 222.505859375 c 132
 314.905273438 206.91520485 309.272351891 193.421239576 298.000976562 182.028320312 c 132
 286.731745143 170.63415213 273.024996116 164.936523438 256.881835938 164.936523438 c 132
 240.739079793 164.936523438 226.879987026 170.63415213 215.305664062 182.028320312 c 5
 256.424804688 222.505859375 l 5
 256.424804688 280.076171875 l 5
 272.264066253 280.076171875 285.971140808 274.378543181 297.544921875 262.984375 c 132
405 107 m 1
 405 341 l 1
 107 341 l 1
 107 107 l 1
 405 107 l 1
341 491 m 1
 384 491 l 1
 384 448 l 1
 405 448 l 2
 416.333333333 448 426.333333333 443.666666667 435 435 c 128
 443.666666667 426.333333333 448 416.333333333 448 405 c 2
 448 107 l 2
 448 95.6666666667 443.666666667 85.6666666667 435 77 c 128
 426.333333333 68.3333333333 416.333333333 64 405 64 c 2
 107 64 l 2
 95 64 84.8333333333 68.3333333333 76.5 77 c 128
 68.1666666667 85.6666666667 64 95.6666666667 64 107 c 2
 64 405 l 2
 64 416.333333333 68.1666666667 426.333333333 76.5 435 c 128
 84.8333333333 443.666666667 95 448 107 448 c 2
 128 448 l 1
 128 491 l 1
 171 491 l 1
 171 448 l 1
 341 448 l 1
 341 491 l 1
EndSplineSet
EndChar

StartChar: k
Encoding: 107 107 61
Width: 512
Flags: HW
LayerCount: 5
UndoRedoHistory
Layer: 1
Undoes
UndoOperation
Index: 0
Type: 3
WasModified: 0
WasOrder2: 0
Layer: 2
EndUndoOperation
EndUndoes
Redoes
EndRedoes
EndUndoRedoHistory
Fore
SplineSet
277 299 m 5
 320 299 l 5
 320 150 l 5
 277 150 l 5
 277 299 l 5
235 299 m 5
 235 150 l 5
 192 150 l 5
 192 299 l 5
 235 299 l 5
405 107 m 1
 405 341 l 1
 107 341 l 1
 107 107 l 1
 405 107 l 1
341 491 m 1
 384 491 l 1
 384 448 l 1
 405 448 l 2
 416.333333333 448 426.333333333 443.666666667 435 435 c 128
 443.666666667 426.333333333 448 416.333333333 448 405 c 2
 448 107 l 2
 448 95.6666666667 443.666666667 85.6666666667 435 77 c 128
 426.333333333 68.3333333333 416.333333333 64 405 64 c 2
 107 64 l 2
 95 64 84.8333333333 68.3333333333 76.5 77 c 128
 68.1666666667 85.6666666667 64 95.6666666667 64 107 c 2
 64 405 l 2
 64 416.333333333 68.1666666667 426.333333333 76.5 435 c 128
 84.8333333333 443.666666667 95 448 107 448 c 2
 128 448 l 1
 128 491 l 1
 171 491 l 1
 171 448 l 1
 341 448 l 1
 341 491 l 1
EndSplineSet
EndChar

StartChar: l
Encoding: 108 108 62
Width: 512
Flags: HW
LayerCount: 5
UndoRedoHistory
Layer: 1
Undoes
UndoOperation
Index: 0
Type: 3
WasModified: 0
WasOrder2: 0
Layer: 2
EndUndoOperation
EndUndoes
Redoes
EndRedoes
EndUndoRedoHistory
Fore
SplineSet
233.93359375 260.014648438 m 1
 163.571289062 260.014648438 l 1
 163.571289062 189.369140625 l 1
 233.93359375 189.369140625 l 1
 233.93359375 260.014648438 l 1
252 278 m 1
 252 171 l 1
 145 171 l 1
 145 278 l 1
 252 278 l 1
355.004882812 224.125976562 m 1
 317.263671875 176.384765625 l 1
 317.263671875 212.331054688 l 1
 260.013671875 212.331054688 l 1
 260.013671875 235.920898438 l 1
 317.263671875 235.920898438 l 1
 317.263671875 271.8671875 l 1
 355.004882812 224.125976562 l 1
405 107 m 1
 405 341 l 1
 107 341 l 1
 107 107 l 1
 405 107 l 1
341 491 m 1
 384 491 l 1
 384 448 l 1
 405 448 l 2
 416.333333333 448 426.333333333 443.666666667 435 435 c 128
 443.666666667 426.333333333 448 416.333333333 448 405 c 2
 448 107 l 2
 448 95.6666666667 443.666666667 85.6666666667 435 77 c 128
 426.333333333 68.3333333333 416.333333333 64 405 64 c 2
 107 64 l 2
 95 64 84.8333333333 68.3333333333 76.5 77 c 128
 68.1666666667 85.6666666667 64 95.6666666667 64 107 c 2
 64 405 l 2
 64 416.333333333 68.1666666667 426.333333333 76.5 435 c 128
 84.8333333333 443.666666667 95 448 107 448 c 2
 128 448 l 1
 128 491 l 1
 171 491 l 1
 171 448 l 1
 341 448 l 1
 341 491 l 1
405 107 m 1
 405 341 l 1
 107 341 l 1
 107 107 l 1
 405 107 l 1
341 491 m 1
 384 491 l 1
 384 448 l 1
 405 448 l 2
 416.333333333 448 426.333333333 443.666666667 435 435 c 128
 443.666666667 426.333333333 448 416.333333333 448 405 c 2
 448 107 l 2
 448 95.6666666667 443.666666667 85.6666666667 435 77 c 128
 426.333333333 68.3333333333 416.333333333 64 405 64 c 2
 107 64 l 2
 95 64 84.8333333333 68.3333333333 76.5 77 c 128
 68.1666666667 85.6666666667 64 95.6666666667 64 107 c 2
 64 405 l 2
 64 416.333333333 68.1666666667 426.333333333 76.5 435 c 128
 84.8333333333 443.666666667 95 448 107 448 c 2
 128 448 l 1
 128 491 l 1
 171 491 l 1
 171 448 l 1
 341 448 l 1
 341 491 l 1
EndSplineSet
EndChar

StartChar: a
Encoding: 97 97 63
Width: 512
Flags: HW
LayerCount: 5
UndoRedoHistory
Layer: 1
Undoes
UndoOperation
Index: 0
Type: 1
WasModified: 1
WasOrder2: 0
Layer: 2
Width: 512
VWidth: 512
LBearingChange: 0
UnicodeEnc: 0
InstructionsLength: 0
SplineSet
316.100585938 244.817382812 m 5
 255.1796875 305.737304688 l 5
 279.877929688 330.435546875 l 5
 316.100585938 294.211914062 l 5
 388.545898438 367.481445312 l 5
 413.244140625 342.784179688 l 5
 316.100585938 244.817382812 l 5
225.100585938 306.817382812 m 1
 164.1796875 367.737304688 l 1
 188.877929688 392.435546875 l 1
 225.100585938 356.211914062 l 1
 297.545898438 429.481445312 l 1
 322.244140625 404.784179688 l 1
 225.100585938 306.817382812 l 1
277.55078125 448.087890625 m 0
 257.55078125 448.087890625 238.884114583 444.421223958 221.55078125 437.087890625 c 128
 204.217447917 429.754557292 188.717447917 419.587890625 175.05078125 406.587890625 c 128
 161.384114583 393.587890625 150.55078125 378.587890625 142.55078125 361.587890625 c 128
 134.55078125 344.587890625 129.884114583 326.087890625 128.55078125 306.087890625 c 1
 87.55078125 252.087890625 l 2
 84.6491787558 248.266267828 84.55078125 244.254557292 86.55078125 240.587890625 c 128
 88.55078125 236.921223958 91.8841145833 235.087890625 96.55078125 235.087890625 c 2
 128.55078125 235.087890625 l 1
 128.55078125 171.087890625 l 2
 128.55078125 159.087890625 132.717447917 148.921223958 141.05078125 140.587890625 c 128
 149.384114583 132.254557292 159.55078125 128.087890625 171.55078125 128.087890625 c 2
 192.55078125 128.087890625 l 1
 192.55078125 64.087890625 l 1
 341.55078125 64.087890625 l 1
 341.55078125 164.087890625 l 1
 366.884114583 176.087890625 387.55078125 194.087890625 403.55078125 218.087890625 c 128
 419.55078125 242.087890625 427.55078125 269.087890625 427.55078125 299.087890625 c 0
 427.55078125 319.754557292 423.55078125 339.087890625 415.55078125 357.087890625 c 128
 407.55078125 375.087890625 396.717447917 390.921223958 383.05078125 404.587890625 c 128
 369.384114583 418.254557292 353.55078125 428.921223958 335.55078125 436.587890625 c 128
 317.55078125 444.254557292 298.217447917 448.087890625 277.55078125 448.087890625 c 0
EndSplineSet
EndUndoOperation
EndUndoes
Redoes
EndRedoes
EndUndoRedoHistory
Fore
SplineSet
306.100585938 244.817382812 m 5
 245.1796875 305.737304688 l 5
 269.877929688 330.435546875 l 5
 306.100585938 294.211914062 l 5
 378.545898438 367.481445312 l 5
 403.244140625 342.784179688 l 5
 306.100585938 244.817382812 l 5
225.100585938 306.817382812 m 1
 164.1796875 367.737304688 l 1
 188.877929688 392.435546875 l 1
 225.100585938 356.211914062 l 1
 297.545898438 429.481445312 l 1
 322.244140625 404.784179688 l 1
 225.100585938 306.817382812 l 1
277.55078125 448.087890625 m 0
 257.55078125 448.087890625 238.884114583 444.421223958 221.55078125 437.087890625 c 128
 204.217447917 429.754557292 188.717447917 419.587890625 175.05078125 406.587890625 c 128
 161.384114583 393.587890625 150.55078125 378.587890625 142.55078125 361.587890625 c 128
 134.55078125 344.587890625 129.884114583 326.087890625 128.55078125 306.087890625 c 1
 87.55078125 252.087890625 l 2
 84.6491787558 248.266267828 84.55078125 244.254557292 86.55078125 240.587890625 c 128
 88.55078125 236.921223958 91.8841145833 235.087890625 96.55078125 235.087890625 c 2
 128.55078125 235.087890625 l 1
 128.55078125 171.087890625 l 2
 128.55078125 159.087890625 132.717447917 148.921223958 141.05078125 140.587890625 c 128
 149.384114583 132.254557292 159.55078125 128.087890625 171.55078125 128.087890625 c 2
 192.55078125 128.087890625 l 1
 192.55078125 64.087890625 l 1
 341.55078125 64.087890625 l 1
 341.55078125 164.087890625 l 1
 366.884114583 176.087890625 387.55078125 194.087890625 403.55078125 218.087890625 c 128
 419.55078125 242.087890625 427.55078125 269.087890625 427.55078125 299.087890625 c 0
 427.55078125 319.754557292 423.55078125 339.087890625 415.55078125 357.087890625 c 128
 407.55078125 375.087890625 396.717447917 390.921223958 383.05078125 404.587890625 c 128
 369.384114583 418.254557292 353.55078125 428.921223958 335.55078125 436.587890625 c 128
 317.55078125 444.254557292 298.217447917 448.087890625 277.55078125 448.087890625 c 0
EndSplineSet
EndChar

StartChar: b
Encoding: 98 98 64
Width: 512
Flags: HW
LayerCount: 5
UndoRedoHistory
Layer: 1
Undoes
UndoOperation
Index: 0
Type: 3
WasModified: 1
WasOrder2: 0
Layer: 2
EndUndoOperation
EndUndoes
Redoes
EndRedoes
EndUndoRedoHistory
Fore
SplineSet
265.100585938 276.817382812 m 5
 204.1796875 337.737304688 l 5
 228.877929688 362.435546875 l 5
 265.100585938 326.211914062 l 5
 337.545898438 399.481445312 l 5
 362.244140625 374.784179688 l 5
 265.100585938 276.817382812 l 5
277.55078125 448.087890625 m 0
 257.55078125 448.087890625 238.884114583 444.421223958 221.55078125 437.087890625 c 128
 204.217447917 429.754557292 188.717447917 419.587890625 175.05078125 406.587890625 c 128
 161.384114583 393.587890625 150.55078125 378.587890625 142.55078125 361.587890625 c 128
 134.55078125 344.587890625 129.884114583 326.087890625 128.55078125 306.087890625 c 1
 87.55078125 252.087890625 l 2
 84.6491787556 248.266267828 84.55078125 244.254557292 86.55078125 240.587890625 c 128
 88.55078125 236.921223958 91.8841145833 235.087890625 96.55078125 235.087890625 c 2
 128.55078125 235.087890625 l 1
 128.55078125 171.087890625 l 2
 128.55078125 159.087890625 132.717447917 148.921223958 141.05078125 140.587890625 c 128
 149.384114583 132.254557292 159.55078125 128.087890625 171.55078125 128.087890625 c 2
 192.55078125 128.087890625 l 1
 192.55078125 64.087890625 l 1
 341.55078125 64.087890625 l 1
 341.55078125 164.087890625 l 1
 366.884114583 176.087890625 387.55078125 194.087890625 403.55078125 218.087890625 c 128
 419.55078125 242.087890625 427.55078125 269.087890625 427.55078125 299.087890625 c 0
 427.55078125 319.754557292 423.55078125 339.087890625 415.55078125 357.087890625 c 128
 407.55078125 375.087890625 396.717447917 390.921223958 383.05078125 404.587890625 c 128
 369.384114583 418.254557292 353.55078125 428.921223958 335.55078125 436.587890625 c 128
 317.55078125 444.254557292 298.217447917 448.087890625 277.55078125 448.087890625 c 0
EndSplineSet
EndChar

StartChar: c
Encoding: 99 99 65
Width: 512
Flags: HW
LayerCount: 5
UndoRedoHistory
Layer: 1
Undoes
UndoOperation
Index: 0
Type: 3
WasModified: 1
WasOrder2: 0
Layer: 2
EndUndoOperation
EndUndoes
Redoes
EndRedoes
EndUndoRedoHistory
Fore
SplineSet
304.025390625 362.326171875 m 4
 297.527622768 362.326171875 291.841982884 359.88974145 286.96875 355.016601562 c 132
 282.095052083 350.142996652 279.658203125 344.457124256 279.658203125 337.958984375 c 4
 279.658203125 330.919625947 282.095386062 324.963579715 286.96875 320.08984375 c 132
 291.842075893 315.216145833 297.527622768 312.779296875 304.025390625 312.779296875 c 4
 311.065133759 312.779296875 317.022002269 315.215983059 321.895507812 320.08984375 c 132
 326.768554688 324.963245739 329.205078125 330.919625947 329.205078125 337.958984375 c 4
 329.205078125 344.457124256 326.769144426 350.143586394 321.895507812 355.016601562 c 132
 317.021839489 359.889648438 311.065133759 362.326171875 304.025390625 362.326171875 c 4
356.008789062 337.958984375 m 4
 356.008789062 336.334852431 356.008789062 336.334852431 356.008789062 334.3046875 c 132
 356.008789062 332.2734375 355.221679688 331.260589172 356.008789062 330.6484375 c 6
 370.629882812 319.27734375 l 6
 371.828974244 318.344788271 372.269695211 316.677658349 371.44140625 315.215820312 c 6
 357.634765625 290.848632812 l 6
 356.674984917 289.154726445 354.78688766 288.356360743 352.760742188 289.224609375 c 6
 335.703125 296.534179688 l 5
 332.454241071 293.826660156 328.663876488 291.660644531 324.33203125 290.036132812 c 5
 321.895507812 271.354492188 l 6
 321.608676054 269.155257105 320.000130208 268.10546875 317.833984375 268.10546875 c 6
 290.216796875 268.10546875 l 6
 288.592773438 268.10546875 287.255693235 269.155283819 286.96875 271.354492188 c 6
 284.53125 290.036132812 l 5
 280.199305556 291.660644531 276.138107639 293.826660156 272.34765625 296.534179688 c 5
 255.291015625 289.224609375 l 6
 253.722481332 288.55241888 252.189369356 289.154795818 251.229492188 290.848632812 c 6
 237.420898438 315.215820312 l 6
 236.460706636 316.910212521 236.696018589 318.081615278 238.233398438 319.27734375 c 6
 252.853515625 330.6484375 l 6
 253.378514392 331.056765978 252.717611755 332.950423484 252.447265625 334.3046875 c 132
 252.177083333 335.658130787 252.041992188 336.876229745 252.041992188 337.958984375 c 260
 252.041992188 339.041992188 252.176470567 340.125153054 252.447265625 341.208007812 c 132
 252.718098958 342.291015625 253.378367733 344.048781781 252.853515625 344.45703125 c 6
 238.233398438 355.829101562 l 6
 236.69615718 357.024824924 236.198925629 358.617621838 237.420898438 360.702148438 c 6
 251.229492188 384.2578125 l 6
 252.21503015 385.939012019 253.709621933 386.528809005 255.291015625 385.881835938 c 6
 273.16015625 378.571289062 l 5
 276.950520833 381.820421007 280.740885417 384.257269965 284.53125 385.881835938 c 5
 286.96875 403.750976562 l 6
 287.268704164 405.949919388 288.592773438 407 290.216796875 407 c 6
 317.833984375 407 l 6
 320.000130208 407 321.59566983 405.949948669 321.895507812 403.750976562 c 6
 324.33203125 385.881835938 l 5
 328.122395833 384.257269965 331.912760417 381.820421007 335.703125 378.571289062 c 5
 352.760742188 385.881835938 l 6
 354.786829848 386.750175792 356.649323846 385.939085747 357.634765625 384.2578125 c 6
 371.44140625 360.702148438 l 6
 372.662922486 358.61810592 372.198916782 356.985299789 370.629882812 355.829101562 c 6
 355.197265625 344.45703125 l 6
 354.772078778 344.14371727 356.008789062 340.666503906 356.008789062 337.958984375 c 4
277.55078125 448.087890625 m 0
 257.55078125 448.087890625 238.884114583 444.421223958 221.55078125 437.087890625 c 128
 204.217447917 429.754557292 188.717447917 419.587890625 175.05078125 406.587890625 c 128
 161.384114583 393.587890625 150.55078125 378.587890625 142.55078125 361.587890625 c 128
 134.55078125 344.587890625 129.884114583 326.087890625 128.55078125 306.087890625 c 1
 87.55078125 252.087890625 l 2
 84.6491787556 248.266267828 84.55078125 244.254557292 86.55078125 240.587890625 c 128
 88.55078125 236.921223958 91.8841145833 235.087890625 96.55078125 235.087890625 c 2
 128.55078125 235.087890625 l 1
 128.55078125 171.087890625 l 2
 128.55078125 159.087890625 132.717447917 148.921223958 141.05078125 140.587890625 c 128
 149.384114583 132.254557292 159.55078125 128.087890625 171.55078125 128.087890625 c 2
 192.55078125 128.087890625 l 1
 192.55078125 64.087890625 l 1
 341.55078125 64.087890625 l 1
 341.55078125 164.087890625 l 1
 366.884114583 176.087890625 387.55078125 194.087890625 403.55078125 218.087890625 c 128
 419.55078125 242.087890625 427.55078125 269.087890625 427.55078125 299.087890625 c 0
 427.55078125 319.754557292 423.55078125 339.087890625 415.55078125 357.087890625 c 128
 407.55078125 375.087890625 396.717447917 390.921223958 383.05078125 404.587890625 c 128
 369.384114583 418.254557292 353.55078125 428.921223958 335.55078125 436.587890625 c 128
 317.55078125 444.254557292 298.217447917 448.087890625 277.55078125 448.087890625 c 0
EndSplineSet
EndChar

StartChar: d
Encoding: 100 100 66
Width: 512
Flags: HW
LayerCount: 5
UndoRedoHistory
Layer: 1
Undoes
UndoOperation
Index: 0
Type: 3
WasModified: 1
WasOrder2: 0
Layer: 2
EndUndoOperation
EndUndoes
Redoes
EndRedoes
EndUndoRedoHistory
Fore
SplineSet
348.294921875 335.6953125 m 0
 342.812406994 335.6953125 338.015299485 333.639229917 333.903320312 329.52734375 c 128
 329.791341146 325.415457589 327.735351562 320.618257068 327.735351562 315.135742188 c 0
 327.735351562 309.19625947 329.791727941 304.170930116 333.903320312 300.05859375 c 128
 338.015206473 295.945963542 342.812406994 293.889648438 348.294921875 293.889648438 c 0
 354.234789299 293.889648438 359.260934594 295.945859901 363.373046875 300.05859375 c 128
 367.484375 304.170543324 369.540039062 309.19625947 369.540039062 315.135742188 c 0
 369.540039062 320.618257068 367.484772372 325.415854967 363.373046875 329.52734375 c 128
 359.260830966 333.639322917 354.234789299 335.6953125 348.294921875 335.6953125 c 0
392.15625 315.135742188 m 0
 392.15625 313.765082465 392.15625 313.765082465 392.15625 312.051757812 c 128
 392.15625 310.337890625 391.492186056 309.483244325 392.15625 308.966796875 c 2
 404.4921875 299.373046875 l 2
 405.504667951 298.585633326 405.876767929 297.180043145 405.177734375 295.946289062 c 2
 393.528320312 275.385742188 l 2
 392.718552797 273.956549023 391.124822768 273.282843981 389.415039062 274.015625 c 2
 375.0234375 280.18359375 l 1
 372.282087054 277.898844401 369.083844866 276.071044922 365.428710938 274.700195312 c 1
 363.373046875 258.9375 l 2
 363.131064588 257.081995915 361.773893229 256.196289062 359.946289062 256.196289062 c 2
 336.643554688 256.196289062 l 2
 335.2734375 256.196289062 334.145414044 257.082022833 333.903320312 258.9375 c 2
 331.846679688 274.700195312 l 1
 328.191471354 276.071044922 324.764713542 277.898844401 321.56640625 280.18359375 c 1
 307.17578125 274.015625 l 2
 305.852114822 273.448288059 304.55786835 273.956573594 303.748046875 275.385742188 c 2
 292.09765625 295.946289062 l 2
 291.287575692 297.375914885 291.486021079 298.364218786 292.783203125 299.373046875 c 2
 305.119140625 308.966796875 l 2
 305.562121847 309.311306654 305.004952389 310.909193605 304.776367188 312.051757812 c 128
 304.547851563 313.193974248 304.43359375 314.221969039 304.43359375 315.135742188 c 256
 304.43359375 316.049479167 304.547851412 316.963215546 304.776367188 317.876953125 c 128
 305.004882812 318.790690104 305.561986154 320.273724756 305.119140625 320.618164062 c 2
 292.783203125 330.212890625 l 2
 291.486044186 331.221803432 291.066528061 332.566140752 292.09765625 334.325195312 c 2
 303.748046875 354.200195312 l 2
 304.579547178 355.618694405 305.841228955 356.116305005 307.17578125 355.5703125 c 2
 322.251953125 349.40234375 l 1
 325.450195312 352.143663194 328.6484375 354.199652778 331.846679688 355.5703125 c 1
 333.903320312 370.647460938 l 2
 334.156391288 372.502713924 335.2734375 373.388671875 336.643554688 373.388671875 c 2
 359.946289062 373.388671875 l 2
 361.773893229 373.388671875 363.120092046 372.502743407 363.373046875 370.647460938 c 2
 365.428710938 355.5703125 l 1
 368.626953125 354.199652778 371.825195312 352.143663194 375.0234375 349.40234375 c 1
 389.415039062 355.5703125 l 2
 391.124809416 356.303087797 392.696874033 355.618721146 393.528320312 354.200195312 c 2
 405.177734375 334.325195312 l 2
 406.208838654 332.566034085 405.817163382 331.189256637 404.4921875 330.212890625 c 2
 391.471679688 320.618164062 l 2
 391.112988499 320.353846885 392.15625 317.420084635 392.15625 315.135742188 c 0
226.025390625 365.326171875 m 0
 219.527622768 365.326171875 213.841982884 362.88974145 208.96875 358.016601562 c 128
 204.095052083 353.142996652 201.658203125 347.457124256 201.658203125 340.958984375 c 0
 201.658203125 333.919625947 204.095386062 327.963579715 208.96875 323.08984375 c 128
 213.842075893 318.216145833 219.527622768 315.779296875 226.025390625 315.779296875 c 0
 233.065133759 315.779296875 239.022002269 318.215983059 243.895507812 323.08984375 c 128
 248.768554688 327.963245739 251.205078125 333.919625947 251.205078125 340.958984375 c 0
 251.205078125 347.457124256 248.769144426 353.143586394 243.895507812 358.016601562 c 128
 239.021839489 362.889648438 233.065133759 365.326171875 226.025390625 365.326171875 c 0
278.008789062 340.958984375 m 0
 278.008789062 339.334852431 278.008789062 339.334852431 278.008789062 337.3046875 c 128
 278.008789062 335.2734375 277.221672105 334.260592847 278.008789062 333.6484375 c 2
 292.629882812 322.27734375 l 2
 293.828974244 321.344788271 294.269695211 319.677658349 293.44140625 318.215820312 c 2
 279.634765625 293.848632812 l 2
 278.674984917 292.154726445 276.78688766 291.356360743 274.760742188 292.224609375 c 2
 257.703125 299.534179688 l 1
 254.454241071 296.826660156 250.663876488 294.660644531 246.33203125 293.036132812 c 1
 243.895507812 274.354492188 l 2
 243.608676054 272.155257105 242.000130208 271.10546875 239.833984375 271.10546875 c 2
 212.216796875 271.10546875 l 2
 210.592773438 271.10546875 209.255693235 272.155283819 208.96875 274.354492188 c 2
 206.53125 293.036132812 l 1
 202.199305556 294.660644531 198.138107639 296.826660156 194.34765625 299.534179688 c 1
 177.291015625 292.224609375 l 2
 175.722481332 291.55241888 174.189369356 292.154795818 173.229492188 293.848632812 c 2
 159.420898438 318.215820312 l 2
 158.460706636 319.910212521 158.696018589 321.081615278 160.233398438 322.27734375 c 2
 174.853515625 333.6484375 l 2
 175.378514392 334.056765978 174.717611755 335.950423484 174.447265625 337.3046875 c 128
 174.177083333 338.658130787 174.041992188 339.876229745 174.041992188 340.958984375 c 256
 174.041992188 342.041992188 174.176470567 343.125153054 174.447265625 344.208007812 c 128
 174.718098958 345.291015625 175.378367733 347.048781781 174.853515625 347.45703125 c 2
 160.233398438 358.829101562 l 2
 158.69615718 360.024824924 158.198925629 361.617621838 159.420898438 363.702148438 c 2
 173.229492188 387.2578125 l 2
 174.21503015 388.939012019 175.709621933 389.528809005 177.291015625 388.881835938 c 2
 195.16015625 381.571289062 l 1
 198.950520833 384.820421007 202.740885417 387.257269965 206.53125 388.881835938 c 1
 208.96875 406.750976562 l 2
 209.268704164 408.949919388 210.592773438 410 212.216796875 410 c 2
 239.833984375 410 l 2
 242.000130208 410 243.59566983 408.949948669 243.895507812 406.750976562 c 2
 246.33203125 388.881835938 l 1
 250.122395833 387.257269965 253.912760417 384.820421007 257.703125 381.571289062 c 1
 274.760742188 388.881835938 l 2
 276.786829848 389.750175792 278.649323846 388.939085747 279.634765625 387.2578125 c 2
 293.44140625 363.702148438 l 2
 294.662922486 361.61810592 294.198916782 359.985299789 292.629882812 358.829101562 c 2
 277.197265625 347.45703125 l 2
 276.772078778 347.14371727 278.008789062 343.666503906 278.008789062 340.958984375 c 0
277.55078125 448.087890625 m 0
 257.55078125 448.087890625 238.884114583 444.421223958 221.55078125 437.087890625 c 128
 204.217447917 429.754557292 188.717447917 419.587890625 175.05078125 406.587890625 c 128
 161.384114583 393.587890625 150.55078125 378.587890625 142.55078125 361.587890625 c 128
 134.55078125 344.587890625 129.884114583 326.087890625 128.55078125 306.087890625 c 1
 87.55078125 252.087890625 l 2
 84.6491787556 248.266267828 84.55078125 244.254557292 86.55078125 240.587890625 c 128
 88.55078125 236.921223958 91.8841145833 235.087890625 96.55078125 235.087890625 c 2
 128.55078125 235.087890625 l 1
 128.55078125 171.087890625 l 2
 128.55078125 159.087890625 132.717447917 148.921223958 141.05078125 140.587890625 c 128
 149.384114583 132.254557292 159.55078125 128.087890625 171.55078125 128.087890625 c 2
 192.55078125 128.087890625 l 1
 192.55078125 64.087890625 l 1
 341.55078125 64.087890625 l 1
 341.55078125 164.087890625 l 1
 366.884114583 176.087890625 387.55078125 194.087890625 403.55078125 218.087890625 c 128
 419.55078125 242.087890625 427.55078125 269.087890625 427.55078125 299.087890625 c 0
 427.55078125 319.754557292 423.55078125 339.087890625 415.55078125 357.087890625 c 128
 407.55078125 375.087890625 396.717447917 390.921223958 383.05078125 404.587890625 c 128
 369.384114583 418.254557292 353.55078125 428.921223958 335.55078125 436.587890625 c 128
 317.55078125 444.254557292 298.217447917 448.087890625 277.55078125 448.087890625 c 0
EndSplineSet
EndChar

StartChar: zero
Encoding: 48 48 67
Width: 512
Flags: HW
LayerCount: 5
UndoRedoHistory
Layer: 1
Undoes
UndoOperation
Index: 0
Type: 1
WasModified: 1
WasOrder2: 0
Layer: 2
Width: 512
VWidth: 512
LBearingChange: 0
UnicodeEnc: 0
InstructionsLength: 0
SplineSet
276 362 m 6
 233 362 l 6
 221.666666667 362 211.833333333 357.833333333 203.5 349.5 c 132
 195.166666667 341.166666667 191 331.333333333 191 320 c 6
 191 192 l 6
 191 180 195.166666667 169.833333333 203.5 161.5 c 132
 211.833333333 153.166666667 221.666666667 149 233 149 c 6
 276 149 l 6
 288 149 298.166666667 153.166666667 306.5 161.5 c 132
 314.833333333 169.833333333 319 180 319 192 c 6
 319 320 l 6
 319 331.333333333 314.833333333 341.166666667 306.5 349.5 c 132
 298.166666667 357.833333333 288 362 276 362 c 6
276 192 m 5
 233 192 l 5
 233 320 l 5
 276 320 l 5
 276 192 l 5
405 107 m 1
 405 406 l 1
 106 406 l 1
 106 107 l 1
 405 107 l 1
405 449 m 2
 416.333007812 449 426.333007812 444.666992188 435 436 c 128
 443.666992188 427.333007812 448 417.333007812 448 406 c 2
 448 107 l 2
 448 95.666992188 443.666992188 85.833007812 435 77.5 c 128
 426.333007812 69.166992188 416.333007812 65 405 65 c 2
 106 65 l 2
 94.6669921875 65 84.8330078125 69.166992188 76.5 77.5 c 128
 68.1669921875 85.833007812 64 95.666992188 64 107 c 2
 64 406 l 2
 64 417.333007812 68.1669921875 427.333007812 76.5 436 c 128
 84.8330078125 444.666992188 94.6669921875 449 106 449 c 2
 405 449 l 2
EndSplineSet
EndUndoOperation
EndUndoes
Redoes
EndRedoes
EndUndoRedoHistory
Fore
SplineSet
276 363 m 6
 233 363 l 6
 221.666666667 363 211.833333333 358.833333333 203.5 350.5 c 132
 195.166666667 342.166666667 191 332.333333333 191 321 c 6
 191 193 l 6
 191 181 195.166666667 170.833333333 203.5 162.5 c 132
 211.833333333 154.166666667 221.666666667 150 233 150 c 6
 276 150 l 6
 288 150 298.166666667 154.166666667 306.5 162.5 c 132
 314.833333333 170.833333333 319 181 319 193 c 6
 319 321 l 6
 319 332.333333333 314.833333333 342.166666667 306.5 350.5 c 132
 298.166666667 358.833333333 288 363 276 363 c 6
276 193 m 5
 233 193 l 5
 233 321 l 5
 276 321 l 5
 276 193 l 5
405 107 m 5
 405 406 l 5
 106 406 l 5
 106 107 l 5
 405 107 l 5
405 449 m 6
 416.333007812 449 426.333007812 444.666992188 435 436 c 132
 443.666992188 427.333007812 448 417.333007812 448 406 c 6
 448 107 l 6
 448 95.666992188 443.666992188 85.833007812 435 77.5 c 132
 426.333007812 69.166992188 416.333007812 65 405 65 c 6
 106 65 l 6
 94.6669921875 65 84.8330078125 69.166992188 76.5 77.5 c 132
 68.1669921875 85.833007812 64 95.666992188 64 107 c 6
 64 406 l 6
 64 417.333007812 68.1669921875 427.333007812 76.5 436 c 132
 84.8330078125 444.666992188 94.6669921875 449 106 449 c 6
 405 449 l 6
EndSplineSet
EndChar

StartChar: at
Encoding: 64 64 68
Width: 512
Flags: HW
LayerCount: 5
UndoRedoHistory
Layer: 1
Undoes
UndoOperation
Index: 0
Type: 3
WasModified: 0
WasOrder2: 0
Layer: 2
EndUndoOperation
EndUndoes
Redoes
EndRedoes
EndUndoRedoHistory
Fore
SplineSet
313.342773438 181.19921875 m 5
 313.342773438 326.990234375 l 5
 274.3203125 326.990234375 l 5
 274.3203125 181.19921875 l 5
 313.342773438 181.19921875 l 5
236.205078125 181.19921875 m 5
 236.205078125 326.990234375 l 5
 197.182617188 326.990234375 l 5
 197.182617188 181.19921875 l 5
 236.205078125 181.19921875 l 5
384 171 m 1
 427 128 l 1
 427 107 l 1
 85 107 l 1
 85 128 l 1
 128 171 l 1
 128 277 l 2
 128 310.333333333 136.5 339.333333333 153.5 364 c 128
 170.5 388.666666667 194 404.666666667 224 412 c 1
 224 427 l 2
 224 435.666666667 227 443.166666667 233 449.5 c 128
 239 455.833333333 246.666666667 459 256 459 c 128
 265.333333333 459 273 455.833333333 279 449.5 c 128
 285 443.166666667 288 435.666666667 288 427 c 2
 288 412 l 1
 318 404.666666667 341.5 388.666666667 358.5 364 c 128
 375.5 339.333333333 384 310.333333333 384 277 c 2
 384 171 l 1
256 43 m 0
 244 43 233.833333333 47.1666666667 225.5 55.5 c 128
 217.166666667 63.8333333333 213 73.6666666667 213 85 c 1
 299 85 l 1
 299 73.6666666667 294.666666667 63.8333333333 286 55.5 c 128
 277.333333333 47.1666666667 267.333333333 43 256 43 c 0
EndSplineSet
EndChar

StartChar: A
Encoding: 65 65 69
Width: 512
Flags: HW
LayerCount: 5
UndoRedoHistory
Layer: 1
Undoes
UndoOperation
Index: 0
Type: 3
WasModified: 0
WasOrder2: 0
Layer: 2
EndUndoOperation
EndUndoes
Redoes
EndRedoes
EndUndoRedoHistory
Fore
SplineSet
272.828125 176.918945312 m 5
 272.828125 316.896484375 l 5
 307.9375 316.896484375 l 5
 307.9375 176.918945312 l 5
 272.828125 176.918945312 l 5
203.42578125 176.918945312 m 5
 203.42578125 316.896484375 l 5
 238.53515625 316.896484375 l 5
 238.53515625 176.918945312 l 5
 203.42578125 176.918945312 l 5
341 149 m 1
 341 277 l 2
 341 304.333333333 333.333333333 327.166666667 318 345.5 c 128
 302.666666667 363.833333333 282 373 256 373 c 128
 230 373 209.333333333 363.833333333 194 345.5 c 128
 178.666666667 327.166666667 171 304.333333333 171 277 c 2
 171 149 l 1
 341 149 l 1
384 171 m 1
 427 128 l 1
 427 107 l 1
 85 107 l 1
 85 128 l 1
 128 171 l 1
 128 277 l 2
 128 310.333333333 136.5 339.333333333 153.5 364 c 128
 170.5 388.666666667 194 404.666666667 224 412 c 1
 224 427 l 2
 224 435.666666667 227 443.166666667 233 449.5 c 128
 239 455.833333333 246.666666667 459 256 459 c 128
 265.333333333 459 273 455.833333333 279 449.5 c 128
 285 443.166666667 288 435.666666667 288 427 c 2
 288 412 l 1
 318 404.666666667 341.5 388.666666667 358.5 364 c 128
 375.5 339.333333333 384 310.333333333 384 277 c 2
 384 171 l 1
256 43 m 128
 244.666666667 43 234.666666667 47.1666666667 226 55.5 c 128
 217.333333333 63.8333333333 213 73.6666666667 213 85 c 1
 299 85 l 1
 299 73.6666666667 294.666666667 63.8333333333 286 55.5 c 128
 277.333333333 47.1666666667 267.333333333 43 256 43 c 128
EndSplineSet
EndChar

StartChar: B
Encoding: 66 66 70
Width: 512
Flags: HW
LayerCount: 5
UndoRedoHistory
Layer: 1
Undoes
UndoOperation
Index: 0
Type: 1
WasModified: 1
WasOrder2: 0
Layer: 2
Width: 512
VWidth: 512
LBearingChange: 0
UnicodeEnc: 0
InstructionsLength: 0
SplineSet
235 194 m 5
 235 236 l 5
 448 236 l 5
 448 194 l 5
 235 194 l 5
235 279 m 5
 235 322 l 5
 448 322 l 5
 448 279 l 5
 235 279 l 5
64 407 m 5
 448 407 l 5
 448 364 l 5
 64 364 l 5
 64 407 l 5
235 108 m 5
 235 151 l 5
 448 151 l 5
 448 108 l 5
 235 108 l 5
EndSplineSet
EndUndoOperation
EndUndoes
Redoes
EndRedoes
EndUndoRedoHistory
Fore
SplineSet
235 193 m 5
 235 235 l 5
 448 235 l 5
 448 193 l 5
 235 193 l 5
235 278 m 5
 235 321 l 5
 448 321 l 5
 448 278 l 5
 235 278 l 5
64 406 m 5
 448 406 l 5
 448 363 l 5
 64 363 l 5
 64 406 l 5
235 107 m 5
 235 150 l 5
 448 150 l 5
 448 107 l 5
 235 107 l 5
EndSplineSet
EndChar

StartChar: C
Encoding: 67 67 71
Width: 512
Flags: HW
LayerCount: 5
UndoRedoHistory
Layer: 1
Undoes
UndoOperation
Index: 0
Type: 1
WasModified: 1
WasOrder2: 0
Layer: 2
Width: 512
VWidth: 512
LBearingChange: 0
UnicodeEnc: 0
InstructionsLength: 0
SplineSet
235 192 m 5
 235 234 l 5
 448 234 l 5
 448 192 l 5
 235 192 l 5
235 277 m 5
 235 320 l 5
 448 320 l 5
 448 277 l 5
 235 277 l 5
64 405 m 5
 448 405 l 5
 448 362 l 5
 64 362 l 5
 64 405 l 5
235 106 m 5
 235 149 l 5
 448 149 l 5
 448 106 l 5
 235 106 l 5
64 298 m 5
 149 213 l 5
 64 128 l 5
 64 298 l 5
EndSplineSet
EndUndoOperation
EndUndoes
Redoes
EndRedoes
EndUndoRedoHistory
Fore
SplineSet
235 193 m 5
 235 235 l 5
 448 235 l 5
 448 193 l 5
 235 193 l 5
235 278 m 5
 235 321 l 5
 448 321 l 5
 448 278 l 5
 235 278 l 5
64 406 m 5
 448 406 l 5
 448 363 l 5
 64 363 l 5
 64 406 l 5
235 107 m 5
 235 150 l 5
 448 150 l 5
 448 107 l 5
 235 107 l 5
64 299 m 5
 149 214 l 5
 64 129 l 5
 64 299 l 5
EndSplineSet
EndChar

StartChar: D
Encoding: 68 68 72
Width: 512
Flags: HW
LayerCount: 5
UndoRedoHistory
Layer: 1
Undoes
UndoOperation
Index: 0
Type: 3
WasModified: 0
WasOrder2: 0
Layer: 2
EndUndoOperation
EndUndoes
Redoes
EndRedoes
EndUndoRedoHistory
Fore
SplineSet
323 326 m 5
 196 199 l 5
 128 267 l 5
 151 290 l 5
 196 245 l 5
 300 349 l 5
 323 326 l 5
323 326 m 5
 196 199 l 5
 128 267 l 5
 151 290 l 5
 196 245 l 5
 300 349 l 5
 323 326 l 5
436 109 m 1
 402 109 l 1
 402 75 l 1
 436 75 l 1
 436 109 l 1
370 109 m 1
 76 109 l 1
 76 75 l 1
 370 75 l 1
 370 109 l 1
402 141 m 1
 436 141 l 1
 436 433 l 1
 402 433 l 1
 402 141 l 1
76 141 m 1
 370 141 l 1
 370 433 l 1
 76 433 l 1
 76 141 l 1
44 465 m 1
 468 465 l 1
 468 43 l 1
 44 43 l 1
 44 465 l 1
EndSplineSet
EndChar

StartChar: E
Encoding: 69 69 73
Width: 512
Flags: HW
LayerCount: 5
UndoRedoHistory
Layer: 1
Undoes
UndoOperation
Index: 0
Type: 3
WasModified: 0
WasOrder2: 0
Layer: 2
EndUndoOperation
EndUndoes
Redoes
EndRedoes
EndUndoRedoHistory
Fore
SplineSet
349.450195312 211.8203125 m 5
 349.450195312 309.950195312 l 5
 228.83984375 309.950195312 l 5
 228.83984375 211.8203125 l 5
 349.450195312 211.8203125 l 5
326.969726562 376.700195312 m 5
 346.10546875 376.700195312 l 5
 346.10546875 357.565429688 l 5
 355.450195312 357.565429688 l 6
 360.493381076 357.565429688 364.943250868 355.637044271 368.799804688 351.780273438 c 132
 372.656575521 347.9234375 374.584960938 343.473242187 374.584960938 338.4296875 c 6
 374.584960938 205.8203125 l 6
 374.584960938 200.776757813 372.656575521 196.3265625 368.799804688 192.469726562 c 132
 364.943250868 188.612955729 360.493381076 186.684570312 355.450195312 186.684570312 c 6
 222.83984375 186.684570312 l 6
 217.499935963 186.684570312 212.975847421 188.612955729 209.267578125 192.469726562 c 132
 205.559244792 196.3265625 203.705078125 200.776757813 203.705078125 205.8203125 c 6
 203.705078125 338.4296875 l 6
 203.705078125 343.473242187 205.559244792 347.9234375 209.267578125 351.780273438 c 132
 212.975847421 355.637044271 217.499935963 357.565429688 222.83984375 357.565429688 c 6
 232.184570312 357.565429688 l 5
 232.184570312 376.700195312 l 5
 251.3203125 376.700195312 l 5
 251.3203125 357.565429688 l 5
 326.969726562 357.565429688 l 5
 326.969726562 376.700195312 l 5
111 74 m 1
 111 108 l 1
 77 108 l 1
 77 74 l 1
 111 74 l 1
111 140 m 1
 111 434 l 1
 77 434 l 1
 77 140 l 1
 111 140 l 1
143 108 m 1
 143 74 l 1
 435 74 l 1
 435 108 l 1
 143 108 l 1
143 434 m 1
 143 140 l 1
 435 140 l 1
 435 434 l 1
 143 434 l 1
467 466 m 1
 467 42 l 1
 45 42 l 1
 45 466 l 1
 467 466 l 1
EndSplineSet
EndChar

StartChar: F
Encoding: 70 70 74
Width: 512
Flags: HW
LayerCount: 5
UndoRedoHistory
Layer: 1
Undoes
UndoOperation
Index: 0
Type: 3
WasModified: 0
WasOrder2: 0
Layer: 2
EndUndoOperation
EndUndoes
Redoes
EndRedoes
EndUndoRedoHistory
Fore
SplineSet
242.206054688 179.299804688 m 5
 210.872494199 183.819016559 186.694434304 195.794928017 169.671875 215.227539062 c 132
 152.649591023 234.660335234 141.426934773 258.085139922 136.00390625 285.501953125 c 5
 159.202673426 252.662109375 194.603389572 236.2421875 242.206054688 236.2421875 c 5
 242.206054688 275.559570312 l 5
 309.541992188 208.22265625 l 5
 242.206054688 140.885742188 l 5
 242.206054688 179.299804688 l 5
401 434 m 1
 401 400 l 1
 435 400 l 1
 435 434 l 1
 401 434 l 1
401 368 m 1
 401 74 l 1
 435 74 l 1
 435 368 l 1
 401 368 l 1
369 400 m 1
 369 434 l 1
 77 434 l 1
 77 400 l 1
 369 400 l 1
369 74 m 1
 369 368 l 1
 77 368 l 1
 77 74 l 1
 369 74 l 1
45 42 m 1
 45 466 l 1
 467 466 l 1
 467 42 l 1
 45 42 l 1
EndSplineSet
EndChar

StartChar: G
Encoding: 71 71 75
Width: 512
Flags: HW
LayerCount: 5
UndoRedoHistory
Layer: 1
Undoes
UndoOperation
Index: 0
Type: 3
WasModified: 0
WasOrder2: 0
Layer: 2
EndUndoOperation
EndUndoes
Redoes
EndRedoes
EndUndoRedoHistory
Fore
SplineSet
239 141 m 5
 216 164 l 5
 268 216 l 5
 216 268 l 5
 239 291 l 5
 291 239 l 5
 343 291 l 5
 365 268 l 5
 313 216 l 5
 365 164 l 5
 343 141 l 5
 291 193 l 5
 239 141 l 5
76 398 m 1
 110 398 l 1
 110 432 l 1
 76 432 l 1
 76 398 l 1
142 398 m 1
 436 398 l 1
 436 432 l 1
 142 432 l 1
 142 398 l 1
110 366 m 1
 76 366 l 1
 76 74 l 1
 110 74 l 1
 110 366 l 1
436 366 m 1
 142 366 l 1
 142 74 l 1
 436 74 l 1
 436 366 l 1
468 42 m 1
 44 42 l 1
 44 464 l 1
 468 464 l 1
 468 42 l 1
EndSplineSet
EndChar

StartChar: uni0091
Encoding: 145 145 76
Width: 512
Flags: HW
LayerCount: 5
UndoRedoHistory
Layer: 1
Undoes
UndoOperation
Index: 0
Type: 3
WasModified: 0
WasOrder2: 0
Layer: 2
EndUndoOperation
EndUndoes
Redoes
EndRedoes
EndUndoRedoHistory
Fore
SplineSet
171 85 m 1
 171 171 l 1
 85 171 l 1
 85 85 l 1
 171 85 l 1
427 469 m 2
 438.333333333 469 448.166666667 464.833333333 456.5 456.5 c 128
 464.833333333 448.166666667 469 438.333333333 469 427 c 2
 469 85 l 2
 469 73.6666666667 464.833333333 63.8333333333 456.5 55.5 c 128
 448.166666667 47.1666666667 438.333333333 43 427 43 c 2
 85 43 l 2
 73.6666666667 43 63.8333333333 47.1666666667 55.5 55.5 c 128
 47.1666666667 63.8333333333 43 73.6666666667 43 85 c 2
 43 427 l 2
 43 438.333333333 47.1666666667 448.166666667 55.5 456.5 c 128
 63.8333333333 464.833333333 73.6666666667 469 85 469 c 2
 427 469 l 2
EndSplineSet
EndChar

StartChar: uni0092
Encoding: 146 146 77
Width: 512
Flags: HW
LayerCount: 5
UndoRedoHistory
Layer: 1
Undoes
UndoOperation
Index: 0
Type: 3
WasModified: 0
WasOrder2: 0
Layer: 2
EndUndoOperation
EndUndoes
Redoes
EndRedoes
EndUndoRedoHistory
Fore
SplineSet
299 85 m 1
 299 171 l 1
 213 171 l 1
 213 85 l 1
 299 85 l 1
427 469 m 2
 438.333333333 469 448.166666667 464.833333333 456.5 456.5 c 128
 464.833333333 448.166666667 469 438.333333333 469 427 c 2
 469 85 l 2
 469 73.6666666667 464.833333333 63.8333333333 456.5 55.5 c 128
 448.166666667 47.1666666667 438.333333333 43 427 43 c 2
 85 43 l 2
 73.6666666667 43 63.8333333333 47.1666666667 55.5 55.5 c 128
 47.1666666667 63.8333333333 43 73.6666666667 43 85 c 2
 43 427 l 2
 43 438.333333333 47.1666666667 448.166666667 55.5 456.5 c 128
 63.8333333333 464.833333333 73.6666666667 469 85 469 c 2
 427 469 l 2
EndSplineSet
EndChar

StartChar: R
Encoding: 82 82 78
Width: 512
Flags: HW
LayerCount: 5
UndoRedoHistory
Layer: 1
Undoes
UndoOperation
Index: 0
Type: 3
WasModified: 0
WasOrder2: 0
Layer: 2
EndUndoOperation
EndUndoes
Redoes
EndRedoes
EndUndoRedoHistory
Fore
SplineSet
199 313 m 1
 199 399 l 1
 113 399 l 1
 113 313 l 1
 199 313 l 1
427 85 m 1
 427 427 l 1
 85 427 l 1
 85 85 l 1
 427 85 l 1
427 469 m 2
 438.333333333 469 448.166666667 464.833333333 456.5 456.5 c 128
 464.833333333 448.166666667 469 438.333333333 469 427 c 2
 469 85 l 2
 469 73.6666666667 464.833333333 63.8333333333 456.5 55.5 c 128
 448.166666667 47.1666666667 438.333333333 43 427 43 c 2
 85 43 l 2
 73.6666666667 43 63.8333333333 47.1666666667 55.5 55.5 c 128
 47.1666666667 63.8333333333 43 73.6666666667 43 85 c 2
 43 427 l 2
 43 438.333333333 47.1666666667 448.166666667 55.5 456.5 c 128
 63.8333333333 464.833333333 73.6666666667 469 85 469 c 2
 427 469 l 2
EndSplineSet
EndChar

StartChar: S
Encoding: 83 83 79
Width: 512
Flags: HW
LayerCount: 5
UndoRedoHistory
Layer: 1
Undoes
UndoOperation
Index: 0
Type: 3
WasModified: 0
WasOrder2: 0
Layer: 2
EndUndoOperation
EndUndoes
Redoes
EndRedoes
EndUndoRedoHistory
Fore
SplineSet
399 313 m 1
 399 399 l 1
 313 399 l 1
 313 313 l 1
 399 313 l 1
427 85 m 1
 427 427 l 1
 85 427 l 1
 85 85 l 1
 427 85 l 1
427 469 m 2
 438.333333333 469 448.166666667 464.833333333 456.5 456.5 c 128
 464.833333333 448.166666667 469 438.333333333 469 427 c 2
 469 85 l 2
 469 73.6666666667 464.833333333 63.8333333333 456.5 55.5 c 128
 448.166666667 47.1666666667 438.333333333 43 427 43 c 2
 85 43 l 2
 73.6666666667 43 63.8333333333 47.1666666667 55.5 55.5 c 128
 47.1666666667 63.8333333333 43 73.6666666667 43 85 c 2
 43 427 l 2
 43 438.333333333 47.1666666667 448.166666667 55.5 456.5 c 128
 63.8333333333 464.833333333 73.6666666667 469 85 469 c 2
 427 469 l 2
EndSplineSet
EndChar

StartChar: T
Encoding: 84 84 80
Width: 512
Flags: HW
LayerCount: 5
UndoRedoHistory
Layer: 1
Undoes
UndoOperation
Index: 0
Type: 3
WasModified: 0
WasOrder2: 0
Layer: 2
EndUndoOperation
EndUndoes
Redoes
EndRedoes
EndUndoRedoHistory
Fore
SplineSet
299 313 m 5
 299 399 l 5
 213 399 l 5
 213 313 l 5
 299 313 l 5
427 85 m 1
 427 427 l 1
 85 427 l 1
 85 85 l 1
 427 85 l 1
427 469 m 2
 438.333333333 469 448.166666667 464.833333333 456.5 456.5 c 128
 464.833333333 448.166666667 469 438.333333333 469 427 c 2
 469 85 l 2
 469 73.6666666667 464.833333333 63.8333333333 456.5 55.5 c 128
 448.166666667 47.1666666667 438.333333333 43 427 43 c 2
 85 43 l 2
 73.6666666667 43 63.8333333333 47.1666666667 55.5 55.5 c 128
 47.1666666667 63.8333333333 43 73.6666666667 43 85 c 2
 43 427 l 2
 43 438.333333333 47.1666666667 448.166666667 55.5 456.5 c 128
 63.8333333333 464.833333333 73.6666666667 469 85 469 c 2
 427 469 l 2
EndSplineSet
EndChar

StartChar: U
Encoding: 85 85 81
Width: 512
Flags: HW
LayerCount: 5
UndoRedoHistory
Layer: 1
Undoes
UndoOperation
Index: 0
Type: 3
WasModified: 0
WasOrder2: 0
Layer: 2
EndUndoOperation
EndUndoes
Redoes
EndRedoes
EndUndoRedoHistory
Fore
SplineSet
199 213 m 5
 199 299 l 5
 113 299 l 5
 113 213 l 5
 199 213 l 5
427 85 m 1
 427 427 l 1
 85 427 l 1
 85 85 l 1
 427 85 l 1
427 469 m 2
 438.333333333 469 448.166666667 464.833333333 456.5 456.5 c 128
 464.833333333 448.166666667 469 438.333333333 469 427 c 2
 469 85 l 2
 469 73.6666666667 464.833333333 63.8333333333 456.5 55.5 c 128
 448.166666667 47.1666666667 438.333333333 43 427 43 c 2
 85 43 l 2
 73.6666666667 43 63.8333333333 47.1666666667 55.5 55.5 c 128
 47.1666666667 63.8333333333 43 73.6666666667 43 85 c 2
 43 427 l 2
 43 438.333333333 47.1666666667 448.166666667 55.5 456.5 c 128
 63.8333333333 464.833333333 73.6666666667 469 85 469 c 2
 427 469 l 2
EndSplineSet
EndChar

StartChar: V
Encoding: 86 86 82
Width: 512
Flags: HW
LayerCount: 5
UndoRedoHistory
Layer: 1
Undoes
UndoOperation
Index: 0
Type: 3
WasModified: 0
WasOrder2: 0
Layer: 2
EndUndoOperation
EndUndoes
Redoes
EndRedoes
EndUndoRedoHistory
Fore
SplineSet
399 213 m 5
 399 299 l 5
 313 299 l 5
 313 213 l 5
 399 213 l 5
427 85 m 1
 427 427 l 1
 85 427 l 1
 85 85 l 1
 427 85 l 1
427 469 m 2
 438.333333333 469 448.166666667 464.833333333 456.5 456.5 c 128
 464.833333333 448.166666667 469 438.333333333 469 427 c 2
 469 85 l 2
 469 73.6666666667 464.833333333 63.8333333333 456.5 55.5 c 128
 448.166666667 47.1666666667 438.333333333 43 427 43 c 2
 85 43 l 2
 73.6666666667 43 63.8333333333 47.1666666667 55.5 55.5 c 128
 47.1666666667 63.8333333333 43 73.6666666667 43 85 c 2
 43 427 l 2
 43 438.333333333 47.1666666667 448.166666667 55.5 456.5 c 128
 63.8333333333 464.833333333 73.6666666667 469 85 469 c 2
 427 469 l 2
EndSplineSet
EndChar

StartChar: e
Encoding: 101 101 83
Width: 512
Flags: HW
LayerCount: 5
UndoRedoHistory
Layer: 1
Undoes
UndoOperation
Index: 0
Type: 3
WasModified: 0
WasOrder2: 0
Layer: 2
EndUndoOperation
EndUndoes
Redoes
EndRedoes
EndUndoRedoHistory
Fore
SplineSet
268.294921875 243.6953125 m 4
 262.812406994 243.6953125 258.015299485 241.639229917 253.903320312 237.52734375 c 132
 249.791341146 233.415457589 247.735351562 228.618257068 247.735351562 223.135742188 c 4
 247.735351562 217.19625947 249.791727941 212.170930116 253.903320312 208.05859375 c 132
 258.015206473 203.945963542 262.812406994 201.889648438 268.294921875 201.889648438 c 4
 274.234789299 201.889648438 279.260934594 203.945859901 283.373046875 208.05859375 c 132
 287.484375 212.170543324 289.540039062 217.19625947 289.540039062 223.135742188 c 4
 289.540039062 228.618257068 287.484772372 233.415854967 283.373046875 237.52734375 c 132
 279.260830966 241.639322917 274.234789299 243.6953125 268.294921875 243.6953125 c 4
312.15625 223.135742188 m 4
 312.15625 221.765082465 312.15625 221.765082465 312.15625 220.051757812 c 132
 312.15625 218.337890625 311.4921875 217.483246182 312.15625 216.966796875 c 6
 324.4921875 207.373046875 l 6
 325.504667951 206.585633326 325.876767929 205.180043145 325.177734375 203.946289062 c 6
 313.528320312 183.385742188 l 6
 312.718552797 181.956549023 311.124822768 181.282843981 309.415039062 182.015625 c 6
 295.0234375 188.18359375 l 5
 292.282087054 185.898844401 289.083844866 184.071044922 285.428710938 182.700195312 c 5
 283.373046875 166.9375 l 6
 283.131064588 165.081995915 281.773893229 164.196289062 279.946289062 164.196289062 c 6
 256.643554688 164.196289062 l 6
 255.2734375 164.196289062 254.145414044 165.082022833 253.903320312 166.9375 c 6
 251.846679688 182.700195312 l 5
 248.191471354 184.071044922 244.764713542 185.898844401 241.56640625 188.18359375 c 5
 227.17578125 182.015625 l 6
 225.852114822 181.448288059 224.55786835 181.956573594 223.748046875 183.385742188 c 6
 212.09765625 203.946289062 l 6
 211.287575692 205.375914885 211.486021079 206.364218786 212.783203125 207.373046875 c 6
 225.119140625 216.966796875 l 6
 225.562121847 217.311306654 225.004952389 218.909193605 224.776367188 220.051757812 c 132
 224.547851563 221.193974248 224.43359375 222.221969039 224.43359375 223.135742188 c 260
 224.43359375 224.049479167 224.547851412 224.963215546 224.776367188 225.876953125 c 132
 225.004882813 226.790690104 225.561986154 228.273724756 225.119140625 228.618164062 c 6
 212.783203125 238.212890625 l 6
 211.486044186 239.221803432 211.066528061 240.566140752 212.09765625 242.325195312 c 6
 223.748046875 262.200195312 l 6
 224.579547178 263.618694405 225.841228955 264.116305005 227.17578125 263.5703125 c 6
 242.251953125 257.40234375 l 5
 245.450195312 260.143663194 248.6484375 262.199652778 251.846679688 263.5703125 c 5
 253.903320312 278.647460938 l 6
 254.156391288 280.502713924 255.2734375 281.388671875 256.643554688 281.388671875 c 6
 279.946289062 281.388671875 l 6
 281.773893229 281.388671875 283.120092046 280.502743407 283.373046875 278.647460938 c 6
 285.428710938 263.5703125 l 5
 288.626953125 262.199652778 291.825195312 260.143663194 295.0234375 257.40234375 c 5
 309.415039062 263.5703125 l 6
 311.124809416 264.303087797 312.696874033 263.618721146 313.528320312 262.200195312 c 6
 325.177734375 242.325195312 l 6
 326.208838654 240.566034085 325.817163382 239.189256637 324.4921875 238.212890625 c 6
 311.471679688 228.618164062 l 6
 311.112988499 228.353846885 312.15625 225.420084635 312.15625 223.135742188 c 4
348.294921875 335.6953125 m 0
 342.812406994 335.6953125 338.015299485 333.639229917 333.903320312 329.52734375 c 128
 329.791341146 325.415457589 327.735351562 320.618257068 327.735351562 315.135742188 c 0
 327.735351562 309.19625947 329.791727941 304.170930116 333.903320312 300.05859375 c 128
 338.015206473 295.945963542 342.812406994 293.889648438 348.294921875 293.889648438 c 0
 354.234789299 293.889648438 359.260934594 295.945859901 363.373046875 300.05859375 c 128
 367.484375 304.170543324 369.540039062 309.19625947 369.540039062 315.135742188 c 0
 369.540039062 320.618257068 367.484772372 325.415854967 363.373046875 329.52734375 c 128
 359.260830966 333.639322917 354.234789299 335.6953125 348.294921875 335.6953125 c 0
392.15625 315.135742188 m 0
 392.15625 313.765082465 392.15625 313.765082465 392.15625 312.051757812 c 128
 392.15625 310.337890625 391.492186056 309.483244325 392.15625 308.966796875 c 2
 404.4921875 299.373046875 l 2
 405.504667951 298.585633326 405.876767929 297.180043145 405.177734375 295.946289062 c 2
 393.528320312 275.385742188 l 2
 392.718552797 273.956549023 391.124822768 273.282843981 389.415039062 274.015625 c 2
 375.0234375 280.18359375 l 1
 372.282087054 277.898844401 369.083844866 276.071044922 365.428710938 274.700195312 c 1
 363.373046875 258.9375 l 2
 363.131064588 257.081995915 361.773893229 256.196289062 359.946289062 256.196289062 c 2
 336.643554688 256.196289062 l 2
 335.2734375 256.196289062 334.145414044 257.082022833 333.903320312 258.9375 c 2
 331.846679688 274.700195312 l 1
 328.191471354 276.071044922 324.764713542 277.898844401 321.56640625 280.18359375 c 1
 307.17578125 274.015625 l 2
 305.852114822 273.448288059 304.55786835 273.956573594 303.748046875 275.385742188 c 2
 292.09765625 295.946289062 l 2
 291.287575692 297.375914885 291.486021079 298.364218786 292.783203125 299.373046875 c 2
 305.119140625 308.966796875 l 2
 305.562121847 309.311306654 305.004952389 310.909193605 304.776367188 312.051757812 c 128
 304.547851563 313.193974248 304.43359375 314.221969039 304.43359375 315.135742188 c 256
 304.43359375 316.049479167 304.547851412 316.963215546 304.776367188 317.876953125 c 128
 305.004882812 318.790690104 305.561986154 320.273724756 305.119140625 320.618164062 c 2
 292.783203125 330.212890625 l 2
 291.486044186 331.221803432 291.066528061 332.566140752 292.09765625 334.325195312 c 2
 303.748046875 354.200195312 l 2
 304.579547178 355.618694405 305.841228955 356.116305005 307.17578125 355.5703125 c 2
 322.251953125 349.40234375 l 1
 325.450195312 352.143663194 328.6484375 354.199652778 331.846679688 355.5703125 c 1
 333.903320312 370.647460938 l 2
 334.156391288 372.502713924 335.2734375 373.388671875 336.643554688 373.388671875 c 2
 359.946289062 373.388671875 l 2
 361.773893229 373.388671875 363.120092046 372.502743407 363.373046875 370.647460938 c 2
 365.428710938 355.5703125 l 1
 368.626953125 354.199652778 371.825195312 352.143663194 375.0234375 349.40234375 c 1
 389.415039062 355.5703125 l 2
 391.124809416 356.303087797 392.696874033 355.618721146 393.528320312 354.200195312 c 2
 405.177734375 334.325195312 l 2
 406.208838654 332.566034085 405.817163382 331.189256637 404.4921875 330.212890625 c 2
 391.471679688 320.618164062 l 2
 391.112988499 320.353846885 392.15625 317.420084635 392.15625 315.135742188 c 0
226.025390625 365.326171875 m 0
 219.527622768 365.326171875 213.841982884 362.88974145 208.96875 358.016601562 c 128
 204.095052083 353.142996652 201.658203125 347.457124256 201.658203125 340.958984375 c 0
 201.658203125 333.919625947 204.095386062 327.963579715 208.96875 323.08984375 c 128
 213.842075893 318.216145833 219.527622768 315.779296875 226.025390625 315.779296875 c 0
 233.065133759 315.779296875 239.022002269 318.215983059 243.895507812 323.08984375 c 128
 248.768554688 327.963245739 251.205078125 333.919625947 251.205078125 340.958984375 c 0
 251.205078125 347.457124256 248.769144426 353.143586394 243.895507812 358.016601562 c 128
 239.021839489 362.889648438 233.065133759 365.326171875 226.025390625 365.326171875 c 0
278.008789062 340.958984375 m 0
 278.008789062 339.334852431 278.008789062 339.334852431 278.008789062 337.3046875 c 128
 278.008789062 335.2734375 277.221672105 334.260592847 278.008789062 333.6484375 c 2
 292.629882812 322.27734375 l 2
 293.828974244 321.344788271 294.269695211 319.677658349 293.44140625 318.215820312 c 2
 279.634765625 293.848632812 l 2
 278.674984917 292.154726445 276.78688766 291.356360743 274.760742188 292.224609375 c 2
 257.703125 299.534179688 l 1
 254.454241071 296.826660156 250.663876488 294.660644531 246.33203125 293.036132812 c 1
 243.895507812 274.354492188 l 2
 243.608676054 272.155257105 242.000130208 271.10546875 239.833984375 271.10546875 c 2
 212.216796875 271.10546875 l 2
 210.592773438 271.10546875 209.255693235 272.155283819 208.96875 274.354492188 c 2
 206.53125 293.036132812 l 1
 202.199305556 294.660644531 198.138107639 296.826660156 194.34765625 299.534179688 c 1
 177.291015625 292.224609375 l 2
 175.722481332 291.55241888 174.189369356 292.154795818 173.229492188 293.848632812 c 2
 159.420898438 318.215820312 l 2
 158.460706636 319.910212521 158.696018589 321.081615278 160.233398438 322.27734375 c 2
 174.853515625 333.6484375 l 2
 175.378514392 334.056765978 174.717611755 335.950423484 174.447265625 337.3046875 c 128
 174.177083333 338.658130787 174.041992188 339.876229745 174.041992188 340.958984375 c 256
 174.041992188 342.041992188 174.176470567 343.125153054 174.447265625 344.208007812 c 128
 174.718098958 345.291015625 175.378367733 347.048781781 174.853515625 347.45703125 c 2
 160.233398438 358.829101562 l 2
 158.69615718 360.024824924 158.198925629 361.617621838 159.420898438 363.702148438 c 2
 173.229492188 387.2578125 l 2
 174.21503015 388.939012019 175.709621933 389.528809005 177.291015625 388.881835938 c 2
 195.16015625 381.571289062 l 1
 198.950520833 384.820421007 202.740885417 387.257269965 206.53125 388.881835938 c 1
 208.96875 406.750976562 l 2
 209.268704164 408.949919388 210.592773438 410 212.216796875 410 c 2
 239.833984375 410 l 2
 242.000130208 410 243.59566983 408.949948669 243.895507812 406.750976562 c 2
 246.33203125 388.881835938 l 1
 250.122395833 387.257269965 253.912760417 384.820421007 257.703125 381.571289062 c 1
 274.760742188 388.881835938 l 2
 276.786829848 389.750175792 278.649323846 388.939085747 279.634765625 387.2578125 c 2
 293.44140625 363.702148438 l 2
 294.662922486 361.61810592 294.198916782 359.985299789 292.629882812 358.829101562 c 2
 277.197265625 347.45703125 l 2
 276.772078778 347.14371727 278.008789062 343.666503906 278.008789062 340.958984375 c 0
277.55078125 448.087890625 m 0
 257.55078125 448.087890625 238.884114583 444.421223958 221.55078125 437.087890625 c 128
 204.217447917 429.754557292 188.717447917 419.587890625 175.05078125 406.587890625 c 128
 161.384114583 393.587890625 150.55078125 378.587890625 142.55078125 361.587890625 c 128
 134.55078125 344.587890625 129.884114583 326.087890625 128.55078125 306.087890625 c 1
 87.55078125 252.087890625 l 2
 84.6491787556 248.266267828 84.55078125 244.254557292 86.55078125 240.587890625 c 128
 88.55078125 236.921223958 91.8841145833 235.087890625 96.55078125 235.087890625 c 2
 128.55078125 235.087890625 l 1
 128.55078125 171.087890625 l 2
 128.55078125 159.087890625 132.717447917 148.921223958 141.05078125 140.587890625 c 128
 149.384114583 132.254557292 159.55078125 128.087890625 171.55078125 128.087890625 c 2
 192.55078125 128.087890625 l 1
 192.55078125 64.087890625 l 1
 341.55078125 64.087890625 l 1
 341.55078125 164.087890625 l 1
 366.884114583 176.087890625 387.55078125 194.087890625 403.55078125 218.087890625 c 128
 419.55078125 242.087890625 427.55078125 269.087890625 427.55078125 299.087890625 c 0
 427.55078125 319.754557292 423.55078125 339.087890625 415.55078125 357.087890625 c 128
 407.55078125 375.087890625 396.717447917 390.921223958 383.05078125 404.587890625 c 128
 369.384114583 418.254557292 353.55078125 428.921223958 335.55078125 436.587890625 c 128
 317.55078125 444.254557292 298.217447917 448.087890625 277.55078125 448.087890625 c 0
EndSplineSet
EndChar

StartChar: uni009D
Encoding: 157 157 84
Width: 512
Flags: HW
LayerCount: 5
UndoRedoHistory
Layer: 1
Undoes
UndoOperation
Index: 0
Type: 3
WasModified: 0
WasOrder2: 0
Layer: 2
EndUndoOperation
EndUndoes
Redoes
EndRedoes
EndUndoRedoHistory
Fore
SplineSet
255.2890625 55.4091796875 m 1
 237.262695312 71.609375 l 2
 210.575947026 95.5926063414 191.979640549 112.95307725 181.440429688 123.68359375 c 0
 164.771086516 140.655515491 152.574360611 155.707327916 144.806640625 168.813476562 c 0
 135.890625 183.857096354 131.432617188 198.900716146 131.432617188 213.944335938 c 0
 131.432617188 226.287909384 134.437381133 237.667019797 140.446289062 248.08203125 c 128
 146.454676011 258.496139706 154.69215849 266.69212367 165.158203125 272.670898438 c 128
 175.624933792 278.650065104 187.060806188 281.639648438 199.465820312 281.639648438 c 0
 207.606921684 281.639648438 215.55418731 280.289388021 223.307617188 277.588867188 c 1
 267.500976562 203.529296875 l 1
 218.073242188 141.619140625 l 1
 255.2890625 55.4091796875 l 1
311.111328125 281.639648438 m 0
 323.516695356 281.639648438 334.952790074 278.649887555 345.419921875 272.670898438 c 128
 355.886144301 266.692428769 364.122752285 258.49573949 370.131835938 248.08203125 c 128
 376.141601562 237.667141155 379.146484375 226.287909384 379.146484375 213.944335938 c 0
 379.146484375 198.900716146 374.670982505 183.867158982 365.771484375 168.813476562 c 0
 358.018301505 155.698809762 345.692612802 140.766042267 329.137695312 123.68359375 c 0
 318.670654297 112.883015046 299.999442727 95.5945021985 273.313476562 71.609375 c 2
 255.2890625 55.4091796875 l 1
 243.077148438 141.619140625 l 1
 298.900390625 203.529296875 l 1
 265.754882812 266.017578125 l 1
 279.323050213 276.432291667 294.441865318 281.639648438 311.111328125 281.639648438 c 0
EndSplineSet
EndChar

StartChar: uni009E
Encoding: 158 158 85
Width: 512
Flags: HW
LayerCount: 5
UndoRedoHistory
Layer: 1
Undoes
UndoOperation
Index: 0
Type: 3
WasModified: 0
WasOrder2: 0
Layer: 2
EndUndoOperation
EndUndoes
Redoes
EndRedoes
EndUndoRedoHistory
Fore
SplineSet
307.958984375 268.474609375 m 4
 298.920009656 268.474609375 290.540126843 266.026367188 282.819335938 261.129882812 c 132
 275.098141863 256.233723958 269.354326759 249.831054687 265.587890625 241.921875 c 5
 265.587890625 115.373046875 l 5
 295.718815701 142.490453417 316.24550841 162.640193 327.16796875 175.822265625 c 4
 342.609375 194.654007523 350.330078125 211.602575231 350.330078125 226.66796875 c 4
 350.330078125 238.720248624 346.281575521 248.701042895 338.184570312 256.610351562 c 132
 330.086749781 264.519856771 320.011554468 268.474609375 307.958984375 268.474609375 c 4
307.958984375 292.767578125 m 4
 320.010891155 292.767578125 331.121242717 289.848632812 341.290039062 284.010742188 c 132
 351.460121783 278.173073683 359.464353554 270.169818474 365.302734375 260.000976562 c 132
 371.139973958 249.831584349 374.05859375 238.720581744 374.05859375 226.66796875 c 4
 374.05859375 211.979166667 369.727213542 197.290364583 361.064453125 182.6015625 c 4
 353.531797702 169.795940171 341.66786541 155.107138088 325.47265625 138.53515625 c 4
 315.303527832 127.989380787 297.225077311 111.040813079 271.237304688 87.689453125 c 6
 253.724609375 71.8720703125 l 5
 236.2109375 87.689453125 l 6
 210.223164876 111.040813079 192.144714355 127.989380787 181.975585938 138.53515625 c 4
 165.780821139 155.107138088 153.917214368 169.795940171 146.384765625 182.6015625 c 4
 137.722005208 197.290364583 133.390625 211.979166667 133.390625 226.66796875 c 4
 133.390625 238.720581744 136.309244792 249.831584349 142.146484375 260.000976562 c 132
 147.984390319 270.169818474 155.987971048 278.173073683 166.157226562 284.010742188 c 132
 176.326618776 289.848632812 187.437621381 292.767578125 199.490234375 292.767578125 c 4
 210.035635318 292.767578125 220.016104068 290.507486979 229.431640625 285.987304688 c 132
 238.847519985 281.467773438 246.945176235 275.441731771 253.724609375 267.909179688 c 5
 260.503769985 275.441731771 268.601100715 281.467773438 278.016601562 285.987304688 c 132
 287.432445214 290.507486979 297.413239485 292.767578125 307.958984375 292.767578125 c 4
EndSplineSet
EndChar

StartChar: f
Encoding: 102 102 86
Width: 512
Flags: HW
LayerCount: 5
UndoRedoHistory
Layer: 1
Undoes
UndoOperation
Index: 0
Type: 3
WasModified: 0
WasOrder2: 0
Layer: 2
EndUndoOperation
EndUndoes
Redoes
EndRedoes
EndUndoRedoHistory
Fore
SplineSet
405 107 m 1
 405 341 l 1
 107 341 l 1
 107 107 l 1
 405 107 l 1
405 448 m 2
 416.333333333 448 426.333333333 443.666666667 435 435 c 128
 443.666666667 426.333333333 448 416.333333333 448 405 c 2
 448 107 l 2
 448 95.6666666667 443.666666667 85.6666666667 435 77 c 128
 426.333333333 68.3333333333 416.333333333 64 405 64 c 2
 107 64 l 2
 95 64 84.8333333333 68.3333333333 76.5 77 c 128
 68.1666666667 85.6666666667 64 95.6666666667 64 107 c 2
 64 405 l 2
 64 416.333333333 68.1666666667 426.333333333 76.5 435 c 128
 84.8333333333 443.666666667 95 448 107 448 c 2
 128 448 l 1
 128 491 l 1
 171 491 l 1
 171 448 l 1
 341 448 l 1
 341 491 l 1
 384 491 l 1
 384 448 l 1
 405 448 l 2
353 276 m 1
 226 149 l 1
 158 217 l 1
 181 240 l 1
 226 195 l 1
 330 299 l 1
 353 276 l 1
EndSplineSet
EndChar

StartChar: g
Encoding: 103 103 87
Width: 512
Flags: HW
LayerCount: 5
UndoRedoHistory
Layer: 1
Undoes
UndoOperation
Index: 0
Type: 3
WasModified: 0
WasOrder2: 0
Layer: 2
EndUndoOperation
EndUndoes
Redoes
EndRedoes
EndUndoRedoHistory
Fore
SplineSet
405 107 m 1
 405 341 l 1
 107 341 l 1
 107 107 l 1
 405 107 l 1
341 491 m 1
 384 491 l 1
 384 448 l 1
 405 448 l 2
 416.333333333 448 426.333333333 443.666666667 435 435 c 128
 443.666666667 426.333333333 448 416.333333333 448 405 c 2
 448 107 l 2
 448 95.6666666667 443.666666667 85.6666666667 435 77 c 128
 426.333333333 68.3333333333 416.333333333 64 405 64 c 2
 107 64 l 2
 95 64 84.8333333333 68.3333333333 76.5 77 c 128
 68.1666666667 85.6666666667 64 95.6666666667 64 107 c 2
 64 405 l 2
 64 416.333333333 68.1666666667 426.333333333 76.5 435 c 128
 84.8333333333 443.666666667 95 448 107 448 c 2
 128 448 l 1
 128 491 l 1
 171 491 l 1
 171 448 l 1
 341 448 l 1
 341 491 l 1
363 256 m 5
 363 149 l 5
 256 149 l 5
 256 256 l 5
 363 256 l 5
EndSplineSet
EndChar

StartChar: m
Encoding: 109 109 88
Width: 512
Flags: HW
LayerCount: 5
UndoRedoHistory
Layer: 1
Undoes
UndoOperation
Index: 0
Type: 3
WasModified: 0
WasOrder2: 0
Layer: 2
EndUndoOperation
EndUndoes
Redoes
EndRedoes
EndUndoRedoHistory
Fore
SplineSet
265.325195312 184.920898438 m 1
 265.325195312 262.241210938 l 1
 284.8828125 262.241210938 l 1
 284.8828125 184.920898438 l 1
 265.325195312 184.920898438 l 1
255.774414062 145.805664062 m 132
 276.999023438 145.805664062 295.268554688 153.461914062 310.580078125 168.775390625 c 132
 325.892578125 184.087890625 333.548828125 202.356445312 333.548828125 223.581054688 c 132
 333.548828125 244.805664062 325.892578125 263.075195312 310.580078125 278.387695312 c 132
 295.268554688 293.700195312 276.999023438 301.356445312 255.774414062 301.356445312 c 132
 234.548828125 301.356445312 216.280273438 293.700195312 200.967773438 278.387695312 c 132
 185.655273438 263.075195312 177.999023438 244.805664062 177.999023438 223.581054688 c 132
 177.999023438 202.356445312 185.655273438 184.087890625 200.967773438 168.775390625 c 132
 216.280273438 153.461914062 234.548828125 145.805664062 255.774414062 145.805664062 c 132
255.774414062 320.458984375 m 132
 282.45703125 320.458984375 305.274414062 310.983398438 324.225585938 292.032226562 c 132
 343.176757812 273.08203125 352.65234375 250.264648438 352.65234375 223.581054688 c 132
 352.65234375 196.8984375 343.176757812 174.081054688 324.225585938 155.129882812 c 132
 305.274414062 136.178710938 282.45703125 126.704101562 255.774414062 126.704101562 c 132
 229.091796875 126.704101562 206.274414062 136.178710938 187.322265625 155.129882812 c 132
 168.372070312 174.081054688 158.896484375 196.8984375 158.896484375 223.581054688 c 132
 158.896484375 250.264648438 168.372070312 273.08203125 187.322265625 292.032226562 c 132
 206.274414062 310.983398438 229.091796875 320.458984375 255.774414062 320.458984375 c 132
226.665039062 184.920898438 m 1
 226.665039062 262.241210938 l 1
 246.22265625 262.241210938 l 1
 246.22265625 184.920898438 l 1
 226.665039062 184.920898438 l 1
405 107 m 1
 405 341 l 1
 107 341 l 1
 107 107 l 1
 405 107 l 1
341 491 m 1
 384 491 l 1
 384 448 l 1
 405 448 l 2
 416.333333333 448 426.333333333 443.666666667 435 435 c 128
 443.666666667 426.333333333 448 416.333333333 448 405 c 2
 448 107 l 2
 448 95.6666666667 443.666666667 85.6666666667 435 77 c 128
 426.333333333 68.3333333333 416.333333333 64 405 64 c 2
 107 64 l 2
 95 64 84.8333333333 68.3333333333 76.5 77 c 128
 68.1666666667 85.6666666667 64 95.6666666667 64 107 c 2
 64 405 l 2
 64 416.333333333 68.1666666667 426.333333333 76.5 435 c 128
 84.8333333333 443.666666667 95 448 107 448 c 2
 128 448 l 1
 128 491 l 1
 171 491 l 1
 171 448 l 1
 341 448 l 1
 341 491 l 1
EndSplineSet
EndChar

StartChar: n
Encoding: 110 110 89
Width: 512
Flags: HW
LayerCount: 5
UndoRedoHistory
Layer: 1
Undoes
UndoOperation
Index: 0
Type: 3
WasModified: 0
WasOrder2: 0
Layer: 2
EndUndoOperation
EndUndoes
Redoes
EndRedoes
EndUndoRedoHistory
Fore
SplineSet
255.552734375 145.323242188 m 132
 276.811759379 145.323242188 295.110914608 152.99218696 310.447265625 168.331054688 c 132
 325.784505208 183.668111003 333.453125 201.965962565 333.453125 223.224609375 c 132
 333.453125 244.484011951 325.784505208 262.783492185 310.447265625 278.12109375 c 132
 295.110914608 293.458333333 276.811759379 301.126953125 255.552734375 301.126953125 c 132
 234.292731839 301.126953125 215.994555284 293.458333333 200.657226562 278.12109375 c 132
 185.319335937 262.783492185 177.650390625 244.484011951 177.650390625 223.224609375 c 132
 177.650390625 201.965962565 185.319335937 183.668111003 200.657226562 168.331054688 c 132
 215.994555284 152.99218696 234.292731839 145.323242188 255.552734375 145.323242188 c 132
255.552734375 320.260742188 m 132
 282.279128505 320.260742188 305.133946746 310.769531251 324.116210938 291.787109375 c 132
 343.097330728 272.806093703 352.587890625 249.951600987 352.587890625 223.224609375 c 132
 352.587890625 196.498595914 343.097330728 173.644103198 324.116210938 154.662109375 c 132
 305.133946746 135.680988555 282.279128505 126.19140625 255.552734375 126.19140625 c 132
 228.827102198 126.19140625 205.97293553 135.680988555 186.990234375 154.662109375 c 132
 168.008789599 173.644103198 158.517578125 196.498595914 158.517578125 223.224609375 c 132
 158.517578125 249.951600987 168.008789599 272.806093703 186.990234375 291.787109375 c 132
 205.97293553 310.769531251 228.827102198 320.260742188 255.552734375 320.260742188 c 132
405 107 m 1
 405 341 l 1
 107 341 l 1
 107 107 l 1
 405 107 l 1
341 491 m 1
 384 491 l 1
 384 448 l 1
 405 448 l 2
 416.333333333 448 426.333333333 443.666666667 435 435 c 128
 443.666666667 426.333333333 448 416.333333333 448 405 c 2
 448 107 l 2
 448 95.6666666667 443.666666667 85.6666666667 435 77 c 128
 426.333333333 68.3333333333 416.333333333 64 405 64 c 2
 107 64 l 2
 95 64 84.8333333333 68.3333333333 76.5 77 c 128
 68.1666666667 85.6666666667 64 95.6666666667 64 107 c 2
 64 405 l 2
 64 416.333333333 68.1666666667 426.333333333 76.5 435 c 128
 84.8333333333 443.666666667 95 448 107 448 c 2
 128 448 l 1
 128 491 l 1
 171 491 l 1
 171 448 l 1
 341 448 l 1
 341 491 l 1
EndSplineSet
EndChar

StartChar: z
Encoding: 122 122 90
Width: 512
Flags: HW
LayerCount: 5
UndoRedoHistory
Layer: 1
Undoes
UndoOperation
Index: 0
Type: 3
WasModified: 1
WasOrder2: 0
Layer: 2
EndUndoOperation
EndUndoes
Redoes
EndRedoes
EndUndoRedoHistory
Fore
SplineSet
256 85 m 128
 302.666666667 85 342.833333333 101.833333333 376.5 135.5 c 128
 410.166666667 169.166666667 427 209.333333333 427 256 c 128
 427 302.666666667 410.166666667 342.833333333 376.5 376.5 c 128
 342.833333333 410.166666667 302.666666667 427 256 427 c 128
 209.333333333 427 169.166666667 410.166666667 135.5 376.5 c 128
 101.833333333 342.833333333 85 302.666666667 85 256 c 128
 85 209.333333333 101.833333333 169.166666667 135.5 135.5 c 128
 169.166666667 101.833333333 209.333333333 85 256 85 c 128
256 469 m 128
 314.666666667 469 364.833333333 448.166666667 406.5 406.5 c 128
 448.166666667 364.833333333 469 314.666666667 469 256 c 128
 469 197.333333333 448.166666667 147.166666667 406.5 105.5 c 128
 364.833333333 63.8333333333 314.666666667 43 256 43 c 128
 197.333333333 43 147.166666667 63.8333333333 105.5 105.5 c 128
 63.8333333333 147.166666667 43 197.333333333 43 256 c 128
 43 314.666666667 63.8333333333 364.833333333 105.5 406.5 c 128
 147.166666667 448.166666667 197.333333333 469 256 469 c 128
347 166 m 5
 371.666666667 191.333333333 384 221.333333333 384 256 c 128
 384 290.666666667 371.333333333 320.666666667 346 346 c 128
 320.666666667 371.333333333 290.666666667 384 256 384 c 1
 256 256 l 1
 347 166 l 5
EndSplineSet
EndChar

StartChar: braceleft
Encoding: 123 123 91
Width: 512
Flags: HW
LayerCount: 5
UndoRedoHistory
Layer: 1
Undoes
UndoOperation
Index: 0
Type: 3
WasModified: 1
WasOrder2: 0
Layer: 2
EndUndoOperation
EndUndoes
Redoes
EndRedoes
EndUndoRedoHistory
Fore
SplineSet
256 85 m 128
 302.666666667 85 342.833333333 101.833333333 376.5 135.5 c 128
 410.166666667 169.166666667 427 209.333333333 427 256 c 128
 427 302.666666667 410.166666667 342.833333333 376.5 376.5 c 128
 342.833333333 410.166666667 302.666666667 427 256 427 c 128
 209.333333333 427 169.166666667 410.166666667 135.5 376.5 c 128
 101.833333333 342.833333333 85 302.666666667 85 256 c 128
 85 209.333333333 101.833333333 169.166666667 135.5 135.5 c 128
 169.166666667 101.833333333 209.333333333 85 256 85 c 128
256 469 m 128
 314.666666667 469 364.833333333 448.166666667 406.5 406.5 c 128
 448.166666667 364.833333333 469 314.666666667 469 256 c 128
 469 197.333333333 448.166666667 147.166666667 406.5 105.5 c 128
 364.833333333 63.8333333333 314.666666667 43 256 43 c 128
 197.333333333 43 147.166666667 63.8333333333 105.5 105.5 c 128
 63.8333333333 147.166666667 43 197.333333333 43 256 c 128
 43 314.666666667 63.8333333333 364.833333333 105.5 406.5 c 128
 147.166666667 448.166666667 197.333333333 469 256 469 c 128
256 256 m 1
 256 384 l 1
 290.666666667 384 320.666666667 371.333333333 346 346 c 128
 371.333333333 320.666666667 384 290.666666667 384 256 c 128
 384 221.333333333 371.666666667 191.333333333 347 166 c 128
 322.333333333 140.666666667 292.333333333 128 257 128 c 128
 256 256 l 1
EndSplineSet
EndChar

StartChar: bar
Encoding: 124 124 92
Width: 512
Flags: HW
LayerCount: 5
UndoRedoHistory
Layer: 1
Undoes
UndoOperation
Index: 0
Type: 3
WasModified: 0
WasOrder2: 0
Layer: 2
EndUndoOperation
EndUndoes
Redoes
EndRedoes
EndUndoRedoHistory
Fore
SplineSet
256 85 m 132
 302.666666667 85 342.833333333 101.833333333 376.5 135.5 c 132
 410.166666667 169.166666667 427 209.333333333 427 256 c 132
 427 302.666666667 410.166666667 342.833333333 376.5 376.5 c 132
 342.833333333 410.166666667 302.666666667 427 256 427 c 132
 209.333333333 427 169.166666667 410.166666667 135.5 376.5 c 132
 101.833333333 342.833333333 85 302.666666667 85 256 c 132
 85 209.333333333 101.833333333 169.166666667 135.5 135.5 c 132
 169.166666667 101.833333333 209.333333333 85 256 85 c 132
256 469 m 132
 314.666666667 469 364.833333333 448.166666667 406.5 406.5 c 132
 448.166666667 364.833333333 469 314.666666667 469 256 c 132
 469 197.333333333 448.166666667 147.166666667 406.5 105.5 c 132
 364.833333333 63.8333333333 314.666666667 43 256 43 c 132
 197.333333333 43 147.166666667 63.8333333333 105.5 105.5 c 132
 63.8333333333 147.166666667 43 197.333333333 43 256 c 132
 43 314.666666667 63.8333333333 364.833333333 105.5 406.5 c 132
 147.166666667 448.166666667 197.333333333 469 256 469 c 132
346 346 m 132
 371.333333333 320.666666667 384 290.666666667 384 256 c 132
 384 221.333333333 371.666666667 191.333333333 347 166 c 132
 322.333333333 140.666666667 292.333333333 128 257 128 c 132
 221.666666667 128 191.333333333 140.666666667 166 166 c 5
 256 256 l 5
 256 384 l 5
 290.666666667 384 320.666666667 371.333333333 346 346 c 132
EndSplineSet
EndChar

StartChar: braceright
Encoding: 125 125 93
Width: 512
Flags: HW
LayerCount: 5
UndoRedoHistory
Layer: 1
Undoes
UndoOperation
Index: 0
Type: 3
WasModified: 0
WasOrder2: 0
Layer: 2
EndUndoOperation
EndUndoes
Redoes
EndRedoes
EndUndoRedoHistory
Fore
SplineSet
256 85 m 128
 302.666666667 85 342.833333333 101.833333333 376.5 135.5 c 128
 410.166666667 169.166666667 427 209.333333333 427 256 c 128
 427 302.666666667 410.166666667 342.833333333 376.5 376.5 c 128
 342.833333333 410.166666667 302.666666667 427 256 427 c 128
 209.333333333 427 169.166666667 410.166666667 135.5 376.5 c 128
 101.833333333 342.833333333 85 302.666666667 85 256 c 128
 85 209.333333333 101.833333333 169.166666667 135.5 135.5 c 128
 169.166666667 101.833333333 209.333333333 85 256 85 c 128
256 469 m 128
 314.666666667 469 364.833333333 448.166666667 406.5 406.5 c 128
 448.166666667 364.833333333 469 314.666666667 469 256 c 128
 469 197.333333333 448.166666667 147.166666667 406.5 105.5 c 128
 364.833333333 63.8333333333 314.666666667 43 256 43 c 128
 197.333333333 43 147.166666667 63.8333333333 105.5 105.5 c 128
 63.8333333333 147.166666667 43 197.333333333 43 256 c 128
 43 314.666666667 63.8333333333 364.833333333 105.5 406.5 c 128
 147.166666667 448.166666667 197.333333333 469 256 469 c 128
346 346 m 128
 371.333333333 320.666666667 384 290.666666667 384 256 c 128
 384 221.333333333 371.666666667 191.333333333 347 166 c 128
 322.333333333 140.666666667 284.323303954 127.821472185 249 127 c 128
 226.923440812 126.486591647 190.37109375 138.451171875 165 166 c 4
 140.954101562 192.110351562 127.515371838 233.237378672 126 255 c 1
 256 256 l 1
 256 384 l 1
 290.666666667 384 320.666666667 371.333333333 346 346 c 128
EndSplineSet
EndChar

StartChar: asciitilde
Encoding: 126 126 94
Width: 512
Flags: HW
LayerCount: 5
UndoRedoHistory
Layer: 1
Undoes
UndoOperation
Index: 0
Type: 3
WasModified: 0
WasOrder2: 0
Layer: 2
EndUndoOperation
EndUndoes
Redoes
EndRedoes
EndUndoRedoHistory
Fore
SplineSet
256 85 m 128
 302.666666667 85 342.833333333 101.833333333 376.5 135.5 c 128
 410.166666667 169.166666667 427 209.333333333 427 256 c 128
 427 302.666666667 410.166666667 342.833333333 376.5 376.5 c 128
 342.833333333 410.166666667 302.666666667 427 256 427 c 128
 209.333333333 427 169.166666667 410.166666667 135.5 376.5 c 128
 101.833333333 342.833333333 85 302.666666667 85 256 c 128
 85 209.333333333 101.833333333 169.166666667 135.5 135.5 c 128
 169.166666667 101.833333333 209.333333333 85 256 85 c 128
256 469 m 128
 314.666666667 469 364.833333333 448.166666667 406.5 406.5 c 128
 448.166666667 364.833333333 469 314.666666667 469 256 c 128
 469 197.333333333 448.166666667 147.166666667 406.5 105.5 c 128
 364.833333333 63.8333333333 314.666666667 43 256 43 c 128
 197.333333333 43 147.166666667 63.8333333333 105.5 105.5 c 128
 63.8333333333 147.166666667 43 197.333333333 43 256 c 128
 43 314.666666667 63.8333333333 364.833333333 105.5 406.5 c 128
 147.166666667 448.166666667 197.333333333 469 256 469 c 128
346 346 m 128
 371.333333333 320.666666667 384 290.666666667 384 256 c 128
 384 221.333333333 371.666666667 191.333333333 347 166 c 128
 322.333333333 140.666666667 291.333007812 128 256 128 c 128
 221 128 190.37109375 138.451171875 165 166 c 4
 153.494140625 178.494140625 132 218 131 255 c 0
 129.875991863 296.588301052 139 317 167 347 c 1
 256 256 l 1
 256 384 l 1
 290.666666667 384 320.666666667 371.333333333 346 346 c 128
EndSplineSet
EndChar

StartChar: s
Encoding: 115 115 95
Width: 512
Flags: HW
LayerCount: 5
UndoRedoHistory
Layer: 1
Undoes
UndoOperation
Index: 0
Type: 1
WasModified: 1
WasOrder2: 0
Layer: 2
Width: 512
VWidth: 512
LBearingChange: 0
UnicodeEnc: 0
InstructionsLength: 0
SplineSet
229.16015625 449.48046875 m 1
 229.16015625 471.440429688 l 1
 383.51953125 471.440429688 l 1
 383.51953125 449.48046875 l 1
 229.16015625 449.48046875 l 1
128.040039062 503.639648438 m 5
 384.51953125 503.639648438 l 5
 384.51953125 482.6796875 l 1
 128.040039062 482.6796875 l 1
 128.040039062 503.639648438 l 5
250 320 m 1
 341 321 l 1
 341 396 l 1
 171 396 l 1
 171 321 l 1
 250 320 l 1
341 129 m 1
 256 214 l 1
 171 129 l 1
 171 54 l 1
 341 54 l 1
 341 129 l 1
128 438 m 1
 384 438 l 1
 384 310 l 1
 299 225 l 1
 384 140 l 1
 384 12 l 1
 128 12 l 1
 128 140 l 1
 213 225 l 1
 128 310 l 1
 128 438 l 1
EndSplineSet
EndUndoOperation
EndUndoes
Redoes
EndRedoes
EndUndoRedoHistory
Fore
SplineSet
229.16015625 449.48046875 m 1
 229.16015625 471.440429688 l 1
 383.51953125 471.440429688 l 1
 383.51953125 449.48046875 l 1
 229.16015625 449.48046875 l 1
128.040039062 504.279296875 m 1
 384.51953125 504.279296875 l 1
 384.51953125 482.6796875 l 1
 128.040039062 482.6796875 l 1
 128.040039062 504.279296875 l 1
250 320 m 1
 341 321 l 1
 341 396 l 1
 171 396 l 1
 171 321 l 1
 250 320 l 1
341 129 m 1
 256 214 l 1
 171 129 l 1
 171 54 l 1
 341 54 l 1
 341 129 l 1
128 438 m 1
 384 438 l 1
 384 310 l 1
 299 225 l 1
 384 140 l 1
 384 12 l 1
 128 12 l 1
 128 140 l 1
 213 225 l 1
 128 310 l 1
 128 438 l 1
EndSplineSet
EndChar

StartChar: t
Encoding: 116 116 96
Width: 512
Flags: HW
LayerCount: 5
UndoRedoHistory
Layer: 1
Undoes
UndoOperation
Index: 0
Type: 3
WasModified: 0
WasOrder2: 0
Layer: 2
EndUndoOperation
EndUndoes
Redoes
EndRedoes
EndUndoRedoHistory
Fore
SplineSet
229.16015625 488.48046875 m 5
 229.16015625 519.440429688 l 5
 383.51953125 519.440429688 l 5
 383.51953125 488.48046875 l 5
 229.16015625 488.48046875 l 5
128.040039062 567.639648438 m 5
 384.51953125 567.639648438 l 5
 384.51953125 536.6796875 l 5
 128.040039062 536.6796875 l 5
 128.040039062 567.639648438 l 5
341 160 m 1
 256 245 l 1
 171 160 l 1
 171 85 l 1
 341 85 l 1
 341 160 l 1
128 469 m 1
 384 469 l 1
 384 341 l 1
 299 256 l 1
 384 171 l 1
 384 43 l 1
 128 43 l 1
 128 171 l 1
 213 256 l 1
 128 341 l 1
 128 469 l 1
341 160 m 1
 256 245 l 1
 171 160 l 1
 171 85 l 1
 341 85 l 1
 341 160 l 1
128 469 m 1
 384 469 l 1
 384 341 l 1
 299 256 l 1
 384 171 l 1
 384 43 l 1
 128 43 l 1
 128 171 l 1
 213 256 l 1
 128 341 l 1
 128 469 l 1
EndSplineSet
EndChar

StartChar: u
Encoding: 117 117 97
Width: 512
Flags: HW
LayerCount: 5
UndoRedoHistory
Layer: 1
Undoes
UndoOperation
Index: 0
Type: 3
WasModified: 0
WasOrder2: 0
Layer: 2
EndUndoOperation
EndUndoes
Redoes
EndRedoes
EndUndoRedoHistory
Fore
SplineSet
229.16015625 488.48046875 m 5
 229.16015625 519.440429688 l 5
 383.51953125 519.440429688 l 5
 383.51953125 488.48046875 l 5
 229.16015625 488.48046875 l 5
128.040039062 567.639648438 m 5
 384.51953125 567.639648438 l 5
 384.51953125 536.6796875 l 5
 128.040039062 536.6796875 l 5
 128.040039062 567.639648438 l 5
250 351 m 1
 341 352 l 1
 341 427 l 1
 171 427 l 1
 171 352 l 1
 250 351 l 1
341 160 m 1
 256 245 l 1
 171 160 l 1
 171 85 l 1
 341 85 l 1
 341 160 l 1
128 469 m 1
 384 469 l 1
 384 341 l 1
 299 256 l 1
 384 171 l 1
 384 43 l 1
 128 43 l 1
 128 171 l 1
 213 256 l 1
 128 341 l 1
 128 469 l 1
EndSplineSet
EndChar

StartChar: uni0082
Encoding: 130 130 98
Width: 512
Flags: HW
LayerCount: 5
UndoRedoHistory
Layer: 1
Undoes
UndoOperation
Index: 0
Type: 3
WasModified: 0
WasOrder2: 0
Layer: 2
EndUndoOperation
EndUndoes
Redoes
EndRedoes
EndUndoRedoHistory
Fore
SplineSet
105 313 m 2
 101 317 99 322 99 328 c 128
 99 334 101.166666667 339 105.5 343 c 128
 109.833333333 347 114.833333333 349 120.5 349 c 128
 126.166666667 349 131 347 135 343 c 2
 286 222 l 2
 294.666666667 214 299 204 299 192 c 128
 299 180 294.833333333 169.833333333 286.5 161.5 c 128
 278.166666667 153.166666667 268 149 256 149 c 128
 244 149 234 153.333333333 226 162 c 2
 105 313 l 2
256 21 m 256
 286.666666667 21 315.166666667 28.6666666667 341.5 44 c 128
 367.833333333 59.3333333333 388.666666667 80.1666666667 404 106.5 c 128
 419.333333333 132.833333333 427 161.333333333 427 192 c 0
 427 215.333333333 422.5 237.333333333 413.5 258 c 128
 404.5 278.666666667 392.333333333 297 377 313 c 1
 407 343 l 1
 426.333333333 323 441.5 300 452.5 274 c 128
 463.5 248 469 220.833333333 469 192.5 c 128
 469 164.166666667 463.666666667 136.833333333 453 110.5 c 128
 442.333333333 84.1666666667 427 61 407 41 c 128
 387 21 363.833333333 5.66666666667 337.5 -5 c 128
 311.166666667 -15.6666666667 284 -21 256 -21 c 128
 228 -21 200.833333333 -15.6666666667 174.5 -5 c 128
 148.166666667 5.66666666667 125 21 105 41 c 128
 85 61 69.6666666667 84.1666666667 59 110.5 c 128
 48.3333333333 136.833333333 43 164 43 192 c 1
 85 192 l 1
 85 161.333333333 92.6666666667 132.833333333 108 106.5 c 128
 123.333333333 80.1666666667 144.166666667 59.3333333333 170.5 44 c 128
 196.833333333 28.6666666667 225.333333333 21 256 21 c 256
256 427 m 256
 268 427 278.166666667 422.833333333 286.5 414.5 c 128
 294.833333333 406.166666667 299 396 299 384 c 128
 299 372 294.833333333 361.833333333 286.5 353.5 c 128
 278.166666667 345.166666667 268 341 256 341 c 128
 244 341 233.833333333 345.166666667 225.5 353.5 c 128
 217.166666667 361.833333333 213 372 213 384 c 128
 213 396 217.166666667 406.166666667 225.5 414.5 c 128
 233.833333333 422.833333333 244 427 256 427 c 256
EndSplineSet
EndChar

StartChar: uni0083
Encoding: 131 131 99
Width: 512
Flags: HW
LayerCount: 5
UndoRedoHistory
Layer: 1
Undoes
UndoOperation
Index: 0
Type: 3
WasModified: 0
WasOrder2: 0
Layer: 2
EndUndoOperation
EndUndoes
Redoes
EndRedoes
EndUndoRedoHistory
Fore
SplineSet
439 131 m 1
 469 161 l 1
 439 192 l 1
 363 116 l 1
 180 299 l 1
 256 375 l 1
 225 405 l 1
 195 375 l 1
 164 405 l 1
 119 360 l 1
 88 390 l 1
 58 360 l 1
 88 329 l 1
 43 284 l 1
 73 253 l 1
 43 223 l 1
 73 192 l 1
 149 268 l 1
 332 85 l 1
 256 9 l 1
 287 -21 l 1
 317 9 l 1
 348 -21 l 1
 393 24 l 1
 424 -6 l 1
 454 24 l 1
 424 55 l 1
 469 100 l 1
 439 131 l 1
EndSplineSet
EndChar

StartChar: yen
Encoding: 165 165 100
Width: 512
Flags: HW
LayerCount: 5
UndoRedoHistory
Layer: 1
Undoes
UndoOperation
Index: 0
Type: 1
WasModified: 1
WasOrder2: 0
Layer: 2
Width: 512
VWidth: 512
LBearingChange: 0
UnicodeEnc: 0
InstructionsLength: 0
SplineSet
405 448 m 6
 417 448 427.166666667 443.833333333 435.5 435.5 c 132
 443.833333333 427.166666667 448 417 448 405 c 6
 448 107 l 6
 448 95 443.833333333 84.8333333333 435.5 76.5 c 132
 427.166666667 68.1666666667 417 64 405 64 c 6
 107 64 l 6
 95 64 84.8333333333 68.1666666667 76.5 76.5 c 132
 68.1666666667 84.8333333333 64 95 64 107 c 6
 64 405 l 6
 64 417 68.1666666667 427.166666667 76.5 435.5 c 132
 84.8333333333 443.833333333 95 448 107 448 c 6
 405 448 l 6
235 363 m 6
 223 363 212.833333333 358.833333333 204.5 350.5 c 132
 196.166666667 342.166666667 192 332 192 320 c 6
 192 192 l 6
 192 180 196.166666667 169.833333333 204.5 161.5 c 132
 212.833333333 153.166666667 223 149 235 149 c 6
 277 149 l 6
 289 149 299.166666667 153.166666667 307.5 161.5 c 132
 315.833333333 169.833333333 320 180 320 192 c 6
 320 320 l 6
 320 332 315.833333333 342.166666667 307.5 350.5 c 132
 299.166666667 358.833333333 289 363 277 363 c 6
 235 363 l 6
235 320 m 5
 277 320 l 5
 277 192 l 5
 235 192 l 5
 235 320 l 5
EndSplineSet
EndUndoOperation
EndUndoes
Redoes
EndRedoes
EndUndoRedoHistory
Fore
SplineSet
405 449 m 6
 417 449 427.166666667 444.833333333 435.5 436.5 c 132
 443.833333333 428.166666667 448 418 448 406 c 6
 448 108 l 6
 448 96 443.833333333 85.8333333333 435.5 77.5 c 132
 427.166666667 69.1666666667 417 65 405 65 c 6
 107 65 l 6
 95 65 84.8333333333 69.1666666667 76.5 77.5 c 132
 68.1666666667 85.8333333333 64 96 64 108 c 6
 64 406 l 6
 64 418 68.1666666667 428.166666667 76.5 436.5 c 132
 84.8333333333 444.833333333 95 449 107 449 c 6
 405 449 l 6
235 364 m 6
 223 364 212.833333333 359.833333333 204.5 351.5 c 132
 196.166666667 343.166666667 192 333 192 321 c 6
 192 193 l 6
 192 181 196.166666667 170.833333333 204.5 162.5 c 132
 212.833333333 154.166666667 223 150 235 150 c 6
 277 150 l 6
 289 150 299.166666667 154.166666667 307.5 162.5 c 132
 315.833333333 170.833333333 320 181 320 193 c 6
 320 321 l 6
 320 333 315.833333333 343.166666667 307.5 351.5 c 132
 299.166666667 359.833333333 289 364 277 364 c 6
 235 364 l 6
235 321 m 5
 277 321 l 5
 277 193 l 5
 235 193 l 5
 235 321 l 5
EndSplineSet
EndChar

StartChar: brokenbar
Encoding: 166 166 101
Width: 512
Flags: HW
LayerCount: 5
UndoRedoHistory
Layer: 1
Undoes
UndoOperation
Index: 0
Type: 1
WasModified: 1
WasOrder2: 0
Layer: 2
Width: 512
VWidth: 512
LBearingChange: 0
UnicodeEnc: 0
InstructionsLength: 0
SplineSet
299 149 m 5
 256 149 l 5
 256 320 l 5
 213 320 l 5
 213 363 l 5
 299 363 l 5
 299 149 l 5
405 448 m 6
 107 448 l 6
 95 448 84.8333333333 443.833333333 76.5 435.5 c 132
 68.1666666667 427.166666667 64 417 64 405 c 6
 64 107 l 6
 64 95 68.1666666667 84.8333333333 76.5 76.5 c 132
 84.8333333333 68.1666666667 95 64 107 64 c 6
 405 64 l 6
 417 64 427.166666667 68.1666666667 435.5 76.5 c 132
 443.833333333 84.8333333333 448 95 448 107 c 6
 448 405 l 6
 448 417 443.833333333 427.166666667 435.5 435.5 c 132
 427.166666667 443.833333333 417 448 405 448 c 6
EndSplineSet
EndUndoOperation
EndUndoes
Redoes
EndRedoes
EndUndoRedoHistory
Fore
SplineSet
299 150 m 5
 256 150 l 5
 256 321 l 5
 213 321 l 5
 213 364 l 5
 299 364 l 5
 299 150 l 5
405 449 m 6
 107 449 l 6
 95 449 84.8333333333 444.833333333 76.5 436.5 c 132
 68.1666666667 428.166666667 64 418 64 406 c 6
 64 108 l 6
 64 96 68.1666666667 85.8333333333 76.5 77.5 c 132
 84.8333333333 69.1666666667 95 65 107 65 c 6
 405 65 l 6
 417 65 427.166666667 69.1666666667 435.5 77.5 c 132
 443.833333333 85.8333333333 448 96 448 108 c 6
 448 406 l 6
 448 418 443.833333333 428.166666667 435.5 436.5 c 132
 427.166666667 444.833333333 417 449 405 449 c 6
EndSplineSet
EndChar

StartChar: section
Encoding: 167 167 102
Width: 512
Flags: HW
LayerCount: 5
UndoRedoHistory
Layer: 1
Undoes
UndoOperation
Index: 0
Type: 1
WasModified: 1
WasOrder2: 0
Layer: 2
Width: 512
VWidth: 512
LBearingChange: 0
UnicodeEnc: 0
InstructionsLength: 0
SplineSet
320 277 m 6
 320 265.666666667 315.833333333 255.833333333 307.5 247.5 c 132
 299.166666667 239.166666667 289 235 277 235 c 6
 235 235 l 5
 235 192 l 5
 320 192 l 5
 320 149 l 5
 192 149 l 5
 192 235 l 6
 192 246.333333333 196.166666667 256.166666667 204.5 264.5 c 132
 212.833333333 272.833333333 223 277 235 277 c 6
 277 277 l 5
 277 320 l 5
 192 320 l 5
 192 363 l 5
 277 363 l 6
 289 363 299.166666667 358.833333333 307.5 350.5 c 132
 315.833333333 342.166666667 320 332 320 320 c 6
 320 277 l 6
405 448 m 6
 107 448 l 6
 95 448 84.8333333333 443.833333333 76.5 435.5 c 132
 68.1666666667 427.166666667 64 417 64 405 c 6
 64 107 l 6
 64 95 68.1666666667 84.8333333333 76.5 76.5 c 132
 84.8333333333 68.1666666667 95 64 107 64 c 6
 405 64 l 6
 417 64 427.166666667 68.1666666667 435.5 76.5 c 132
 443.833333333 84.8333333333 448 95 448 107 c 6
 448 405 l 6
 448 417 443.833333333 427.166666667 435.5 435.5 c 132
 427.166666667 443.833333333 417 448 405 448 c 6
EndSplineSet
EndUndoOperation
EndUndoes
Redoes
EndRedoes
EndUndoRedoHistory
Fore
SplineSet
320 278 m 6
 320 266.666666667 315.833333333 256.833333333 307.5 248.5 c 132
 299.166666667 240.166666667 289 236 277 236 c 6
 235 236 l 5
 235 193 l 5
 320 193 l 5
 320 150 l 5
 192 150 l 5
 192 236 l 6
 192 247.333333333 196.166666667 257.166666667 204.5 265.5 c 132
 212.833333333 273.833333333 223 278 235 278 c 6
 277 278 l 5
 277 321 l 5
 192 321 l 5
 192 364 l 5
 277 364 l 6
 289 364 299.166666667 359.833333333 307.5 351.5 c 132
 315.833333333 343.166666667 320 333 320 321 c 6
 320 278 l 6
405 449 m 6
 107 449 l 6
 95 449 84.8333333333 444.833333333 76.5 436.5 c 132
 68.1666666667 428.166666667 64 418 64 406 c 6
 64 108 l 6
 64 96 68.1666666667 85.8333333333 76.5 77.5 c 132
 84.8333333333 69.1666666667 95 65 107 65 c 6
 405 65 l 6
 417 65 427.166666667 69.1666666667 435.5 77.5 c 132
 443.833333333 85.8333333333 448 96 448 108 c 6
 448 406 l 6
 448 418 443.833333333 428.166666667 435.5 436.5 c 132
 427.166666667 444.833333333 417 449 405 449 c 6
EndSplineSet
EndChar

StartChar: dieresis
Encoding: 168 168 103
Width: 512
Flags: HW
LayerCount: 5
UndoRedoHistory
Layer: 1
Undoes
UndoOperation
Index: 0
Type: 1
WasModified: 1
WasOrder2: 0
Layer: 2
Width: 512
VWidth: 512
LBearingChange: 0
UnicodeEnc: 0
InstructionsLength: 0
SplineSet
320 288 m 6
 320 279.333333333 316.833333333 271.833333333 310.5 265.5 c 132
 304.166666667 259.166666667 296.666666667 256 288 256 c 5
 296.666666667 256 304.166666667 252.833333333 310.5 246.5 c 132
 316.833333333 240.166666667 320 232.666666667 320 224 c 6
 320 192 l 6
 320 180 315.833333333 169.833333333 307.5 161.5 c 132
 299.166666667 153.166666667 289 149 277 149 c 6
 192 149 l 5
 192 192 l 5
 277 192 l 5
 277 235 l 5
 235 235 l 5
 235 277 l 5
 277 277 l 5
 277 320 l 5
 192 320 l 5
 192 363 l 5
 277 363 l 6
 289 363 299.166666667 358.833333333 307.5 350.5 c 132
 315.833333333 342.166666667 320 332 320 320 c 6
 320 288 l 6
405 448 m 6
 107 448 l 6
 95 448 84.8333333333 443.833333333 76.5 435.5 c 132
 68.1666666667 427.166666667 64 417 64 405 c 6
 64 107 l 6
 64 95 68.1666666667 84.8333333333 76.5 76.5 c 132
 84.8333333333 68.1666666667 95 64 107 64 c 6
 405 64 l 6
 417 64 427.166666667 68.1666666667 435.5 76.5 c 132
 443.833333333 84.8333333333 448 95 448 107 c 6
 448 405 l 6
 448 417 443.833333333 427.166666667 435.5 435.5 c 132
 427.166666667 443.833333333 417 448 405 448 c 6
EndSplineSet
EndUndoOperation
EndUndoes
Redoes
EndRedoes
EndUndoRedoHistory
Fore
SplineSet
320 289 m 6
 320 280.333333333 316.833333333 272.833333333 310.5 266.5 c 132
 304.166666667 260.166666667 296.666666667 257 288 257 c 5
 296.666666667 257 304.166666667 253.833333333 310.5 247.5 c 132
 316.833333333 241.166666667 320 233.666666667 320 225 c 6
 320 193 l 6
 320 181 315.833333333 170.833333333 307.5 162.5 c 132
 299.166666667 154.166666667 289 150 277 150 c 6
 192 150 l 5
 192 193 l 5
 277 193 l 5
 277 236 l 5
 235 236 l 5
 235 278 l 5
 277 278 l 5
 277 321 l 5
 192 321 l 5
 192 364 l 5
 277 364 l 6
 289 364 299.166666667 359.833333333 307.5 351.5 c 132
 315.833333333 343.166666667 320 333 320 321 c 6
 320 289 l 6
405 449 m 6
 107 449 l 6
 95 449 84.8333333333 444.833333333 76.5 436.5 c 132
 68.1666666667 428.166666667 64 418 64 406 c 6
 64 108 l 6
 64 96 68.1666666667 85.8333333333 76.5 77.5 c 132
 84.8333333333 69.1666666667 95 65 107 65 c 6
 405 65 l 6
 417 65 427.166666667 69.1666666667 435.5 77.5 c 132
 443.833333333 85.8333333333 448 96 448 108 c 6
 448 406 l 6
 448 418 443.833333333 428.166666667 435.5 436.5 c 132
 427.166666667 444.833333333 417 449 405 449 c 6
EndSplineSet
EndChar

